<svg width="21" height="20" viewBox="0 0 21 20" fill="none" xmlns="http://www.w3.org/2000/svg">
<path d="M10.4987 5.83333C12.7987 5.83333 14.6654 7.7 14.6654 10C14.6654 10.5417 14.557 11.05 14.3654 11.525L16.7987 13.9583C18.057 12.9083 19.0487 11.55 19.657 10C18.2154 6.34167 14.657 3.75 10.4904 3.75C9.3237 3.75 8.20703 3.95833 7.1737 4.33333L8.9737 6.13333C9.4487 5.94167 9.95703 5.83333 10.4987 5.83333ZM2.16536 3.55833L4.06536 5.45833L4.4487 5.84167C3.06536 6.91667 1.98203 8.35 1.33203 10C2.7737 13.6583 6.33203 16.25 10.4987 16.25C11.7904 16.25 13.0237 16 14.1487 15.55L14.4987 15.9L16.9404 18.3333L17.9987 17.275L3.2237 2.5L2.16536 3.55833ZM6.7737 8.16667L8.06536 9.45833C8.0237 9.63333 7.9987 9.81667 7.9987 10C7.9987 11.3833 9.11536 12.5 10.4987 12.5C10.682 12.5 10.8654 12.475 11.0404 12.4333L12.332 13.725C11.7737 14 11.157 14.1667 10.4987 14.1667C8.1987 14.1667 6.33203 12.3 6.33203 10C6.33203 9.34167 6.4987 8.725 6.7737 8.16667ZM10.3654 7.51667L12.9904 10.1417L13.007 10.0083C13.007 8.625 11.8904 7.50833 10.507 7.50833L10.3654 7.51667Z" fill="#C4C4C4"/>
</svg>
