<svg width="20" height="29" viewBox="0 0 20 29" fill="none" xmlns="http://www.w3.org/2000/svg">
<path d="M8.6366 0.554865L0.437678 8.86961C-0.0625592 9.37691 -0.0625592 10.1997 0.437678 10.707C0.938017 11.2144 1.7491 11.2144 2.24944 10.707L8.2614 4.61007L8.2614 26.8161C8.2614 27.5335 8.83502 28.1152 9.54248 28.1152C10.2498 28.1152 10.8236 27.5335 10.8236 26.8161L10.8236 4.61007L16.8355 10.7068C17.3359 11.2142 18.1469 11.2142 18.6473 10.7068C18.8973 10.4532 19.0225 10.1206 19.0225 9.78808C19.0225 9.45559 18.8973 9.12311 18.6473 8.8694L10.4484 0.554865C9.94802 0.0474567 9.13694 0.0474567 8.6366 0.554865Z" fill="#1BC773"/>
</svg>
