<svg width="12" height="12" viewBox="0 0 12 12" fill="none" xmlns="http://www.w3.org/2000/svg">
<path d="M8.7 0C7.656 0 6.654 0.5297 6 1.36676C5.346 0.5297 4.344 0 3.3 0C1.452 0 0 1.58256 0 3.59673C0 6.06866 2.04 8.08283 5.13 11.1433L6 12L6.87 11.1368C9.96 8.08283 12 6.06866 12 3.59673C12 1.58256 10.548 0 8.7 0ZM6.06 10.1689L6 10.2343L5.94 10.1689C3.084 7.35041 1.2 5.48665 1.2 3.59673C1.2 2.28883 2.1 1.3079 3.3 1.3079C4.224 1.3079 5.124 1.95531 5.442 2.85123H6.564C6.876 1.95531 7.776 1.3079 8.7 1.3079C9.9 1.3079 10.8 2.28883 10.8 3.59673C10.8 5.48665 8.916 7.35041 6.06 10.1689Z" fill="#C4C4C4"/>
</svg>
