<svg width="99" height="95" viewBox="0 0 99 95" fill="none" xmlns="http://www.w3.org/2000/svg">
<path d="M98.7387 52.3725C95.2829 80.5067 76.6353 94.9999 49.3694 94.9999C22.1034 94.9999 0 75.915 0 52.3725C0 28.8301 28.1405 39.1579 49.3694 9.74521C70.5982 -19.6675 102.195 24.2383 98.7387 52.3725Z" fill="white"/>
<path d="M27.0091 30.5928C26.0617 32.4876 21.0878 36.9088 18.7193 38.8825C17.9298 40.6589 19.5088 42.4352 21.4826 43.0274C23.0616 43.5011 26.8775 42.5668 28.588 42.0405V27.2374C28.4565 27.5664 27.9564 28.698 27.0091 30.5928Z" fill="#D09770"/>
<path d="M23.2589 59.8042C26.8906 59.6463 28.0617 57.8962 28.1933 57.0409V45.1985C27.4038 45.1985 23.851 48.7512 23.2589 49.7381C22.7852 50.5276 22.4036 52.3039 22.272 53.0934C21.0878 55.3961 19.6273 59.9621 23.2589 59.8042Z" fill="#D09770"/>
<path d="M27.4038 70.4624L26.8116 61.1858C26.7915 60.87 28.9086 57.1067 29.9696 55.2646H37.4699V59.212C37.4699 60.0015 34.575 62.0411 33.1276 62.9621C33.9171 64.0806 34.904 67.0675 32.5355 70.0676C30.167 73.0677 28.1275 71.5808 27.4038 70.4624Z" fill="#D09770"/>
<path d="M27.0091 30.5928C26.0617 32.4876 21.0878 36.9088 18.7193 38.8825C17.9298 40.6589 19.5088 42.4352 21.4826 43.0274C23.0616 43.5011 26.8775 42.5668 28.588 42.0405V27.2374C28.4565 27.5664 27.9564 28.698 27.0091 30.5928Z" stroke="#A2704E" stroke-width="0.394748"/>
<path d="M23.2589 59.8042C26.8906 59.6463 28.0617 57.8962 28.1933 57.0409V45.1985C27.4038 45.1985 23.851 48.7512 23.2589 49.7381C22.7852 50.5276 22.4036 52.3039 22.272 53.0934C21.0878 55.3961 19.6273 59.9621 23.2589 59.8042Z" stroke="#A2704E" stroke-width="0.394748"/>
<path d="M27.4038 70.4624L26.8116 61.1858C26.7915 60.87 28.9086 57.1067 29.9696 55.2646H37.4699V59.212C37.4699 60.0015 34.575 62.0411 33.1276 62.9621C33.9171 64.0806 34.904 67.0675 32.5355 70.0676C30.167 73.0677 28.1275 71.5808 27.4038 70.4624Z" stroke="#A2704E" stroke-width="0.394748"/>
<rect x="25.0105" y="0.174445" width="29.0596" height="59.8139" rx="3.66971" fill="white" stroke="#77869E" stroke-width="0.349135"/>
<rect x="26.2097" y="6.81507" width="26.6561" height="46.1352" rx="0.978717" fill="white" stroke="#77869E" stroke-width="0.349135"/>
<path d="M26.2097 8.50883C26.2097 8.17201 26.2099 7.93024 26.2259 7.74072C26.2417 7.55334 26.272 7.43298 26.3235 7.33582C26.4153 7.16243 26.5571 7.02063 26.7305 6.92883C26.8276 6.87738 26.948 6.84702 27.1354 6.83121C27.3249 6.81522 27.5667 6.81507 27.9035 6.81507H51.172C51.5089 6.81507 51.7506 6.81522 51.9401 6.83121C52.1275 6.84702 52.2479 6.87738 52.3451 6.92883C52.5184 7.02063 52.6602 7.16243 52.752 7.33582C52.8035 7.43298 52.8338 7.55334 52.8497 7.74072C52.8657 7.93024 52.8658 8.17201 52.8658 8.50882V26.8305H26.2097V8.50883Z" fill="white" stroke="#77869E" stroke-width="0.349135"/>
<path fill-rule="evenodd" clip-rule="evenodd" d="M35.5032 3.45972C35.3439 3.45972 35.2148 3.5888 35.2148 3.74804C35.2148 3.90727 35.3439 4.03636 35.5032 4.03636C35.6624 4.03636 35.7915 3.90727 35.7915 3.74804C35.7915 3.5888 35.6624 3.45972 35.5032 3.45972ZM36.6566 3.45982C36.4974 3.45982 36.3683 3.5889 36.3683 3.74814C36.3683 3.90737 36.4974 4.03646 36.6566 4.03646H43.5763C43.7356 4.03646 43.8647 3.90737 43.8647 3.74814C43.8647 3.5889 43.7356 3.45982 43.5763 3.45982H36.6566Z" fill="#A9AFB8"/>
<rect x="35.9675" y="55.34" width="7.14721" height="2.53408" rx="0.402075" stroke="#77869E" stroke-width="0.349135"/>
<rect x="28.4883" y="32.7603" width="22.2968" height="2.54246" rx="1.27123" fill="#DE4A09"/>
<rect x="28.4883" y="38.3075" width="22.2968" height="2.54246" rx="1.27123" fill="#DE4A09"/>
<rect x="28.4883" y="43.6237" width="14.0316" height="2.54246" rx="1.27123" fill="#DE4A09"/>
<path d="M22.2716 53.0935C20.6926 56.2515 20.9557 58.0936 21.2847 58.6199C21.3505 58.6199 21.5216 58.541 21.6795 58.2252C21.8769 57.8305 22.8638 54.6725 22.8638 53.6856C22.8638 52.8961 22.469 52.9619 22.2716 53.0935Z" fill="#F4BB90" stroke="#A2704E" stroke-width="0.394748"/>
<path d="M27.207 65.7255L27.4044 70.4625C27.9307 70.3309 28.9834 70.4625 29.3781 69.0809C29.7729 67.6993 29.9046 66.8358 28.9834 66.1203C28.4222 65.6844 27.7334 65.594 27.207 65.7255Z" fill="#F4BB90" stroke="#A2704E" stroke-width="0.394748"/>
<path d="M38.4575 35.1325C40.9839 34.9746 44.2472 37.3036 45.563 38.4879C50.6948 39.4747 52.471 51.1198 52.6684 50.1329C52.8263 49.3434 53.9184 48.4881 54.4448 48.1592V23.4874C56.2211 24.7375 59.8528 27.4744 60.1686 28.4218C60.5634 29.606 66.4846 40.8563 67.2741 41.4485C68.0636 42.0406 69.6426 46.7776 69.2478 50.1329C68.8531 53.4883 70.4321 75.9889 70.4321 79.5417C70.4321 82.3839 72.8006 90.8578 73.9848 94.7395H54.8395C54.9711 92.7 53.8526 87.3182 48.3262 82.1075C41.4181 75.5942 41.0233 67.8966 40.4312 66.515C39.9575 65.4097 40.2338 56.3173 40.4312 51.9093C39.5759 50.1329 37.5102 45.9881 36.0891 43.6196C34.668 41.2511 34.7074 39.2116 34.9048 38.4879C35.0364 37.4352 35.9312 35.2904 38.4575 35.1325Z" fill="#D09770" stroke="#A2704E" stroke-width="0.394748"/>
<path d="M43.5883 37.1061C41.5356 37.264 38.9172 39.2772 37.8645 40.2641L37.6671 40.4615C37.5355 40.3299 36.856 39.947 36.4829 39.4746C35.9683 38.8232 35.6639 38.3305 35.6934 37.5009C35.7527 35.8344 37.8645 34.9349 39.2461 35.1324C40.6277 35.3298 43.062 36.6456 43.5883 37.1061Z" fill="#F4BB90" stroke="#A2704E" stroke-width="0.394748"/>
<path fill-rule="evenodd" clip-rule="evenodd" d="M38.8711 17.9129L39.4317 19.3482L39.9866 17.9295L39.6902 16.9244C39.7168 16.8999 39.7343 16.8656 39.7343 16.8269V16.5961C39.7343 16.5227 39.6739 16.4629 39.6005 16.4629H39.2502C39.1766 16.4629 39.1164 16.5227 39.1164 16.5961V16.8269C39.1164 16.8717 39.1405 16.9096 39.1747 16.9338L38.8711 17.9129Z" fill="#77869E"/>
<path fill-rule="evenodd" clip-rule="evenodd" d="M40.8795 16.4448L39.4304 20.1487L37.983 16.444C36.5169 17.0168 35.1186 18.341 35.5016 20.1713C35.5016 20.1713 37.9917 21.5971 39.524 21.5971C41.0563 21.5971 43.3593 20.1713 43.3593 20.1713C43.9293 18.5325 42.3449 17.0181 40.8795 16.4448Z" fill="#77869E"/>
<path fill-rule="evenodd" clip-rule="evenodd" d="M39.4478 11.8287C38.2665 11.8291 37.3086 12.7833 37.3086 13.9601C37.3086 15.1375 38.2665 16.0915 39.4478 16.0915C40.6289 16.0915 41.5863 15.1375 41.5867 13.9601C41.5863 12.7833 40.6289 11.8291 39.4478 11.8287ZM39.4481 15.7267C38.5021 15.725 37.7331 14.9877 37.6805 14.059C38.0857 13.7051 38.3711 13.2393 38.4691 12.7151C38.9635 13.2664 39.7191 13.6195 40.5661 13.6195C40.7746 13.6195 40.9768 13.5969 41.1715 13.5558C41.2022 13.6859 41.22 13.8208 41.2204 13.9601C41.2187 14.9353 40.4266 15.725 39.4481 15.7267Z" fill="#77869E"/>
<path d="M46.6102 16.7182C46.6102 20.688 43.3921 23.9061 39.4223 23.9061C35.4525 23.9061 32.2344 20.688 32.2344 16.7182C32.2344 12.7484 35.4525 9.53027 39.4223 9.53027C43.3921 9.53027 46.6102 12.7484 46.6102 16.7182ZM32.2929 16.7182C32.2929 20.6557 35.4849 23.8476 39.4223 23.8476C43.3598 23.8476 46.5517 20.6557 46.5517 16.7182C46.5517 12.7808 43.3598 9.58883 39.4223 9.58883C35.4849 9.58883 32.2929 12.7808 32.2929 16.7182Z" stroke="#77869E" stroke-width="0.224623"/>
</svg>
