<svg width="24" height="24" viewBox="0 0 24 24" fill="none" xmlns="http://www.w3.org/2000/svg">
<g clip-path="url(#clip0)">
<path d="M20.2891 18.1095H17.2346C15.3098 18.1095 13.7437 16.5435 13.7437 14.6187C13.7437 12.6938 15.3098 11.1278 17.2346 11.1278H20.2891C20.5303 11.1278 20.7255 10.9327 20.7255 10.6915V9.38239C20.7255 8.46735 20.0157 7.72319 19.1189 7.65103L16.6129 3.27382C16.3807 2.86899 16.0056 2.57965 15.5569 2.4595C15.1103 2.34017 14.6433 2.40284 14.2436 2.63549L5.6527 7.63695H4.14388C3.18126 7.63695 2.39844 8.41974 2.39844 9.38239V19.8549C2.39844 20.8176 3.18122 21.6004 4.14388 21.6004H18.98C19.9426 21.6004 20.7255 20.8176 20.7255 19.8549V18.5459C20.7255 18.3047 20.5303 18.1095 20.2891 18.1095ZM17.1541 5.97623L18.1049 7.63695H14.3016L17.1541 5.97623ZM7.38722 7.63695L14.6829 3.38972C14.8802 3.27423 15.1107 3.24355 15.3311 3.30238C15.5539 3.36202 15.7397 3.50606 15.8552 3.70762L15.8561 3.70921L9.10991 7.63695H7.38722Z" fill="#77869E"/>
<path d="M20.2937 12H17.2392C15.7955 12 14.6211 13.1744 14.6211 14.6181C14.6211 16.0619 15.7955 17.2363 17.2392 17.2363H20.2937C21.0156 17.2363 21.6028 16.6491 21.6028 15.9272V13.3091C21.6028 12.5872 21.0156 12 20.2937 12ZM17.2392 15.4908C16.7581 15.4908 16.3665 15.0992 16.3665 14.6181C16.3665 14.1371 16.7581 13.7454 17.2392 13.7454C17.7203 13.7454 18.1119 14.1371 18.1119 14.6181C18.112 15.0992 17.7203 15.4908 17.2392 15.4908Z" fill="#77869E"/>
</g>
<defs>
<clipPath id="clip0">
<rect width="24" height="24" fill="white"/>
</clipPath>
</defs>
</svg>
