<svg width="133" height="114" viewBox="0 0 133 114" fill="none" xmlns="http://www.w3.org/2000/svg">
<path d="M86.8242 2.25305C87.033 2.77526 87.2418 3.32649 87.4208 3.8487C89.9861 4.74808 90.7617 0.831457 93.327 1.73083C93.1182 1.20861 92.9094 0.657386 92.7304 0.13517C90.1651 -0.764201 89.3895 3.15242 86.8242 2.25305Z" fill="#6B4CB1"/>
<path d="M77.0762 53.4008C76.4796 53.3718 75.9129 53.3718 75.3163 53.3428C73.4967 55.3446 76.9569 57.4915 75.1373 59.4643C75.7339 59.4933 76.3007 59.4933 76.8972 59.5223C78.687 57.5205 75.2268 55.3736 77.0762 53.4008Z" fill="#6B4CB1"/>
<path d="M132.612 26.5064C132.016 26.4484 131.449 26.4194 130.852 26.3613C128.913 28.2471 132.254 30.5681 130.315 32.4538C130.912 32.5119 131.479 32.5409 132.075 32.5989C134.014 30.7421 130.673 28.4212 132.612 26.5064Z" fill="#6B4CB1"/>
<path d="M0.53125 75.6512C0.948859 76.0574 1.36648 76.4635 1.75426 76.8697C4.49855 76.6666 3.51418 72.779 6.25846 72.5759C5.84086 72.1698 5.42325 71.7636 5.03547 71.3574C2.29119 71.5605 3.27554 75.4481 0.53125 75.6512Z" fill="#6B4CB1"/>
<path d="M47.0614 17.8887C46.4648 17.8887 45.8981 17.8887 45.3015 17.8887C43.5416 19.9485 47.0913 21.9504 45.3313 24.0102C45.9279 24.0102 46.4947 24.0102 47.0913 24.0102C48.8512 21.9794 45.3313 19.9485 47.0614 17.8887Z" fill="#6B4CB1"/>
<path d="M34.4716 106.67C34.3821 107.221 34.2926 107.801 34.2031 108.353C35.9929 110.383 38.6178 107.308 40.4076 109.339C40.4971 108.788 40.5866 108.208 40.6761 107.656C38.8863 105.625 36.2613 108.701 34.4716 106.67Z" fill="#6B4CB1"/>
<g opacity="0.88">
<path d="M94.6644 19.4896C103.311 31.1301 86.0033 46.0161 69.0221 48.0355L68.5476 46.5353C75.2659 43.0735 83.0965 38.3134 87.516 32.1831C89.444 29.5001 90.8826 26.2402 88.925 23.6006C88.836 23.4996 88.7321 23.3409 88.5987 23.2111C88.0203 22.6918 88.1389 22.8649 87.961 22.7351C87.9016 22.7207 87.8423 22.6774 87.783 22.663C87.7237 22.6341 87.6495 22.6341 87.5754 22.6053C81.8507 22.2735 70.8611 34.1448 67.6725 46.4488L66.0857 46.3478C64.3653 29.5434 84.2088 6.16148 94.6644 19.4896Z" fill="#5734AA"/>
<path d="M48.6356 25.3871C50.6081 26.3247 52.4027 27.4354 54.0785 28.6614C60.7227 33.5801 65.9876 40.6193 68.7461 47.3266L67.352 48.1344C61.835 41.7876 54.3603 34.46 45.9661 31.2001C36.8007 27.6806 34.5761 32.9022 34.4723 33.3205C34.4278 33.4071 34.4278 33.508 34.3982 33.5946C34.3982 33.6811 34.3685 33.7821 34.3685 33.8686C34.3537 33.984 34.3685 34.3591 34.3982 34.4889C35.1694 39.9269 51.409 49.4758 67.4262 49.2739L67.6931 50.7884C63.8519 52.0145 59.6549 52.303 55.6061 52.0578C39.5148 50.9904 24.343 41.0376 27.665 31.3155C29.4892 25.0409 37.8241 20.2809 48.6356 25.3871Z" fill="#5734AA"/>
<path d="M116.088 18.6094C115.673 24.6243 111.787 27.8266 111.787 27.8266C116.904 28.9949 124.734 27.4227 124.734 27.4227C120.152 33.0193 108.05 37.3467 89.6746 40.9383C71.2993 44.53 66.4942 47.6745 66.4942 47.6745C66.1679 46.3908 65.8713 45.6263 65.8713 45.6263C77.2761 33.4665 106.596 32.5866 116.088 18.6094Z" fill="#6B4CB1"/>
<path d="M12.4264 61.1766C29.3779 64.0759 50.2002 43.9827 67.1369 44.2856C67.1369 44.2856 67.4928 45.0213 68.2344 46.1464C68.2344 46.1464 62.5987 47.3869 47.2637 57.8878C31.9288 68.3888 20.3905 73.9566 13.0641 73.3508C13.0641 73.3508 19.6193 68.8936 22.2592 64.4798C22.274 64.4942 17.2019 65.0279 12.4264 61.1766Z" fill="#6B4CB1"/>
<path d="M112.473 95.7817L57.6287 113.654L33.1728 61.8411L100.178 42.3682L112.473 95.7817Z" fill="#92C7F9"/>
<path d="M106.117 48.4504L28.0631 63.3075L26.4021 57.8695L101.712 34.127L106.117 48.4504Z" fill="#9FDBFF"/>
<path d="M91.8984 102.485L78.1652 106.956L57.0463 57.7979L79.4258 53.5283L91.8984 102.485Z" fill="#6B4CB1"/>
<path d="M79.4258 53.5291L57.0462 57.7988L53.4127 49.3461L76.5041 42.0762L79.4258 53.5291Z" fill="#7B44D3"/>
<path d="M105.691 66.2802L44.1885 85.1762L40.0803 76.4782L103.808 58.1016L105.691 66.2802Z" fill="#8B5AD5"/>
</g>
</svg>
