<svg width="152" height="134" viewBox="0 0 152 134" fill="none" xmlns="http://www.w3.org/2000/svg">
<path fill-rule="evenodd" clip-rule="evenodd" d="M140.662 75.2485L142.894 74.9271C145.529 74.5477 148.001 76.279 148.405 78.7869L151.886 100.378C152.29 102.886 150.476 105.234 147.841 105.614L145.609 105.935L148.694 125.072C149.263 128.599 147.612 131.966 144.738 133.887H122.629L140.046 131.378C142.911 130.966 144.884 128.411 144.444 125.685L143.539 120.071L47.6131 133.887H37.3728C37.2852 133.711 37.2226 133.52 37.19 133.318C37.0099 132.201 37.815 131.158 38.9889 130.989L142.887 116.025L141.359 106.548L121.153 109.458L121.153 109.458C112.266 110.738 103.926 104.896 102.562 96.4357C102.306 94.8512 102.313 93.286 102.552 91.7794L102.553 91.7736C102.665 91.0685 102.831 90.3771 103.041 89.7019C103.055 89.655 103.067 89.607 103.082 89.5603C103.088 89.5418 103.096 89.5237 103.102 89.5053C104.894 84.0148 109.84 79.6878 116.206 78.7709L116.206 78.7708L136.412 75.8607L134.884 66.3828L5.91876 84.9572L13.8067 133.887H9.45775L0.111345 75.9099C-0.472418 72.2887 1.28528 68.8374 4.30396 66.9459L4.01742 65.1685C3.40809 61.3887 6.14281 57.8485 10.1131 57.2767L15.5559 56.4928L13.7869 25.2337C13.5804 21.5845 16.5324 18.4625 20.3659 18.2733L53.8026 16.6268C54.9884 16.5684 56.0012 17.4357 56.0651 18.5643C56.129 19.6928 55.2194 20.6523 54.034 20.7132L20.5973 22.3597C19.1285 22.4303 18.0018 23.6264 18.0808 25.0224L20.2759 63.8054L22.9858 63.4151L21.575 38.49C21.4705 36.6435 22.4516 34.9383 24.1358 34.0392C26.3733 32.8447 28.1749 30.9566 29.2084 28.7223C29.9777 27.0601 31.6482 25.9703 33.5685 25.8742L50.1148 25.0595C51.3006 25.0011 52.3134 25.8684 52.3773 26.997C52.4412 28.1256 51.5322 29.0855 50.3462 29.146L33.7999 29.9606C33.5106 29.9742 33.2554 30.1386 33.1447 30.3779C31.7389 33.4165 29.2886 35.9848 26.2454 37.6094C26.0011 37.7396 25.8533 38.0023 25.869 38.2787L27.2567 62.8003L37.6485 61.3036L66.5828 3.76006C67.3849 2.1646 68.7927 0.963396 70.5464 0.377424C72.301 -0.209228 74.1907 -0.10914 75.8687 0.657847L123.659 22.494C127.123 24.0771 128.594 28.0443 126.938 31.3374L121.998 41.1624L123.665 40.9223C127.635 40.3505 131.361 42.9601 131.97 46.7399L132.39 49.3456C135.072 50.6271 137.089 53.0815 137.577 56.1112L140.662 75.2485ZM18.8709 133.887H27.5284C27.0861 133.217 26.2549 132.823 25.3815 132.949L18.8709 133.887ZM127.72 47.3523C127.47 45.8034 125.944 44.734 124.317 44.9686L119.754 45.6258L117.666 49.7793L126.682 48.4807C127.086 48.4225 127.488 48.3922 127.886 48.383L127.72 47.3523ZM71.9784 4.23846C71.3076 4.46276 70.7691 4.92221 70.4622 5.53246L42.7918 60.5625L46.0554 60.0925L66.7514 18.933C67.5768 17.2919 69.3384 16.2182 71.2428 16.1987C73.8106 16.1716 76.3446 15.3376 78.3775 13.8503C79.8903 12.7435 81.9077 12.5486 83.6429 13.3414L108.417 24.6611C110.152 25.4537 111.256 27.0748 111.299 28.8922C111.356 31.3351 112.261 33.7404 113.848 35.6654C115.042 37.1144 115.262 39.0494 114.425 40.7156L109.259 50.9893L112.522 50.5192L123.059 29.5644C123.692 28.3048 123.13 26.7873 121.804 26.1817L74.0141 4.34561C73.5257 4.12258 72.9901 4.04707 72.4667 4.12246C72.3021 4.14616 72.1388 4.185 71.9784 4.23846ZM61.9698 57.8004C61.1922 49.0481 67.6816 41.0846 76.9362 39.7517C86.1914 38.4187 94.8954 44.1939 96.9115 52.7676L104.116 51.73L110.546 38.9429C110.67 38.6936 110.64 38.3968 110.467 38.1865C108.309 35.5686 107.078 32.2974 107 28.9751C106.994 28.7138 106.822 28.4684 106.563 28.3497L81.7881 17.0297C81.5281 16.9111 81.2199 16.9371 81.0024 17.0966C78.2372 19.1198 74.7911 20.2534 71.2986 20.2905C71.2656 20.291 71.2329 20.2935 71.2005 20.2981C70.9579 20.3331 70.7408 20.4858 70.6305 20.7057L70.6302 20.7057L51.1981 59.3518L61.9698 57.8004ZM66.2311 57.1869L92.6497 53.382C91.0046 47.0395 84.4991 42.8023 77.5885 43.7979C70.6782 44.7932 65.8033 50.6691 66.2311 57.1869ZM10.7653 61.3224C9.13815 61.5568 8.01794 63.0074 8.26764 64.5563L8.42182 65.5127L16.0047 64.4206L15.7883 60.599L10.7653 61.3224ZM8.75977 69.604C5.89492 70.0166 3.92197 72.5708 4.36157 75.2977L5.26651 80.9112L134.232 62.3368L133.327 56.7233C132.887 53.9965 130.199 52.1135 127.335 52.5261L8.75977 69.604ZM147.189 101.568C147.48 101.526 147.68 101.267 147.636 100.99L144.155 79.399C144.11 79.1222 143.837 78.9312 143.546 78.9731L116.859 82.8167C112.36 83.4647 108.824 86.4252 107.379 90.2363C107.314 90.4095 107.253 90.5845 107.195 90.761C107.082 91.1144 106.986 91.4742 106.908 91.8391C106.637 93.117 106.593 94.4608 106.812 95.8235C107.032 97.1861 107.497 98.4566 108.159 99.6C108.348 99.9269 108.553 100.243 108.773 100.548C108.883 100.701 108.997 100.851 109.114 100.997C111.694 104.229 116.002 106.06 120.501 105.412L147.189 101.568Z" fill="white" fill-opacity="0.17"/>
</svg>
