<svg width="104" height="92" viewBox="0 0 104 92" fill="none" xmlns="http://www.w3.org/2000/svg">
<g opacity="0.22">
<path d="M53.7166 38.9399C53.5005 38.8931 53.2788 38.8847 53.0599 38.9174C50.866 38.662 49.211 36.8059 49.2072 34.5979C49.2072 33.5398 48.3493 32.6819 47.2912 32.6819C46.2331 32.6819 45.3752 33.5398 45.3752 34.5979C45.3808 38.285 47.8469 41.5145 51.4021 42.4903V44.4063C51.4021 45.4644 52.26 46.3223 53.3181 46.3223C54.3762 46.3223 55.2341 45.4644 55.2341 44.4063V42.6063C59.3374 41.7475 62.1263 37.9257 61.695 33.7559C61.2628 29.5862 57.7498 26.4174 53.5576 26.4165C51.1551 26.4165 49.2072 24.4687 49.2072 22.0662C49.2072 19.6637 51.1551 17.7158 53.5576 17.7158C55.9601 17.7158 57.9079 19.6637 57.9079 22.0662C57.9079 23.1243 58.7658 23.9822 59.8239 23.9822C60.882 23.9822 61.7399 23.1243 61.7399 22.0662C61.7343 18.1948 59.0222 14.8558 55.2341 14.0569V12.313C55.2341 11.2549 54.3762 10.397 53.3181 10.397C52.26 10.397 51.4021 11.2549 51.4021 12.313V14.1738C47.4484 15.2534 44.9037 19.092 45.4482 23.1542C45.9927 27.2164 49.4589 30.2485 53.5576 30.2476C55.9283 30.2476 57.8621 32.1458 57.9051 34.5156C57.9491 36.8854 56.0854 38.8538 53.7166 38.9399Z" fill="white"/>
<path d="M25.7734 28.4795C25.7734 43.8245 38.2126 56.2636 53.5576 56.2636C68.9026 56.2636 81.3417 43.8245 81.3417 28.4795C81.3417 13.1345 68.9026 0.695312 53.5576 0.695312C38.2201 0.712152 25.7912 13.142 25.7734 28.4795ZM53.5576 4.52735C66.7864 4.52735 77.5097 15.2507 77.5097 28.4795C77.5097 41.7082 66.7864 52.4316 53.5576 52.4316C40.3288 52.4316 29.6055 41.7082 29.6055 28.4795C29.6204 15.2572 40.3354 4.54232 53.5576 4.52735Z" fill="white"/>
<path d="M90.7887 60.9872L75.7795 68.0787C73.7073 64.2242 69.7321 61.7712 65.3575 61.6477L51.5019 61.2669C49.308 61.2043 47.1553 60.6485 45.2046 59.6409L43.7948 58.9103C36.576 55.1475 27.9717 55.1568 20.7604 58.9346L20.8484 55.7406C20.8774 54.6825 20.0438 53.8012 18.9857 53.7722L3.79224 53.354C2.73413 53.325 1.85377 54.1586 1.82477 55.2167L0.906984 88.5581C0.877982 89.6162 1.71156 90.4975 2.76968 90.5265L17.9631 90.9447H18.0155C19.054 90.9447 19.9035 90.1186 19.9315 89.081L19.9755 87.4859L23.9226 85.3725C25.4719 84.5389 27.2831 84.3406 28.9755 84.8196L52.5459 91.4349C52.5871 91.4471 52.6283 91.4564 52.6704 91.4658C54.374 91.8222 56.1104 92.0009 57.8506 92C61.5366 92.0018 65.1797 91.2076 68.5299 89.6695C68.6123 89.6321 68.6918 89.5881 68.7676 89.5385L102.942 67.4332C103.794 66.8822 104.069 65.7642 103.57 64.881C101.033 60.3791 95.4056 58.6642 90.7887 60.9872ZM4.79048 86.7487L5.60254 57.2375L16.9649 57.55L16.1528 87.0621L4.79048 86.7487ZM66.8038 86.2472C62.6415 88.1258 57.9928 88.6441 53.5189 87.7301L30.0121 81.1316C27.3664 80.3841 24.5345 80.6938 22.1142 81.9951L20.0971 83.0757L20.6369 63.4543C27.0287 59.2031 35.226 58.7662 42.0331 62.3129L43.443 63.0436C45.9072 64.3159 48.625 65.0176 51.3971 65.098L65.2536 65.4788C69.1455 65.5911 72.4508 68.3622 73.2404 72.1755L52.6011 71.6058C51.543 71.5768 50.6627 72.4113 50.6327 73.4685C50.6037 74.5266 51.4382 75.4079 52.4954 75.4369L75.2725 76.0637H75.3258C76.3633 76.0628 77.2119 75.2367 77.24 74.2001C77.2633 73.3674 77.2016 72.5338 77.0547 71.7143L92.4493 64.4403C92.4643 64.4338 92.4792 64.4263 92.4942 64.4188C94.6778 63.3139 97.3179 63.6835 99.1142 65.346L66.8038 86.2472Z" fill="white"/>
</g>
</svg>
