<svg width="48" height="29" viewBox="0 0 48 29" fill="none" xmlns="http://www.w3.org/2000/svg">
<path d="M47.934 14.7009C47.9354 22.5917 41.5554 28.991 33.6787 28.9925C25.8053 28.9953 19.4203 22.5987 19.418 14.7082V14.7009C19.4155 6.80946 25.7976 0.410168 33.6724 0.408204C41.5466 0.405324 47.9322 6.8016 47.9341 14.6934C47.934 14.6935 47.934 14.698 47.934 14.7009Z" fill="#F7981D"/>
<path d="M14.4563 0.41224C6.6276 0.462645 0.289062 6.84426 0.289062 14.7014C0.289062 22.5893 6.67657 28.9905 14.5478 28.9905C18.24 28.9905 21.6075 27.5791 24.141 25.2669L24.1405 25.2655H24.1425C24.6622 24.7922 25.1463 24.2814 25.5906 23.7352H22.67C22.2796 23.2644 21.9249 22.7725 21.6065 22.2645H26.644C26.9517 21.7732 27.2279 21.2618 27.4753 20.7342H20.7758C20.5471 20.2428 20.3487 19.7427 20.1796 19.2337H28.0716C28.5482 17.8081 28.8054 16.2842 28.8054 14.7014C28.8054 13.6506 28.6912 12.6272 28.4771 11.6411H19.7608C19.8696 11.1336 20.0052 10.6314 20.1669 10.1406H28.0628C27.8864 9.61599 27.6811 9.10592 27.448 8.60973H20.7749C21.0154 8.09586 21.2883 7.59378 21.5925 7.10924H26.627C26.2914 6.5743 25.921 6.06332 25.5208 5.5793H22.7139C23.1484 5.0674 23.6255 4.58482 24.1433 4.13668C21.6106 1.82344 18.2428 0.412109 14.5486 0.412109C14.5165 0.41224 14.4861 0.41224 14.4563 0.41224Z" fill="#CB2026"/>
<path d="M19.6715 18.3374L19.8621 17.0445C19.7583 17.0445 19.6054 17.0886 19.4707 17.0886C18.9425 17.0886 18.8838 16.8074 18.9181 16.5993L19.3447 13.9603H20.1477L20.3417 12.5293H19.5848L19.7392 11.6406H18.2206C18.1878 11.6739 17.3242 16.6438 17.3242 17.2477C17.3242 18.1437 17.8254 18.5429 18.5337 18.537C19.0871 18.5319 19.5196 18.3786 19.6715 18.3374Z" fill="white"/>
<path d="M20.1523 15.8721C20.1523 18.0222 21.5676 18.5336 22.7742 18.5336C23.8882 18.5336 24.3776 18.2833 24.3776 18.2833L24.6456 16.8157C24.6456 16.8157 23.7986 17.1919 23.0334 17.1919C21.4036 17.1919 21.6892 15.9732 21.6892 15.9732H24.7749C24.7749 15.9732 24.9732 14.9866 24.9732 14.5849C24.9732 13.5831 24.4746 12.3613 22.8085 12.3613C21.2815 12.3617 20.1523 14.0091 20.1523 15.8721ZM22.8149 13.723C23.6712 13.723 23.513 14.6881 23.513 14.766H21.8277C21.8272 14.6666 21.9865 13.723 22.8149 13.723Z" fill="white"/>
<path d="M32.4311 18.3379L32.703 16.6777C32.703 16.6777 31.9579 17.054 31.447 17.054C30.3703 17.054 29.9386 16.228 29.9386 15.3443C29.9386 13.5474 30.865 12.5588 31.8972 12.5588C32.6703 12.5588 33.2914 12.9948 33.2914 12.9948L33.5388 11.3841C33.5388 11.3841 32.6183 11.0098 31.8296 11.0098C30.0769 11.0098 28.3711 12.5319 28.3711 15.3956C28.3711 17.2915 29.2925 18.546 31.1041 18.546C31.6158 18.5462 32.4311 18.3379 32.4311 18.3379Z" fill="white"/>
<path d="M11.3246 12.3867C10.2836 12.3867 9.48555 12.7214 9.48555 12.7214L9.2656 14.0323C9.2656 14.0323 9.92492 13.7648 10.9199 13.7648C11.4852 13.7648 11.8982 13.828 11.8982 14.289C11.8982 14.5683 11.8478 14.6716 11.8478 14.6716C11.8478 14.6716 11.4025 14.6338 11.1958 14.6338C9.88342 14.6338 8.50391 15.1952 8.50391 16.8892C8.50391 18.2227 9.40818 18.5293 9.96917 18.5293C11.0405 18.5293 11.501 17.8332 11.5265 17.8302L11.4765 18.4121H12.8129L13.4095 14.2212C13.4095 12.4439 11.8619 12.3867 11.3246 12.3867ZM11.6503 15.7972C11.6793 16.0534 11.4897 17.2536 10.5756 17.2536C10.1043 17.2536 9.98135 16.8921 9.98135 16.6784C9.98135 16.2625 10.2072 15.7624 11.3201 15.7624C11.5783 15.7624 11.6062 15.7908 11.6503 15.7972Z" fill="white"/>
<path d="M14.8322 18.4955C15.1736 18.4955 17.1283 18.5832 17.1283 16.5619C17.1283 14.6719 15.3192 15.0448 15.3192 14.2854C15.3192 13.9088 15.6142 13.7882 16.1529 13.7882C16.367 13.7882 17.1905 13.8573 17.1905 13.8573L17.3825 12.5131C17.3825 12.5131 16.8495 12.3945 15.9825 12.3945C14.8582 12.3945 13.7192 12.8423 13.7192 14.3799C13.7192 16.1234 15.6199 15.9471 15.6199 16.6809C15.6199 17.1708 15.0884 17.211 14.6789 17.211C13.9715 17.211 13.3342 16.9675 13.3312 16.9787L13.1289 18.3077C13.1643 18.3202 13.5581 18.4955 14.8322 18.4955Z" fill="white"/>
<path d="M45.0033 11.1791L44.6766 13.215C44.6766 13.215 44.1048 12.4249 43.2109 12.4249C41.8192 12.4249 40.6602 14.1051 40.6602 16.0367C40.6602 17.2835 41.2778 18.5038 42.5428 18.5038C43.4524 18.5038 43.9556 17.8685 43.9556 17.8685L43.8895 18.4107H45.366L46.5265 11.1758L45.0033 11.1791ZM44.2988 15.1505C44.2988 15.9535 43.9011 17.0257 43.0785 17.0257C42.5318 17.0257 42.2766 16.5662 42.2766 15.8451C42.2766 14.6664 42.8048 13.8865 43.4709 13.8865C44.0182 13.8866 44.2988 14.2638 44.2988 15.1505Z" fill="white"/>
<path d="M3.10341 18.4186L4.02876 12.9564L4.16347 18.4186H5.20979L7.16091 12.9564L6.29631 18.4186H7.85021L9.04801 11.1758H6.6443L5.14774 15.619L5.06984 11.1758H2.85505L1.64062 18.4186H3.10341Z" fill="white"/>
<path d="M26.4964 18.4265C26.9382 15.909 27.0201 13.8638 28.0753 14.2367C28.26 13.2627 28.4378 12.8861 28.6386 12.4732C28.6386 12.4732 28.5446 12.4531 28.3456 12.4531C27.6672 12.4531 27.163 13.3838 27.163 13.3838L27.2972 12.5295H25.8834L24.9375 18.4265H26.4964Z" fill="white"/>
<path d="M35.934 12.3867C34.893 12.3867 34.0954 12.7214 34.0954 12.7214L33.876 14.0323C33.876 14.0323 34.5339 13.7648 35.5298 13.7648C36.0946 13.7648 36.5086 13.828 36.5086 14.289C36.5086 14.5683 36.4577 14.6716 36.4577 14.6716C36.4577 14.6716 36.0124 14.6338 35.8041 14.6338C34.4912 14.6338 33.1133 15.1952 33.1133 16.8892C33.1133 18.2227 34.0181 18.5293 34.5785 18.5293C35.6499 18.5293 36.1109 17.8332 36.1353 17.8302L36.0858 18.4121H37.4232L38.0194 14.2212C38.0199 12.4439 36.4728 12.3867 35.934 12.3867ZM36.2602 15.7972C36.2892 16.0534 36.1005 17.2536 35.185 17.2536C34.7142 17.2536 34.5922 16.8921 34.5922 16.6784C34.5922 16.2625 34.818 15.7624 35.929 15.7624C36.1887 15.7624 36.2157 15.7908 36.2602 15.7972Z" fill="white"/>
<path d="M39.2383 18.4265C39.6807 15.909 39.7625 13.8638 40.8176 14.2367C41.0023 13.2627 41.1801 12.8861 41.382 12.4732C41.382 12.4732 41.2864 12.4531 41.0886 12.4531C40.4082 12.4531 39.9056 13.3838 39.9056 13.3838L40.0408 12.5295H38.6261L37.6797 18.4261H39.2384L39.2383 18.4265Z" fill="white"/>
</svg>
