<svg width="76" height="76" fill="none" xmlns="http://www.w3.org/2000/svg"><circle cx="38" cy="38" r="38" fill="#3DB657"/><path d="M44.283 30.969c4.943 1.77 8.279 6.008 8.289 10.81v9.875c-.003 1.629-1.5 2.911-3.3 2.913h0-22.54 0c-1.8-.002-3.299-1.284-3.3-2.913h0V41.78v0c.01-5.227 3.959-9.784 9.631-11.22a1.62 1.62 0 01-.187-1.26c.12-.457.434-.846.865-1.096l-2.708-4.746a.66.66 0 01.036-.716s0 0 0 0l.139.098 13.075 8.129zm0 0c.26.072.53.111.803.117h.004c.174 0 .348-.014.52-.041m-1.327-.076l3.004-1.032c.216-.298.565-.503.962-.564m-2.64 1.672s0 0 0 0l-.025-.168.026.168s0 0 0 0zm0 0c.726-.109 1.379-.466 1.81-1h0l.006-.008c.187-.258.494-.44.85-.496l-.026-.168m0 0c.397-.06.804.027 1.123.242a2.92 2.92 0 001.8.395l.002.011.166-.033-.027-.168h-.007l-.184-.913A1.588 1.588 0 0150 28.665c-1.196-.717-2.827-.465-3.67.567a1.455 1.455 0 01-1.014.573l.05-.022s0 0 0 0c.2-.087.388-.197.558-.328.118-.085.227-.18.327-.28l.004-.004c.135-.137.253-.287.35-.447m1.645.65l.026.167c.356-.055.72.025 1.002.215h0l.007.005a3.1 3.1 0 002.083.395l.175-.028-.035-.174-.218-1.08-.032-.16-.16.025a1.418 1.418 0 01-1.003-.215h0l-.008-.005c-1.092-.654-2.53-.548-3.481.205m0 0c.177-.29.29-.61.325-.947h0v-.01c.015-.297.171-.581.443-.78l.001-.001c.27-.202.63-.295.988-.251h.008a2.99 2.99 0 002.032-.573l.153-.115-.133-.138-.807-.84-.101-.106-.12.085a1.477 1.477 0 01-.995.252h0-.006c-1.515-.102-2.881.877-3.036 2.25h0v.01c-.014.297-.17.581-.441.78l.1.138m1.589.246l-.71.691-.073-.096m0 0c.537-.39.874-.952.939-1.56.017-.353.202-.683.511-.91.308-.229.712-.332 1.111-.283a2.843 2.843 0 001.776-.44l.018.018.123-.117-.103-.136-.016.012-.688-.716a1.647 1.647 0 01-1.111.282c-1.445-.097-2.714.836-2.856 2.1a1.206 1.206 0 01-.51.909m.806.841a2.544 2.544 0 01-.552.32l.067-.01h.004a1.37 1.37 0 00.552-.212l-.071-.098zm-.806-.841c-.308.226-.711.33-1.11.283l1.11-.283zm-2.194.22a3.325 3.325 0 011.095-.107h.009c.358.043.718-.05.99-.25l-2.094.357zm0 0a1.953 1.953 0 00-.561-.492l.56.492zm.709 1.952h0c.124.074.255.139.389.194-.322-.106-.65-.2-.984-.285.023-.038.044-.077.063-.116.19.041.37.111.532.207zm-9.73-7.507h0l.01-.007c.277-.245.66-.386 1.062-.386.403 0 .785.14 1.063.386h0l.005.005c1.168.941 2.959.941 4.127 0h0l.006-.005a1.606 1.606 0 011.06-.386c.402 0 .784.14 1.061.386h0l.009.007c.262.202.556.369.872.494l-2.43 4.258h-5.29l-2.429-4.257c.317-.126.612-.292.875-.495zm1.07 6.947c-.274 0-.456-.19-.456-.379 0-.188.182-.378.456-.378h6.261c.274 0 .456.19.456.378 0 .189-.182.379-.456.379h-6.26zM50.98 51.654c0 .795-.743 1.476-1.708 1.476H26.732c-.965 0-1.708-.681-1.708-1.476V41.78c.007-5.64 5.23-10.247 11.726-10.253h2.504c6.494.006 11.718 4.613 11.725 10.253v9.874z" fill="#fff" stroke="#fff" stroke-width=".34"/><path d="M33.689 45.653l-.146.128.146.127.885.776.112.099.112-.099 7.514-6.583.145-.127-.145-.128-.886-.776-.112-.098-.112.098-7.513 6.583z" fill="#fff" stroke="#fff" stroke-width=".34"/><path d="M40.507 43.326c-1.08 0-1.978.77-1.978 1.746s.898 1.745 1.978 1.745 1.978-.77 1.978-1.745c0-.976-.898-1.746-1.978-1.746zm0 2.194c-.303 0-.526-.213-.526-.448 0-.236.222-.449.526-.449.303 0 .526.213.526.449 0 .235-.223.448-.526.448zM35.495 42.428c1.08 0 1.979-.77 1.979-1.745 0-.976-.899-1.746-1.979-1.746s-1.978.77-1.978 1.746.898 1.745 1.978 1.745zm0-2.194c.304 0 .527.213.527.449 0 .235-.223.448-.527.448-.303 0-.526-.212-.526-.448 0-.236.223-.449.526-.449z" fill="#fff" stroke="#fff" stroke-width=".2"/><path d="M38 35.027h0c-4.914 0-8.936 3.494-8.936 7.85s4.022 7.85 8.936 7.85c4.913 0 8.935-3.494 8.935-7.85v0c-.006-4.354-4.025-7.846-8.935-7.85zm0 14.263c-4.078 0-7.343-2.892-7.343-6.413 0-3.521 3.265-6.413 7.343-6.413 4.077 0 7.343 2.892 7.343 6.413-.005 3.52-3.268 6.409-7.344 6.413z" fill="#fff" stroke="#fff" stroke-width=".34"/></svg>