<svg width="60" height="49" viewBox="0 0 60 49" fill="none" xmlns="http://www.w3.org/2000/svg">
<path d="M0 4C0 1.79086 1.79086 0 4 0H60V49H4C1.79086 49 0 47.2091 0 45V4Z" fill="#3DB657"/>
<path d="M37.9709 17.2902L37.9967 17.4582C38.2652 17.4169 38.5387 17.4768 38.7495 17.6193L38.7494 17.6195L38.7566 17.6239C39.2386 17.9162 39.83 18.0273 40.402 17.936L40.5769 17.9081L40.5419 17.7345L40.3723 16.8941L40.3402 16.7348L40.1797 16.7597C39.9117 16.8011 39.6381 16.7411 39.4273 16.5987L39.4274 16.5985L39.4196 16.5937C38.6086 16.1075 37.556 16.152 36.8074 16.6545C36.9004 16.4657 36.9604 16.2629 36.9827 16.0525L36.983 16.0525L36.9835 16.0426C36.9939 15.8243 37.1089 15.6132 37.312 15.4643L37.3131 15.4635C37.5151 15.3128 37.785 15.2427 38.0546 15.2758L38.0545 15.2759L38.0618 15.2765C38.6424 15.3227 39.2223 15.1606 39.6685 14.8228L39.8209 14.7074L39.6885 14.5695L39.061 13.9161L38.9596 13.8106L38.8402 13.8952C38.6326 14.0421 38.3627 14.1119 38.0914 14.0845L38.0914 14.0845L38.0857 14.0841C36.8913 14.0041 35.8072 14.7757 35.6844 15.8676L35.684 15.8676L35.6835 15.8787C35.6733 16.0966 35.5584 16.3077 35.3559 16.4568C35.1524 16.6062 34.8826 16.6764 34.6128 16.6449L34.6129 16.6447L34.6046 16.6441C34.3214 16.6249 34.0366 16.6514 33.7643 16.7225C33.6547 16.5841 33.5192 16.4647 33.3647 16.3689L35.4562 12.7082L35.4563 12.708C35.5651 12.5171 35.5522 12.2885 35.4251 12.1093L35.425 12.1092C35.3002 11.9334 35.0878 11.8353 34.8695 11.8364L34.869 11.8364C34.5653 11.8388 34.2779 11.7321 34.0724 11.5473L34.0726 11.5471L34.0655 11.5414C33.1434 10.7971 31.7313 10.7971 30.8094 11.5414L30.8093 11.5413L30.8037 11.5462C30.5953 11.7302 30.3073 11.8368 30.0029 11.8368C29.6983 11.8368 29.4105 11.7303 29.2022 11.5462L29.2023 11.5461L29.1963 11.5413C28.2736 10.7976 26.8613 10.7976 25.9385 11.5413L25.9384 11.5411L25.9317 11.5471C25.7253 11.7323 25.4369 11.839 25.1327 11.8364V11.8364H25.1312C24.9136 11.8364 24.702 11.9347 24.578 12.1106C24.4514 12.2895 24.439 12.5179 24.5478 12.7082L26.636 16.3676C26.3096 16.5668 26.071 16.8694 25.9776 17.224C25.891 17.5528 25.9382 17.8935 26.1022 18.1886C21.7026 19.3229 18.6389 22.8695 18.6308 26.9395V26.9398L18.6308 34.6199L18.6308 34.6201C18.6323 35.9119 19.8193 36.9217 21.2354 36.9232H21.2356H38.766H38.7662C40.1821 36.9217 41.369 35.9119 41.3708 34.6201V34.6199V26.9398V26.9395C41.3633 23.3165 38.935 20.1083 35.2983 18.6472L35.5135 18.4906C35.6426 18.4902 35.7713 18.4798 35.8982 18.4598L35.9234 18.6279C35.9236 18.6279 35.9238 18.6278 35.9241 18.6278C36.4968 18.542 37.013 18.2596 37.3553 17.8358L37.3555 17.8359L37.3608 17.8286C37.4995 17.6371 37.7288 17.4996 37.9969 17.4582L37.9709 17.2902ZM37.9709 17.2902C38.2795 17.2427 38.5967 17.3108 38.8447 17.4785L37.2231 17.7289C37.391 17.497 37.6625 17.3379 37.9709 17.2902ZM33.908 18.1654C34.0093 18.1897 34.1065 18.2248 34.1971 18.2697C34.0975 18.2412 33.9972 18.2139 33.8961 18.1879C33.9002 18.1804 33.9041 18.173 33.908 18.1654ZM26.7573 12.4743L26.7575 12.4746L26.7659 12.4672C26.9746 12.2831 27.2626 12.1764 27.5674 12.1764C27.872 12.1764 28.1603 12.2831 28.369 12.4672L28.3688 12.4673L28.3747 12.4721C29.297 13.2156 30.7091 13.2156 31.6316 12.4721L31.6317 12.4722L31.6375 12.4671C31.8457 12.2831 32.1332 12.1764 32.4375 12.1764C32.7415 12.1764 33.0293 12.2831 33.2374 12.4671L33.2372 12.4674L33.2461 12.4742C33.4415 12.6253 33.6596 12.7509 33.8937 12.8476L32.0358 16.1031H27.9655L26.1083 12.848C26.3426 12.7512 26.5612 12.6256 26.7573 12.4743ZM27.566 17.8098C27.369 17.8098 27.249 17.6745 27.249 17.5531C27.249 17.4317 27.369 17.2964 27.566 17.2964H32.4356C32.6324 17.2964 32.7525 17.4318 32.7525 17.5531C32.7525 17.6744 32.6324 17.8098 32.4356 17.8098H27.566ZM40.0569 34.6199C40.0569 35.2125 39.5007 35.7299 38.766 35.7299H21.2356C20.5007 35.7299 19.9447 35.2125 19.9447 34.6199L19.9447 26.94C19.95 22.5789 23.9915 19.008 29.027 19.0031H30.9745C36.0099 19.008 40.0513 22.5789 40.0569 26.94V34.6199Z" fill="white" stroke="white" stroke-width="0.34"/>
<path d="M26.6223 29.9234L26.4764 30.0513L26.6223 30.1792L27.3112 30.7827L27.4232 30.8809L27.5352 30.7827L33.3787 25.6625L33.5246 25.5346L33.3787 25.4067L32.6901 24.8034L32.5781 24.7053L32.4661 24.8034L26.6223 29.9234Z" fill="white" stroke="white" stroke-width="0.34"/>
<path d="M31.9491 28.12C31.0997 28.12 30.3883 28.7259 30.3883 29.5C30.3883 30.2741 31.0997 30.88 31.9491 30.88C32.7983 30.88 33.51 30.2741 33.51 29.5C33.51 28.7259 32.7983 28.12 31.9491 28.12ZM31.9491 29.8266C31.7224 29.8266 31.5622 29.6684 31.5622 29.5C31.5622 29.3316 31.7224 29.1733 31.9491 29.1733C32.1757 29.1733 32.3361 29.3316 32.3361 29.5C32.3361 29.6684 32.1757 29.8266 31.9491 29.8266Z" fill="white" stroke="white" stroke-width="0.2"/>
<path d="M28.0507 27.4667C28.8999 27.4667 29.6116 26.8608 29.6116 26.0867C29.6116 25.3125 28.8999 24.7066 28.0507 24.7066C27.2013 24.7066 26.4898 25.3125 26.4898 26.0867C26.4898 26.8608 27.2013 27.4667 28.0507 27.4667ZM28.0507 25.76C28.2772 25.76 28.4377 25.9183 28.4377 26.0867C28.4377 26.255 28.2772 26.4133 28.0507 26.4133C27.824 26.4133 27.6638 26.2551 27.6638 26.0867C27.6638 25.9182 27.824 25.76 28.0507 25.76Z" fill="white" stroke="white" stroke-width="0.2"/>
<path d="M30.0011 21.6498H30.001C26.1635 21.6498 23.0136 24.3799 23.0136 27.7932C23.0136 31.2065 26.1635 33.9366 30.001 33.9366C33.8382 33.9366 36.9884 31.2065 36.9884 27.7932V27.793C36.9842 24.3814 33.8366 21.6534 30.0011 21.6498ZM30.0008 32.7432C26.8457 32.7432 24.3275 30.5066 24.3275 27.7932C24.3275 25.0798 26.8458 22.8432 30.001 22.8432C33.1559 22.8432 35.6743 25.0797 35.6745 27.793C35.671 30.5054 33.1544 32.7402 30.0008 32.7432Z" fill="white" stroke="white" stroke-width="0.34"/>
</svg>
