<svg width="16" height="18" viewBox="0 0 16 18" fill="none" xmlns="http://www.w3.org/2000/svg">
<path d="M5.5 8.16602H3.83333V9.83268H5.5V8.16602ZM8.83333 8.16602H7.16667V9.83268H8.83333V8.16602ZM12.1667 8.16602H10.5V9.83268H12.1667V8.16602ZM13.8333 2.33268H13V0.666016H11.3333V2.33268H4.66667V0.666016H3V2.33268H2.16667C1.24167 2.33268 0.508333 3.08268 0.508333 3.99935L0.5 15.666C0.5 16.5827 1.24167 17.3327 2.16667 17.3327H13.8333C14.75 17.3327 15.5 16.5827 15.5 15.666V3.99935C15.5 3.08268 14.75 2.33268 13.8333 2.33268ZM13.8333 15.666H2.16667V6.49935H13.8333V15.666Z" fill="#828282"/>
</svg>
