<svg width="44" height="44" viewBox="0 0 44 44" fill="none" xmlns="http://www.w3.org/2000/svg">
<path fill-rule="evenodd" clip-rule="evenodd" d="M22 44C34.1503 44 44 34.1503 44 22C44 9.84974 34.1503 0 22 0C9.84974 0 0 9.84974 0 22C0 34.1503 9.84974 44 22 44Z" fill="#5F607C"/>
<path fill-rule="evenodd" clip-rule="evenodd" d="M33.9636 31.3691H10.9995C10.4505 31.3691 10 31.7272 10 32.1655V32.204C10 32.6424 10.4505 32.9993 10.9995 32.9993H33.9636C34.5152 32.9993 34.9625 32.6424 34.9625 32.204V32.1655C34.9625 31.7272 34.5152 31.3691 33.9636 31.3691Z" fill="white"/>
<path fill-rule="evenodd" clip-rule="evenodd" d="M23.281 18.3848H21.6859C21.1701 18.3848 20.7506 18.8094 20.7506 19.333V26.3108C20.7506 26.8333 21.1701 27.2579 21.6859 27.2579H23.281C23.7989 27.2579 24.218 26.8333 24.218 26.3108V19.333C24.218 18.8094 23.7989 18.3848 23.281 18.3848ZM16.2625 18.3848H14.6658C14.1533 18.3848 13.7305 18.8116 13.7305 19.333V26.3108C13.7305 26.8333 14.1533 27.259 14.6658 27.259H16.2625C16.7788 27.259 17.1989 26.8333 17.1989 26.3108V19.333C17.1989 18.8116 16.7788 18.3848 16.2625 18.3848ZM30.2984 18.3848H28.7049C28.1892 18.3848 27.7701 18.8094 27.7701 19.333V26.3108C27.7701 26.8333 28.1892 27.2579 28.7049 27.2579H30.2984C30.8163 27.2579 31.2354 26.8333 31.2354 26.3108V19.333C31.2354 18.8094 30.8163 18.3848 30.2984 18.3848Z" fill="white"/>
<path fill-rule="evenodd" clip-rule="evenodd" d="M34.4253 15.6636L22.696 11.0309C22.5579 10.9897 22.4101 10.9897 22.2742 11.0309L10.5373 15.6636C10.2085 15.7582 10.002 16.0629 10.0552 16.3758C10.1085 16.6921 10.4047 16.9247 10.7471 16.9247H34.2128C34.5617 16.9247 34.8585 16.6921 34.909 16.3758C34.9607 16.0629 34.7568 15.7582 34.4253 15.6636Z" fill="white"/>
<path fill-rule="evenodd" clip-rule="evenodd" d="M33.7411 29.3662V29.4041C33.7411 29.843 33.2939 30.2005 32.7422 30.2005H12.2232C11.6737 30.2005 11.2227 29.843 11.2227 29.4041V29.3662C11.2227 28.9278 11.6737 28.5703 12.2232 28.5703H32.7422C33.2939 28.5703 33.7411 28.9278 33.7411 29.3662Z" fill="white"/>
</svg>
