<svg width="84" height="84" viewBox="0 0 84 84" fill="none" xmlns="http://www.w3.org/2000/svg">
<path d="M41.9987 71.9997C31.582 71.9997 22.3737 66.6663 16.9987 58.6663C17.1237 50.333 33.6654 45.7497 41.9987 45.7497C50.332 45.7497 66.8737 50.333 66.9987 58.6663C61.6237 66.6663 52.4154 71.9997 41.9987 71.9997ZM41.9987 12.833C45.3139 12.833 48.4933 14.15 50.8375 16.4942C53.1817 18.8384 54.4987 22.0178 54.4987 25.333C54.4987 28.6482 53.1817 31.8276 50.8375 34.1718C48.4933 36.5161 45.3139 37.833 41.9987 37.833C38.6835 37.833 35.5041 36.5161 33.1599 34.1718C30.8157 31.8276 29.4987 28.6482 29.4987 25.333C29.4987 22.0178 30.8157 18.8384 33.1599 16.4942C35.5041 14.15 38.6835 12.833 41.9987 12.833ZM41.9987 0.333008C36.527 0.333008 31.1088 1.41075 26.0536 3.50469C20.9983 5.59864 16.405 8.66778 12.5359 12.5369C4.7219 20.3509 0.332031 30.949 0.332031 41.9997C0.332031 53.0504 4.7219 63.6484 12.5359 71.4625C16.405 75.3316 20.9983 78.4007 26.0536 80.4947C31.1088 82.5886 36.527 83.6663 41.9987 83.6664C53.0494 83.6663 63.6475 79.2765 71.4615 71.4625C79.2755 63.6484 83.6654 53.0504 83.6654 41.9997C83.6654 18.958 64.9154 0.333008 41.9987 0.333008Z" fill="#C4C4C4"/>
</svg>
