<svg width="109" height="97" viewBox="0 0 109 97" fill="none" xmlns="http://www.w3.org/2000/svg">
<path fill-rule="evenodd" clip-rule="evenodd" d="M100.908 53.9818L102.509 53.7512C104.399 53.479 106.173 54.721 106.463 56.5201L108.96 72.0093C109.25 73.8082 107.948 75.4931 106.058 75.7653L104.457 75.9959L106.67 89.7244C107.078 92.2541 105.894 94.6698 103.832 96.0476H87.9723L100.466 94.2481C102.521 93.9521 103.937 92.1198 103.621 90.1635L102.972 86.1365L34.1578 96.0476H26.8104C26.7476 95.9215 26.7027 95.7848 26.6794 95.6398C26.5502 94.8384 27.1277 94.0904 27.9698 93.9691L102.504 83.2343L101.408 76.435L86.9128 78.5227C80.5372 79.441 74.5541 75.2504 73.5756 69.181C73.3924 68.0443 73.3976 66.9215 73.5687 65.8406L73.5693 65.8365C73.6496 65.3307 73.7685 64.8347 73.9192 64.3503C73.9239 64.3353 73.9281 64.3201 73.9324 64.3049C73.9377 64.2861 73.943 64.2673 73.949 64.2487C73.951 64.2428 73.9532 64.237 73.9553 64.2311C73.9579 64.2239 73.9606 64.2166 73.963 64.2093C75.2492 60.2705 78.7968 57.1664 83.3639 56.5086L97.8593 54.4209L96.7632 47.6217L4.246 60.9466L9.90459 96.0476H6.78477L0.0798764 54.4562C-0.338903 51.8585 0.922035 49.3825 3.08758 48.0256L2.88202 46.7505C2.4449 44.039 4.40672 41.4994 7.25493 41.0891L11.1595 40.5268L9.89041 18.1021C9.7423 15.4843 11.86 13.2446 14.6101 13.1089L38.5969 11.9277C39.4475 11.8858 40.1741 12.508 40.22 13.3176C40.2658 14.1272 39.6132 14.8156 38.7629 14.8593L14.7761 16.0404C13.7224 16.091 12.9142 16.9491 12.9708 17.9505L14.5455 45.7727L16.4895 45.4927L15.4775 27.6119C15.4025 26.2873 16.1063 25.064 17.3145 24.419C18.9196 23.5621 20.2121 22.2076 20.9535 20.6048C21.5054 19.4124 22.7037 18.6306 24.0814 18.5616L35.9513 17.9772C36.802 17.9353 37.5286 18.5575 37.5744 19.3671C37.6203 20.1767 36.9682 20.8654 36.1173 20.9087L24.2474 21.4931C24.0398 21.5029 23.8568 21.6208 23.7773 21.7925C22.7688 23.9723 21.0111 25.8148 18.8279 26.9802C18.6527 27.0736 18.5467 27.2621 18.5579 27.4604L19.5534 45.0516L27.0083 43.9779L47.7651 2.69739C48.3405 1.55284 49.3505 0.691121 50.6086 0.270756C51.8673 -0.150096 53.2229 -0.0782946 54.4266 0.471926L88.7105 16.1367C91.1956 17.2724 92.2509 20.1184 91.063 22.4808L87.519 29.529L88.7144 29.3568C91.5629 28.9466 94.2357 30.8187 94.6728 33.5303L94.9742 35.3995C96.8981 36.3189 98.3447 38.0796 98.6951 40.253L100.908 53.9818ZM91.6238 33.9696C91.4447 32.8584 90.3496 32.0912 89.1824 32.2595L85.9089 32.731L84.4108 35.7107L90.8794 34.779C91.1692 34.7373 91.4571 34.7156 91.743 34.709L91.6238 33.9696ZM51.6358 3.04059C51.1546 3.20149 50.7683 3.53109 50.5481 3.96888L30.698 43.4463L33.0392 43.1091L47.8861 13.5821C48.4782 12.4048 49.7419 11.6346 51.1081 11.6206C52.9502 11.6012 54.7681 11.0029 56.2264 9.93593C57.3116 9.14194 58.7589 9.00209 60.0037 9.57082L77.7763 17.6914C79.0209 18.2599 79.813 19.4229 79.8436 20.7266C79.8845 22.4792 80.5339 24.2047 81.6721 25.5856C82.5286 26.6251 82.6869 28.0133 82.0859 29.2085L78.38 36.5787L80.7212 36.2415L88.2801 21.2089C88.7344 20.3053 88.3306 19.2167 87.3801 18.7823L53.0962 3.11746C52.7458 2.95745 52.3616 2.90328 51.9861 2.95737C51.868 2.97437 51.7509 3.00224 51.6358 3.04059ZM44.4558 41.4648C43.898 35.1861 48.5534 29.4732 55.1925 28.517C61.832 27.5608 68.076 31.7038 69.5223 37.8544L74.6907 37.11L79.3031 27.9368C79.3928 27.758 79.3706 27.5451 79.2464 27.3942C77.6986 25.5162 76.8153 23.1695 76.7597 20.7861C76.7551 20.5987 76.632 20.4227 76.446 20.3375L58.6731 12.2168C58.4866 12.1317 58.2655 12.1503 58.1095 12.2648C56.1258 13.7162 53.6536 14.5294 51.1481 14.556C51.1245 14.5564 51.101 14.5581 51.0778 14.5615C50.9037 14.5865 50.748 14.6961 50.6689 14.8538L36.7285 42.5778L44.4558 41.4648ZM47.5128 41.0247L66.465 38.2951C65.2849 33.7452 60.6179 30.7055 55.6604 31.4197C50.7031 32.1337 47.206 36.349 47.5128 41.0247ZM7.7228 43.9914C6.55552 44.1596 5.75191 45.2002 5.93104 46.3114L6.04164 46.9975L11.4814 46.214L11.3262 43.4725L7.7228 43.9914ZM6.28408 49.9325C4.2289 50.2285 2.81354 52.0608 3.1289 54.0171L3.77809 58.0441L96.2952 44.7192L95.6461 40.6922C95.3307 38.736 93.4024 37.3851 91.3472 37.6811L6.28408 49.9325ZM105.59 72.8628C105.799 72.8327 105.943 72.6467 105.911 72.4482L103.414 56.9592C103.382 56.7607 103.186 56.6236 102.977 56.6537L83.8322 59.411C80.6048 59.8759 78.0679 61.9997 77.0318 64.7337C76.9847 64.8579 76.9408 64.9835 76.8998 65.1101C76.8184 65.3636 76.7494 65.6217 76.6937 65.8835C76.4992 66.8002 76.4675 67.7643 76.6251 68.7418C76.7827 69.7193 77.1165 70.6307 77.5912 71.451C77.7268 71.6855 77.8739 71.9125 78.0317 72.1313C78.1107 72.2407 78.1922 72.3482 78.2763 72.4535C80.1268 74.7718 83.2178 76.085 86.4453 75.6202L105.59 72.8628Z" fill="white" fill-opacity="0.17"/>
<path d="M13.5387 96.0476H19.7482C19.4309 95.567 18.8347 95.2848 18.2082 95.3751L13.5387 96.0476Z" fill="white" fill-opacity="0.17"/>
</svg>
