<svg width="128" height="101" viewBox="0 0 128 101" fill="none" xmlns="http://www.w3.org/2000/svg">
<path d="M28.1809 14.1065C23.0433 28.8091 45.1632 39.0513 62.9384 36.0282L62.9549 34.3266C55.0916 32.7573 45.7084 30.1802 39.3317 25.1417C36.5564 22.9281 34.095 19.9875 35.2514 16.6506C35.3009 16.5184 35.367 16.3367 35.4661 16.1385C35.8957 15.4281 35.8296 15.6429 35.9617 15.4611C36.0278 15.4281 36.0609 15.3785 36.1269 15.329C36.1765 15.2794 36.2591 15.2629 36.3086 15.2134C41.9914 13.1484 56.7766 22.1681 63.814 33.9797L65.3833 33.4015C61.9142 15.3951 34.6071 -2.90876 28.1809 14.1065Z" fill="#ADE6B9"/>
<path d="M76.5327 6.34337C74.8311 7.89622 73.3609 9.61427 72.0558 11.3984C66.8686 18.5019 63.7299 27.406 63.0195 35.2033L64.6715 35.6163C68.2893 27.3564 73.5426 17.4777 81.026 11.5636C89.2033 5.13743 93.0689 9.89511 93.3002 10.3081C93.3662 10.3907 93.3993 10.4898 93.4654 10.5724C93.4984 10.6715 93.5645 10.7541 93.581 10.8533C93.6305 10.9689 93.7297 11.3654 93.7297 11.4975C94.6382 17.3785 81.1912 32.2132 64.9358 36.8222L65.1341 38.4742C69.3961 38.5898 73.7408 37.6317 77.7386 36.1449C93.6636 30.1813 105.905 15.264 99.5446 6.17818C95.7781 0.198043 85.8663 -2.23035 76.5327 6.34337Z" fill="#ADE6B9"/>
<path d="M6.26228 19.6582C8.54199 25.787 13.4649 27.9346 13.4649 27.9346C8.65764 30.6934 0.265625 31.4368 0.265625 31.4368C6.62571 35.864 20.1884 36.7065 39.8799 34.9059C59.5714 33.1052 65.4028 34.9059 65.4028 34.9059C65.3367 33.4687 65.4028 32.5766 65.4028 32.5766C50.089 23.3751 20.1884 31.3046 6.26228 19.6582Z" fill="#ADE6B9"/>
<path d="M124.213 32.6091C107.974 40.7368 80.7167 26.1499 63.6849 31.5849C63.6849 31.5849 63.5527 32.4604 63.1562 33.8481C63.1562 33.8481 69.2355 33.4351 87.9854 39.7126C106.735 45.9901 120.133 48.3028 127.335 45.4615C127.335 45.4615 119.323 42.8183 115.292 39.0188C115.292 39.0022 120.579 38.0441 124.213 32.6091Z" fill="#ADE6B9"/>
<path d="M33.8496 98.7389L94.8238 100.771L103.464 39.5488H29.7031L33.8496 98.7389Z" fill="#53BE6A"/>
<path d="M25.5938 47.6433L109.068 39.5487V33.3703L25.5938 31.4375V47.6433Z" fill="#78D68C"/>
<path d="M56.7294 99.4971L71.9936 100.009L78.0894 42.5537L54.1523 44.8665L56.7294 99.4971Z" fill="#A1D5AC"/>
<path d="M54.1503 44.8673L78.0873 42.5545L79.1281 32.6758L53.5391 32.0811L54.1503 44.8673Z" fill="#8CD09A"/>
<path d="M31.5739 66.0442L99.5691 67.118L101.023 56.8262L30.9297 56.9914L31.5739 66.0442Z" fill="#ADE5B9"/>
</svg>
