<svg width="20" height="29" viewBox="0 0 20 29" fill="none" xmlns="http://www.w3.org/2000/svg">
<path d="M10.4493 27.7332L18.6483 19.4185C19.1485 18.9112 19.1485 18.0884 18.6483 17.5811C18.1479 17.0737 17.3368 17.0737 16.8365 17.5811L10.8245 23.678L10.8245 1.47203C10.8245 0.754572 10.2509 0.172852 9.54346 0.172852C8.83609 0.172852 8.26237 0.754572 8.26237 1.47203L8.26237 23.678L2.25041 17.5813C1.75007 17.0739 0.938992 17.0739 0.438652 17.5813C0.188686 17.8349 0.0634499 18.1675 0.0634499 18.5C0.0634499 18.8325 0.188686 19.165 0.438652 19.4187L8.63758 27.7332C9.13792 28.2406 9.949 28.2406 10.4493 27.7332Z" fill="#F24750"/>
</svg>
