<svg width="136" height="110" viewBox="0 0 136 110" fill="none" xmlns="http://www.w3.org/2000/svg">
<path d="M87.1172 2.25305C87.326 2.77526 87.5348 3.32649 87.7138 3.8487C90.2791 4.74808 91.0547 0.831457 93.62 1.73083C93.4112 1.20861 93.2024 0.657386 93.0234 0.13517C90.4581 -0.764201 89.6825 3.15242 87.1172 2.25305Z" fill="#5734AA"/>
<path d="M77.3692 53.4008C76.7726 53.3718 76.2058 53.3718 75.6093 53.3428C73.7897 55.3446 77.2499 57.4915 75.4303 59.4643C76.0269 59.4933 76.5936 59.4933 77.1902 59.5223C78.98 57.5205 75.5198 55.3736 77.3692 53.4008Z" fill="#5734AA"/>
<path d="M132.905 26.5064C132.309 26.4484 131.742 26.4194 131.145 26.3613C129.206 28.2471 132.547 30.5681 130.608 32.4538C131.205 32.5119 131.772 32.5409 132.368 32.5989C134.307 30.7421 130.966 28.4212 132.905 26.5064Z" fill="#5734AA"/>
<path d="M0.824219 75.6512C1.24183 76.0574 1.65945 76.4635 2.04723 76.8697C4.79152 76.6666 3.80714 72.779 6.55143 72.5759C6.13382 72.1698 5.71622 71.7636 5.32844 71.3574C2.58415 71.5605 3.56851 75.4481 0.824219 75.6512Z" fill="#5734AA"/>
<path d="M47.3544 17.8887C46.7578 17.8887 46.1911 17.8887 45.5945 17.8887C43.8346 19.9485 47.3842 21.9504 45.6243 24.0102C46.2209 24.0102 46.7877 24.0102 47.3842 24.0102C49.1442 21.9794 45.6243 19.9485 47.3544 17.8887Z" fill="#5734AA"/>
<path d="M34.7645 106.67C34.6751 107.221 34.5856 107.801 34.4961 108.353C36.2858 110.383 38.9108 107.308 40.7006 109.339C40.7901 108.788 40.8796 108.208 40.969 107.656C39.1793 105.625 36.5543 108.701 34.7645 106.67Z" fill="#5734AA"/>
<path d="M36.1809 20.1065C31.0433 34.8091 53.1632 45.0513 70.9384 42.0282L70.9549 40.3266C63.0916 38.7573 53.7084 36.1802 47.3317 31.1417C44.5564 28.9281 42.095 25.9875 43.2514 22.6506C43.3009 22.5184 43.367 22.3367 43.4661 22.1385C43.8957 21.4281 43.8296 21.6429 43.9617 21.4611C44.0278 21.4281 44.0609 21.3785 44.1269 21.329C44.1765 21.2794 44.2591 21.2629 44.3086 21.2134C49.9914 19.1484 64.7766 28.1681 71.814 39.9797L73.3833 39.4015C69.9142 21.3951 42.6071 3.09124 36.1809 20.1065Z" fill="#83C0FC"/>
<path d="M84.5327 12.3434C82.8311 13.8962 81.3609 15.6143 80.0558 17.3984C74.8686 24.5019 71.7299 33.406 71.0195 41.2033L72.6715 41.6163C76.2893 33.3564 81.5426 23.4777 89.026 17.5636C97.2033 11.1374 101.069 15.8951 101.3 16.3081C101.366 16.3907 101.399 16.4898 101.465 16.5724C101.498 16.6715 101.564 16.7541 101.581 16.8533C101.631 16.9689 101.73 17.3654 101.73 17.4975C102.638 23.3785 89.1912 38.2132 72.9358 42.8222L73.1341 44.4742C77.3961 44.5898 81.7408 43.6317 85.7386 42.1449C101.664 36.1813 113.905 21.264 107.545 12.1782C103.778 6.19804 93.8663 3.76965 84.5327 12.3434Z" fill="#83C0FC"/>
<path d="M14.2623 25.6582C16.542 31.787 21.4649 33.9346 21.4649 33.9346C16.6576 36.6934 8.26562 37.4368 8.26562 37.4368C14.6257 41.864 28.1884 42.7065 47.8799 40.9059C67.5714 39.1052 73.4028 40.9059 73.4028 40.9059C73.3367 39.4687 73.4028 38.5766 73.4028 38.5766C58.089 29.3751 28.1884 37.3046 14.2623 25.6582Z" fill="#83C0FC"/>
<path d="M132.213 38.6091C115.974 46.7368 88.7167 32.1499 71.6849 37.5849C71.6849 37.5849 71.5527 38.4604 71.1562 39.8481C71.1562 39.8481 77.2355 39.4351 95.9854 45.7126C114.735 51.9901 128.133 54.3028 135.335 51.4615C135.335 51.4615 127.323 48.8183 123.292 45.0188C123.292 45.0022 128.579 44.0441 132.213 38.6091Z" fill="#83C0FC"/>
<path d="M41.8496 104.739L102.824 106.771L111.464 45.5488H37.7031L41.8496 104.739Z" fill="#5734AA"/>
<path d="M33.5938 53.6433L117.068 45.5487V39.3703L33.5938 37.4375V53.6433Z" fill="#7B44D3"/>
<path d="M64.7294 105.497L79.9936 106.009L86.0894 48.5537L62.1523 50.8665L64.7294 105.497Z" fill="#83C0FC"/>
<path d="M62.1503 50.8673L86.0873 48.5545L87.1281 38.6758L61.5391 38.0811L62.1503 50.8673Z" fill="#9FDBFF"/>
<path d="M39.5739 72.0442L107.569 73.118L109.023 62.8262L38.9297 62.9914L39.5739 72.0442Z" fill="#9FDBFF"/>
</svg>
