<svg width="79" height="79" viewBox="0 0 79 79" fill="none" xmlns="http://www.w3.org/2000/svg">
<g opacity="0.22">
<path d="M77.7335 73.8244H72.958V30.6584C72.958 28.2137 70.9691 26.2255 68.5251 26.2255H62.8344C60.3898 26.2255 58.4015 28.2137 58.4015 30.6584V73.8244H55.5048V40.1574C55.5048 37.7127 53.5166 35.7245 51.072 35.7245H45.3812C42.9372 35.7245 40.9483 37.7127 40.9483 40.1574V73.8244H38.0523V29.8235C38.0523 27.3795 36.0634 25.3906 33.6194 25.3906H27.928C25.484 25.3906 23.4952 27.3795 23.4952 29.8235V73.8244H20.5991V40.1574C20.5991 37.7127 18.6102 35.7245 16.1662 35.7245H10.4749C8.03086 35.7245 6.04201 37.7127 6.04201 40.1574V73.8244H1.26653C0.567095 73.8244 0 74.3915 0 75.0909C0 75.7904 0.567095 76.3575 1.26653 76.3575H77.7335C78.4329 76.3575 79 75.7904 79 75.0909C79 74.3915 78.4329 73.8244 77.7335 73.8244ZM18.0654 73.8244H8.57507V40.1574C8.57507 39.1098 9.42726 38.2576 10.4749 38.2576H16.1656C17.2132 38.2576 18.0654 39.1098 18.0654 40.1574V73.8244ZM35.5186 73.8244H26.0282V29.8235C26.0282 28.7759 26.8804 27.9237 27.928 27.9237H33.6188C34.6664 27.9237 35.5186 28.7759 35.5186 29.8235V73.8244ZM52.9718 73.8244H43.4814V40.1574C43.4814 39.1098 44.3336 38.2576 45.3812 38.2576H51.072C52.1196 38.2576 52.9718 39.1098 52.9718 40.1574V73.8244ZM70.4249 73.8244H60.9346V30.6584C60.9346 29.6108 61.7868 28.7586 62.8344 28.7586H68.5251C69.5727 28.7586 70.4249 29.6108 70.4249 30.6584V73.8244Z" fill="#5F266D"/>
<path d="M13.8657 33.017L30.915 18.954L46.9316 31.9929C47.4381 32.406 48.1758 32.3645 48.6335 31.8995L72.6284 7.51316L71.7558 17.6089C71.6117 19.2768 74.1336 19.5155 74.2795 17.8272L75.4552 4.22562C75.522 3.45197 74.8633 2.78716 74.0841 2.85457L60.4825 4.02958C58.8183 4.17367 59.0273 6.69375 60.7002 6.55337L70.8832 5.67335L47.636 29.3003L31.7097 16.3344C31.2415 15.9534 30.5699 15.9553 30.1036 16.3393L12.2534 31.0628C11.7142 31.508 11.6375 32.3064 12.0821 32.8457C12.528 33.3856 13.3264 33.4616 13.8657 33.017Z" fill="#5F266D"/>
</g>
</svg>
