<svg width="38" height="38" viewBox="0 0 38 38" fill="none" xmlns="http://www.w3.org/2000/svg">
<path fill-rule="evenodd" clip-rule="evenodd" d="M19 34C27.2843 34 34 27.2843 34 19C34 10.7157 27.2843 4 19 4C10.7157 4 4 10.7157 4 19C4 27.2843 10.7157 34 19 34Z" fill="#DE4A09"/>
<path fill-rule="evenodd" clip-rule="evenodd" d="M19 37C28.9411 37 37 28.9411 37 19C37 9.05887 28.9411 1 19 1C9.05887 1 1 9.05887 1 19C1 28.9411 9.05887 37 19 37Z" stroke="#DE4A09"/>
<path d="M18.9848 26C19.2443 26 19.4733 25.8932 19.6489 25.7255C19.8168 25.5577 19.9237 25.3214 19.9237 25.0621V19.9303H25.0611C25.3206 19.9303 25.5496 19.8236 25.7252 19.6558C25.8931 19.4881 26 19.2517 26 18.9924C26 18.4739 25.5802 18.0545 25.0687 18.0621H19.9313V12.9304C19.9313 12.4119 19.5115 11.9925 19.0001 12.0001C18.481 12.0001 18.0611 12.4195 18.0688 12.9304V18.0621H12.9314C12.4123 18.0621 11.9925 18.4815 12.0001 18.9924C12.0001 19.5109 12.4199 19.9303 12.9314 19.9227H18.0688V25.0545C18.0459 25.5806 18.4657 26 18.9848 26Z" fill="white"/>
</svg>
