<svg width="133" height="110" viewBox="0 0 133 110" fill="none" xmlns="http://www.w3.org/2000/svg">
<path d="M86.8242 2.48254C87.033 3.00475 87.2418 3.55598 87.4208 4.0782C89.9861 4.97757 90.7617 1.06095 93.327 1.96032C93.1182 1.43811 92.9094 0.886878 92.7304 0.364662C90.1651 -0.534709 89.3895 3.38191 86.8242 2.48254Z" fill="#F91944"/>
<path d="M77.0762 53.6303C76.4796 53.6013 75.9129 53.6013 75.3163 53.5723C73.4967 55.5741 76.9569 57.721 75.1373 59.6938C75.7339 59.7228 76.3007 59.7228 76.8972 59.7518C78.687 57.75 75.2268 55.6031 77.0762 53.6303Z" fill="#F91944"/>
<path d="M132.612 26.7359C132.016 26.6779 131.449 26.6488 130.852 26.5908C128.913 28.4766 132.254 30.7976 130.315 32.6833C130.912 32.7414 131.479 32.7704 132.075 32.8284C134.014 30.9716 130.673 28.6507 132.612 26.7359Z" fill="#F91944"/>
<path d="M0.53125 75.8807C0.948859 76.2869 1.36648 76.693 1.75426 77.0992C4.49855 76.8961 3.51418 73.0085 6.25846 72.8054C5.84086 72.3992 5.42325 71.9931 5.03547 71.5869C2.29119 71.79 3.27554 75.6776 0.53125 75.8807Z" fill="#F91944"/>
<path d="M47.0614 18.1182C46.4648 18.1182 45.8981 18.1182 45.3015 18.1182C43.5416 20.178 47.0913 22.1798 45.3313 24.2397C45.9279 24.2397 46.4947 24.2397 47.0913 24.2397C48.8512 22.2089 45.3313 20.178 47.0614 18.1182Z" fill="#F91944"/>
<path d="M34.4716 106.899C34.3821 107.451 34.2926 108.031 34.2031 108.582C35.9929 110.613 38.6178 107.538 40.4076 109.569C40.4971 109.017 40.5866 108.437 40.6761 107.886C38.8863 105.855 36.2613 108.93 34.4716 106.899Z" fill="#F91944"/>
<path d="M58.1829 36.1068L59.8623 36.0207C61.671 22.3482 71.7047 8.18041 77.755 7.83591C77.8196 7.85744 77.9057 7.85744 77.9703 7.87897C78.0349 7.87897 78.0995 7.92203 78.1641 7.92203C78.3579 8.02969 78.2287 7.85744 78.8962 8.35266C79.0469 8.48185 79.1761 8.63258 79.2838 8.74024C81.6738 11.3456 80.5757 15.049 78.8962 18.171C75.0421 25.3411 67.4199 31.4345 60.7882 35.9992L61.4772 37.571C79.0469 33.3077 95.3463 15.092 84.7958 3.5942C72.1353 -9.54004 54.2641 18.1495 58.1829 36.1068Z" fill="#FF6C6C"/>
<path d="M35.1454 22.1976C44.3824 24.6738 53.1458 31.6931 59.7344 37.8511L61.0909 36.8176C57.3444 29.9275 50.928 22.9728 43.3274 18.4727C41.4111 17.353 39.3871 16.3626 37.1909 15.609C25.1978 11.4103 17.0374 17.5899 15.9393 24.5876C13.6784 35.4826 30.8822 44.3751 47.8921 43.5354C52.1769 43.3201 56.5477 42.4804 60.4234 40.6932L59.9497 39.0784C43.1551 41.2746 24.8964 32.9634 23.4107 27.1714C23.3676 27.0422 23.2815 26.6331 23.303 26.504C23.2815 26.3963 23.303 26.3102 23.303 26.2025C23.3246 26.0949 23.3246 26.0087 23.3461 25.9011C23.4107 25.4274 25.0686 19.5277 35.1454 22.1976Z" fill="#FF6C6C"/>
<path d="M103.829 10.4859C103.829 10.4859 107.511 6.54559 107.188 0C98.9846 16.2348 68.3022 20.7995 57.8594 35.3548C57.8594 35.3548 58.2685 36.1299 58.7852 37.4864C58.7852 37.4864 63.436 33.5246 82.2761 27.3666C101.116 21.2086 113.282 15.0721 117.373 8.46189C117.394 8.46189 109.363 11.1318 103.829 10.4859Z" fill="#FF6C6C"/>
<path d="M3.70703 58.6952C9.19757 62.2695 14.4513 61.0637 14.4513 61.0637C12.2335 66.1667 5.90325 71.7649 5.90325 71.7649C13.6761 71.528 25.0878 64.0997 39.8585 50.8793C54.6291 37.6589 60.3996 35.635 60.3996 35.635C59.4952 34.5153 59.0216 33.7617 59.0216 33.7617C41.215 35.4842 21.8797 59.7288 3.70703 58.6952Z" fill="#FF6C6C"/>
<path d="M25.582 56.8433L57.7932 109.789L113.129 83.7578L93.4925 27.6035L25.582 56.8433Z" fill="#F91944"/>
<path d="M17.957 53.3977L20.4116 59.0605L100.487 33.438L94.0495 18.5166L17.957 53.3977Z" fill="#EF2C51"/>
<path d="M50.125 49.565L78.5036 100.056L92.3699 93.5324L73.0992 42.2012L50.125 49.565Z" fill="#FF6C6C" fill-opacity="0.77"/>
<path d="M45.2617 40.8877L50.1278 49.5649L73.102 42.2011L68.5804 30.1865L45.2617 40.8877Z" fill="#FF9B87" fill-opacity="0.88"/>
<path d="M34.668 71.8076L40.0939 80.7002L102.277 52.7522L99.2626 44.1611L34.668 71.8076Z" fill="#FF9B87" fill-opacity="0.88"/>
</svg>
