<svg width="269" height="141" viewBox="0 0 269 141" fill="none" xmlns="http://www.w3.org/2000/svg">
<ellipse cx="107.069" cy="125.115" rx="107.069" ry="15.4478" fill="#F3F8FE"/>
<path d="M81.1821 52.1377L69.25 35.5075L70.5284 35.0918L88.4266 37.5863L90.5573 52.1377H81.1821Z" fill="#112742" stroke="#112742" stroke-width="0.835884"/>
<path d="M55.1678 34.8525L56.0037 37.7781L60.6011 36.9422L61.8549 35.2705H63.5266L64.7805 36.1064L66.8702 39.4499L83.1699 72.8853L86.0955 82.4979L89.857 116.351L55.1678 118.023L58.9293 84.1697L66.8702 69.9597L56.0037 44.8831L54.7499 41.9576L53.496 39.4499L52.6602 37.3602V35.2705L55.1678 34.8525Z" fill="#D4F3F1" stroke="#D4F3F1" stroke-width="0.835884"/>
<path d="M55.5855 36.1062L55.8129 36.7885C55.9267 37.1298 56.2461 37.3601 56.6059 37.3601H58.3611C58.6363 37.3601 58.9106 37.3291 59.1789 37.2677L59.3225 37.2348C60.1434 37.0468 60.861 36.5517 61.3281 35.8511C61.3989 35.7449 61.4366 35.6202 61.4366 35.4927V34.2139C61.4366 34.0841 61.4669 33.9561 61.5249 33.84L61.8546 33.1807L62.5186 31.8526C62.633 31.6239 62.7676 31.406 62.921 31.2015L63.6061 30.288C63.8306 29.9887 64.0147 29.6612 64.1536 29.3138L64.7802 27.7474L65.0709 26.5846C65.1554 26.2466 65.1981 25.8995 65.1981 25.551V24.4039V22.1052C65.1981 21.9898 65.1046 21.8962 64.9892 21.8962C64.8737 21.8962 64.7802 21.8027 64.7802 21.6872V20.6424V19.5242C64.7802 19.4344 64.7657 19.3451 64.7373 19.2599L64.4701 18.4584C64.4057 18.2651 64.2248 18.1347 64.0211 18.1347C63.9702 18.1347 63.9197 18.1429 63.8714 18.159L62.8874 18.487C62.7581 18.5301 62.6202 18.541 62.4857 18.5185L60.1828 18.1347L58.1743 17.733C58.1203 17.7222 58.0654 17.7168 58.0103 17.7168H56.8393H55.5855H54.3316H52.6599H51.9596C51.8698 17.7168 51.7805 17.7313 51.6953 17.7597L50.5702 18.1347L49.5035 18.4903C49.3804 18.5313 49.2686 18.6005 49.1768 18.6922L48.62 19.249C48.5282 19.3408 48.4591 19.4527 48.418 19.5758L48.1054 20.5137C48.077 20.5989 48.0625 20.6882 48.0625 20.778V22.6292C48.0625 22.6975 48.0709 22.7656 48.0875 22.8319L48.4804 24.4039L49.2548 27.1142C49.2951 27.2552 49.2976 27.4044 49.262 27.5466L48.9881 28.6425C48.9309 28.871 48.9729 29.1129 49.1035 29.3089L49.7343 30.2551L50.0529 30.8924C50.118 31.0225 50.2159 31.1334 50.3369 31.2141L51.406 31.9268L52.6599 32.7627L53.8448 33.5527C53.8906 33.5832 53.9333 33.6182 53.9722 33.6571L54.3316 34.0165L54.7496 34.4345L55.028 34.7129C55.1197 34.8046 55.1889 34.9165 55.2299 35.0396L55.5855 36.1062Z" fill="#E1976D" stroke="#E1976D" stroke-width="0.835884"/>
<path d="M48.4838 29.4201L49.0433 28.0212C49.2223 27.5739 49.2443 27.0791 49.1059 26.6176L48.0659 23.1509V21.0612L48.3407 19.962C48.4343 19.5874 48.6281 19.2452 48.9011 18.9721L48.9293 18.944C49.1853 18.6879 49.5024 18.5014 49.8506 18.4019L51.9584 17.7997C52.1487 17.7453 52.3457 17.7177 52.5437 17.7177H58.3034C58.4438 17.7177 58.5837 17.7315 58.7213 17.7591L62.224 18.4596C62.5334 18.5215 62.8526 18.5139 63.1587 18.4374L64.3656 18.1356L64.7836 19.8074L65.2015 21.8971L66.4553 20.6433L67.2912 18.1356L68.1271 17.7177L69.0748 16.77C69.5544 16.2904 69.9535 15.7366 70.2568 15.13C70.5076 14.6283 70.6905 14.0955 70.8005 13.5455L70.9286 12.9051C71.0111 12.4923 71.0527 12.0724 71.0527 11.6515V11.2456C71.0527 10.8247 71.0111 10.4048 70.9286 9.99201L70.6347 8.52296L70.4959 8.10642C70.3172 7.57031 69.9328 7.12715 69.4274 6.87443L68.6805 6.50097C68.5903 6.45588 68.497 6.41724 68.4014 6.38536L67.5619 6.10554C67.3822 6.04565 67.2114 5.96208 67.0538 5.85702L66.5082 5.4933C66.1997 5.28761 65.9502 5.00497 65.7843 4.67331L65.3561 3.81692C65.2537 3.61208 65.1189 3.42509 64.957 3.26316L64.3033 2.6095C64.0694 2.3756 63.7843 2.19937 63.4705 2.09476L61.768 1.52728C61.5508 1.45486 61.3233 1.41794 61.0942 1.41794H59.5267C59.4093 1.41794 59.2921 1.40825 59.1764 1.38895L57.0166 1.02899C56.9008 1.0097 56.7837 1 56.6663 1H54.6808C54.4518 1 54.2242 1.03692 54.007 1.10934L52.1554 1.72654C51.9381 1.79896 51.7339 1.90594 51.5507 2.04335L50.4998 2.83154C50.2726 3.00193 50.0137 3.12519 49.7381 3.19407L48.7107 3.45092C48.5599 3.48863 48.4137 3.54273 48.2746 3.61225L45.9762 4.76148L42.9695 6.64062C42.7469 6.7798 42.5518 6.95895 42.3942 7.16903L41.5863 8.24634C41.4489 8.42955 41.3419 8.63372 41.2695 8.85098L40.2001 12.0591C40.1502 12.2088 40.117 12.3637 40.1013 12.5208L39.7282 16.2518C39.7141 16.3928 39.7141 16.5349 39.7282 16.6759L40.0775 20.1683C40.1088 20.4811 40.2088 20.783 40.3705 21.0526L41.3788 22.733L42.4977 24.5978C42.5873 24.7472 42.6949 24.885 42.8181 25.0082L45.1403 27.3303L47.23 29.0021L48.4838 29.4201Z" fill="#1D2029" stroke="#1D2029" stroke-width="0.835884"/>
<path d="M89.7667 115.135L86.1058 83.0005C86.0994 82.9442 86.0885 82.8884 86.0732 82.8338L83.1972 72.5623C83.1795 72.4991 83.156 72.4377 83.127 72.3788L69.3785 44.4652L66.4529 39.032L64.8414 35.8089C64.8033 35.7329 64.7324 35.6787 64.649 35.662C64.3352 35.5992 64.3628 35.1419 64.6819 35.1174L67.9774 34.8639C68.0746 34.8564 68.1723 34.8684 68.2648 34.8992L70.3937 35.6089C70.5506 35.6612 70.6932 35.7493 70.8101 35.8663L73.9079 38.964C73.9531 39.0092 73.9941 39.0584 74.0305 39.1109L77.6779 44.3793C77.7174 44.4364 77.7513 44.4973 77.779 44.561L81.9167 54.0779L84.4244 61.1829L92.7832 82.08L95.7088 89.185L106.712 109.561C106.887 109.885 106.882 110.276 106.7 110.596L106.263 111.361C105.641 112.448 104.813 113.403 103.824 114.172L103.641 114.315C102.279 115.374 100.656 116.046 98.9438 116.26L96.2599 116.596C95.3401 116.711 94.4086 116.692 93.4943 116.539L90.6501 116.065C90.181 115.987 89.8205 115.608 89.7667 115.135Z" fill="#1E3755" stroke="#1E3755" stroke-width="0.835884"/>
<g clip-path="url(#clip0)">
<rect x="89.2719" y="29.2719" width="179.456" height="77.4562" rx="4.07875" fill="url(#paint0_radial)" stroke="#C8E3EB" stroke-width="0.543833"/>
<path d="M234.102 49.1182C233.908 49.3579 233.698 49.6135 233.504 49.8532C233.795 51.2914 235.881 50.5403 236.155 51.9785C236.349 51.7388 236.56 51.4831 236.754 51.2434C236.463 49.8053 234.377 50.5723 234.102 49.1182Z" fill="#7B44D3"/>
<path d="M203.48 59.9203C203.642 60.1919 203.788 60.4636 203.949 60.7512C205.404 61.0228 205.469 58.8337 206.924 59.1053C206.762 58.8337 206.617 58.562 206.455 58.2744C205.016 58.0027 204.952 60.1919 203.48 59.9203Z" fill="#7B44D3"/>
<path d="M231.758 77.6739C231.903 77.9615 232.033 78.2332 232.178 78.5208C233.617 78.8724 233.795 76.6832 235.25 77.0347C235.104 76.7471 234.975 76.4754 234.83 76.1878C233.375 75.8362 233.197 78.0254 231.758 77.6739Z" fill="#7B44D3"/>
<path d="M181.125 95.9863C181.012 96.274 180.883 96.5616 180.77 96.8652C181.465 98.1595 183.243 96.8332 183.938 98.1276C184.052 97.84 184.181 97.5523 184.294 97.2487C183.599 95.9704 181.82 97.2966 181.125 95.9863Z" fill="#7B44D3"/>
<path d="M223.901 94.3877C223.723 94.6434 223.545 94.915 223.367 95.1707C223.771 96.5769 225.792 95.6501 226.196 97.0723C226.374 96.8166 226.552 96.5449 226.73 96.2893C226.31 94.8671 224.305 95.7939 223.901 94.3877Z" fill="#7B44D3"/>
<path d="M252.242 66.6476C252.372 66.9352 252.485 67.2229 252.614 67.5105C254.037 67.9419 254.344 65.7687 255.767 66.2002C255.637 65.9125 255.524 65.6249 255.395 65.3373C253.972 64.9058 253.665 67.079 252.242 66.6476Z" fill="#7B44D3"/>
<path d="M174.977 30.2305C174.896 30.5341 174.815 30.8377 174.734 31.1413C175.591 32.3398 177.176 30.8057 178.033 32.0042C178.113 31.7006 178.194 31.397 178.275 31.0934C177.434 29.8789 175.85 31.4289 174.977 30.2305Z" fill="#7B44D3"/>
<path d="M212.148 36.2229C212.31 36.4946 212.472 36.7662 212.65 37.0219C214.121 37.2456 214.105 35.0404 215.576 35.2642C215.414 34.9925 215.253 34.7209 215.075 34.4652C213.604 34.2415 213.62 36.4466 212.148 36.2229Z" fill="#7B44D3"/>
<path d="M169.611 54.5986C169.32 54.7105 169.013 54.8383 168.722 54.9502C168.253 56.3404 170.452 56.692 169.983 58.0822C170.274 57.9703 170.582 57.8425 170.873 57.7306C171.325 56.3404 169.143 55.9889 169.611 54.5986Z" fill="#7B44D3"/>
<path d="M166.879 83.8265C166.944 84.1301 166.992 84.4497 167.057 84.7533C168.35 85.4724 169.126 83.427 170.42 84.146C170.355 83.8424 170.306 83.5228 170.242 83.2192C168.948 82.5001 168.172 84.5615 166.879 83.8265Z" fill="#7B44D3"/>
<path d="M221.469 55.6019C215.814 63.43 227.134 73.4405 238.241 74.7985L238.551 73.7897C234.157 71.4617 229.036 68.2606 226.145 64.1381C224.884 62.3338 223.943 60.1416 225.223 58.3665C225.282 58.2986 225.35 58.1919 225.437 58.1046C225.815 57.7554 225.738 57.8718 225.854 57.7845C225.893 57.7748 225.932 57.7457 225.97 57.736C226.009 57.7166 226.058 57.7166 226.106 57.6972C229.85 57.4741 237.038 65.4573 239.124 73.7315L240.162 73.6636C241.287 62.3629 228.308 46.639 221.469 55.6019Z" fill="#5734AA"/>
<path d="M251.579 59.5701C250.289 60.2006 249.115 60.9475 248.019 61.772C243.674 65.0798 240.23 69.8135 238.426 74.324L239.338 74.8672C242.946 70.5992 247.835 65.6715 253.325 63.4793C259.32 61.1124 260.775 64.6239 260.843 64.9052C260.872 64.9634 260.872 65.0313 260.891 65.0895C260.891 65.1477 260.911 65.2156 260.911 65.2738C260.92 65.3514 260.911 65.6036 260.891 65.6909C260.387 69.3479 249.765 75.7694 239.289 75.6336L239.115 76.6521C241.627 77.4766 244.372 77.6706 247.02 77.5057C257.545 76.7879 267.468 70.0948 265.295 63.5569C264.102 59.3373 258.651 56.1362 251.579 59.5701Z" fill="#5734AA"/>
<path d="M207.452 55.0107C207.724 59.0557 210.265 61.2091 210.265 61.2091C206.919 61.9949 201.797 60.9375 201.797 60.9375C204.794 64.7012 212.71 67.6112 224.728 70.0266C236.747 72.4419 239.889 74.5566 239.889 74.5566C240.103 73.6932 240.297 73.1791 240.297 73.1791C232.837 65.0019 213.66 64.4102 207.452 55.0107Z" fill="#5734AA"/>
<path d="M275.256 83.6356C264.168 85.5853 250.549 72.073 239.472 72.2767C239.472 72.2767 239.239 72.7714 238.754 73.528C238.754 73.528 242.44 74.3622 252.47 81.4239C262.5 88.4857 270.047 92.2299 274.838 91.8225C274.838 91.8225 270.551 88.8252 268.824 85.8569C268.815 85.8666 272.132 86.2255 275.256 83.6356Z" fill="#5734AA"/>
<path d="M209.816 106.906L245.688 118.925L261.683 84.0815L217.858 70.9863L209.816 106.906Z" fill="#83C0FC"/>
<path d="M213.969 75.0805L265.021 85.0717L266.107 81.4147L216.85 65.4482L213.969 75.0805Z" fill="#9FDBFF"/>
<path d="M223.27 111.417L232.252 114.425L246.065 81.3664L231.427 78.4951L223.27 111.417Z" fill="#5734AA"/>
<path d="M231.426 78.4949L246.063 81.3661L248.44 75.6819L233.337 70.793L231.426 78.4949Z" fill="#7B44D3"/>
<path d="M214.25 87.0713L254.477 99.7785L257.164 93.9293L215.482 81.5713L214.25 87.0713Z" fill="#7B44D3"/>
<path d="M181.517 65.7386C180.538 74.8276 194.554 77.7474 204.323 73.6539L204.109 72.6742C199.405 72.8197 193.691 72.5966 189.375 70.5596C187.493 69.6672 185.689 68.3091 185.912 66.2527C185.921 66.1654 185.931 66.049 185.96 65.9326C186.106 65.467 186.096 65.6028 186.154 65.4767C186.183 65.4476 186.203 65.4088 186.232 65.3797C186.251 65.3506 186.29 65.3215 186.319 65.2827C189.287 63.3427 198.949 66.534 204.546 72.3541L205.36 71.8109C200.986 61.9943 182.924 55.1557 181.517 65.7386Z" fill="#F91944"/>
<path d="M221.275 51.7022C218.316 48.7922 212.331 48.7242 208.131 54.8644C207.365 55.98 206.754 57.1537 206.24 58.3468C204.222 63.0999 203.611 68.6096 204.241 73.1686L205.241 73.188C206.211 67.9888 207.898 61.6352 211.39 57.2604C215.212 52.4976 218.054 54.6995 218.239 54.9129C218.287 54.9517 218.316 55.0002 218.365 55.0391C218.394 55.0876 218.442 55.1264 218.472 55.1846C218.52 55.2428 218.627 55.4562 218.646 55.5338C219.946 58.7833 214.233 69.0461 205.551 73.8477L205.881 74.7692C208.335 74.2648 210.682 73.1395 212.787 71.7524C221.11 66.2233 226.125 56.0576 221.275 51.7022Z" fill="#F91944"/>
<path d="M169.724 71.8406C171.848 75.0416 174.942 75.6236 174.942 75.6236C172.566 77.845 167.852 79.3776 167.852 79.3776C172.081 81.0654 179.948 79.7365 190.977 76.0892C201.996 72.442 205.575 72.6942 205.575 72.6942C205.343 71.8794 205.265 71.3653 205.265 71.3653C195.284 68.1351 179.24 76.6421 169.724 71.8406Z" fill="#F91944"/>
<path d="M238.898 63.5381C230.692 70.3476 213.154 65.6333 204.152 71.0072C204.152 71.0072 204.191 71.5213 204.152 72.3749C204.152 72.3749 207.576 71.3273 219.139 72.4234C230.702 73.5195 238.666 73.0539 242.41 70.464C242.41 70.464 237.472 70.0178 234.659 68.3882C234.659 68.3882 237.55 67.1271 238.898 63.5381Z" fill="#F91944"/>
<path d="M185.777 80.0851L196.03 113.386L231.164 106.431L227.954 70.2686L185.777 80.0851Z" fill="#F9C023"/>
<path d="M182.344 76.0018L184.507 85.2655L231.155 69.5221L230.34 66.001L182.344 76.0018Z" fill="#FCE34F"/>
<path d="M200.465 79.8797L209.205 110.775L218.012 109.029L213.841 75.3691L200.465 79.8797Z" fill="#F91944"/>
<path d="M198.418 72.6443L200.465 79.8807L213.841 75.3701L213.123 69.5791L198.418 72.6443Z" fill="#FE3466"/>
<path d="M188.797 89.9032L190.368 94.9958L229.402 86.5567L228.859 80.4844L188.797 89.9032Z" fill="#FE3466"/>
<path d="M184.197 92.716L184.818 92.6869C185.487 87.6137 189.202 82.3659 191.452 82.2398C191.482 82.2495 191.511 82.2398 191.53 82.2495C191.559 82.2495 191.579 82.2592 191.608 82.2689C191.685 82.3077 191.627 82.2495 191.879 82.4241C191.937 82.4726 191.986 82.5308 192.025 82.5696C192.907 83.5397 192.5 84.9074 191.879 86.0714C190.444 88.7292 187.621 90.9894 185.167 92.6772L185.419 93.2592C191.928 91.6781 197.971 84.9268 194.062 80.6684C189.367 75.7989 182.742 86.0617 184.197 92.716Z" fill="#83C0FC"/>
<path d="M171.286 88.933C171.305 88.7584 171.926 86.5661 175.661 87.5556C179.085 88.4771 182.334 91.0767 184.779 93.3562L185.283 92.9682C183.896 90.4074 181.51 87.8369 178.697 86.1684C177.989 85.7513 177.232 85.3827 176.427 85.1014C171.984 83.5494 168.958 85.8289 168.55 88.4286C167.716 92.4638 174.089 95.7619 180.394 95.4515C181.985 95.3642 183.605 95.0635 185.041 94.3942L184.866 93.8024C178.639 94.6173 171.878 91.5326 171.315 89.3889C171.296 89.3404 171.267 89.1949 171.276 89.1464C171.267 89.1076 171.276 89.0688 171.276 89.03C171.276 89.0106 171.276 88.9718 171.286 88.933Z" fill="#83C0FC"/>
<path d="M201.125 83.2179C201.125 83.2179 202.483 81.7532 202.367 79.3281C199.321 85.3519 187.952 87.0397 184.082 92.433C184.082 92.433 184.237 92.724 184.422 93.2285C184.422 93.2285 186.148 91.754 193.132 89.4745C200.116 87.1949 204.627 84.9154 206.15 82.471C206.14 82.471 203.162 83.4507 201.125 83.2179Z" fill="#83C0FC"/>
<path d="M164 101.085C166.037 102.404 167.987 101.958 167.987 101.958C167.162 103.85 164.825 105.925 164.825 105.925C167.705 105.838 171.935 103.083 177.415 98.1847C182.896 93.2861 185.03 92.5295 185.03 92.5295C184.69 92.1124 184.516 91.8408 184.516 91.8408C177.9 92.481 170.742 101.473 164 101.085Z" fill="#83C0FC"/>
<path d="M172.109 100.398L184.05 120.031L204.566 110.379L197.281 89.5625L172.109 100.398Z" fill="#0491B2"/>
<path d="M169.285 99.1169L170.197 101.222L199.87 91.7254L197.493 86.1963L169.285 99.1169Z" fill="#0FAEBA"/>
<path d="M181.207 97.7013L191.732 116.413L196.873 113.998L189.724 94.9756L181.207 97.7013Z" fill="#83C0FC"/>
<path d="M179.402 94.4811L181.207 97.7016L189.723 94.9758L188.045 90.5234L179.402 94.4811Z" fill="#9FDBFF"/>
<path d="M175.48 105.945L177.479 109.244L200.536 98.8837L199.42 95.6924L175.48 105.945Z" fill="#9FDBFF"/>
<rect x="105.637" y="76.2227" width="40.622" height="12.7323" rx="6.36614" fill="#8567CA"/>
<path d="M121.406 83.8256L121.537 83.7305C121.703 83.6329 121.82 83.5842 121.888 83.5842C122.04 83.5842 122.203 83.7207 122.379 83.9939C122.486 84.1646 122.54 84.3012 122.54 84.4037C122.54 84.5061 122.506 84.5915 122.437 84.6597C122.374 84.728 122.298 84.789 122.21 84.8427C122.123 84.8963 122.037 84.9475 121.954 84.9963C121.876 85.0451 121.713 85.1085 121.464 85.1866C121.215 85.2646 120.974 85.3036 120.74 85.3036C120.51 85.3036 120.276 85.2744 120.037 85.2158C119.803 85.1524 119.559 85.05 119.306 84.9085C119.057 84.7622 118.832 84.5866 118.632 84.3817C118.432 84.172 118.267 83.9061 118.135 83.5842C118.008 83.2573 117.945 82.9037 117.945 82.5232C117.945 82.1427 118.008 81.7988 118.135 81.4915C118.262 81.1793 118.423 80.9232 118.618 80.7232C118.818 80.5184 119.045 80.3476 119.298 80.2111C119.776 79.9476 120.257 79.8159 120.74 79.8159C120.969 79.8159 121.201 79.8525 121.435 79.9257C121.674 79.994 121.854 80.0647 121.976 80.1379L122.152 80.2403C122.24 80.294 122.308 80.3379 122.357 80.372C122.484 80.4745 122.547 80.5915 122.547 80.7232C122.547 80.8501 122.496 80.9842 122.393 81.1257C122.203 81.3891 122.032 81.5208 121.881 81.5208C121.793 81.5208 121.669 81.4671 121.508 81.3598C121.303 81.194 121.03 81.111 120.688 81.111C120.371 81.111 120.059 81.2208 119.752 81.4403C119.606 81.5476 119.484 81.6988 119.386 81.894C119.289 82.0891 119.24 82.311 119.24 82.5598C119.24 82.8037 119.289 83.0232 119.386 83.2183C119.484 83.4134 119.608 83.5671 119.759 83.6793C120.057 83.8939 120.367 84.0012 120.688 84.0012C120.84 84.0012 120.981 83.9817 121.113 83.9427C121.249 83.9037 121.347 83.8646 121.406 83.8256ZM125.38 81.7842C125.409 81.511 125.602 81.3744 125.958 81.3744C126.148 81.3744 126.29 81.3891 126.382 81.4184C126.475 81.4476 126.538 81.4988 126.573 81.572C126.612 81.6452 126.634 81.711 126.638 81.7696C126.648 81.8232 126.653 81.9061 126.653 82.0183V84.5793C126.653 84.6915 126.648 84.7768 126.638 84.8354C126.634 84.889 126.614 84.9524 126.58 85.0256C126.512 85.1524 126.343 85.2158 126.075 85.2158C125.812 85.2158 125.634 85.1841 125.541 85.1207C125.453 85.0524 125.402 84.9549 125.387 84.828C125.207 85.0866 124.904 85.2158 124.48 85.2158C124.06 85.2158 123.67 85.0232 123.309 84.6378C122.948 84.2524 122.768 83.8061 122.768 83.2988C122.768 82.7866 122.948 82.3403 123.309 81.9598C123.675 81.5744 124.075 81.3818 124.509 81.3818C124.675 81.3818 124.826 81.411 124.963 81.4696C125.099 81.5281 125.195 81.5842 125.248 81.6379C125.302 81.6866 125.346 81.7354 125.38 81.7842ZM124.048 83.3061C124.048 83.4671 124.112 83.6134 124.239 83.7451C124.365 83.872 124.519 83.9354 124.699 83.9354C124.88 83.9354 125.029 83.8695 125.146 83.7378C125.268 83.6061 125.329 83.4622 125.329 83.3061C125.329 83.1451 125.27 82.9964 125.153 82.8598C125.041 82.7232 124.887 82.6549 124.692 82.6549C124.502 82.6549 124.346 82.7232 124.224 82.8598C124.107 82.9964 124.048 83.1451 124.048 83.3061ZM129.856 81.4184C129.948 81.4476 130.024 81.4988 130.083 81.572C130.146 81.6403 130.178 81.7525 130.178 81.9086C130.178 82.0647 130.131 82.2354 130.039 82.4208C129.946 82.6061 129.812 82.6988 129.636 82.6988C129.548 82.6988 129.463 82.6793 129.38 82.6403C129.302 82.6013 129.197 82.5817 129.066 82.5817C128.934 82.5817 128.809 82.6281 128.692 82.7208C128.58 82.8134 128.524 82.9256 128.524 83.0573V84.5939C128.524 84.7061 128.519 84.7915 128.509 84.85C128.505 84.9036 128.483 84.9671 128.444 85.0402C128.37 85.1671 128.18 85.2305 127.873 85.2305C127.639 85.2305 127.47 85.189 127.368 85.1061C127.29 85.0378 127.246 84.9329 127.236 84.7915C127.236 84.7427 127.236 84.6719 127.236 84.5793V82.011C127.236 81.8988 127.239 81.8159 127.244 81.7622C127.253 81.7037 127.275 81.6403 127.309 81.572C127.378 81.4403 127.568 81.3744 127.88 81.3744C128.173 81.3744 128.356 81.4305 128.429 81.5427C128.483 81.6208 128.509 81.7013 128.509 81.7842C128.534 81.7501 128.568 81.7086 128.612 81.6598C128.661 81.611 128.761 81.5452 128.912 81.4623C129.063 81.3793 129.195 81.3379 129.307 81.3379C129.424 81.3379 129.522 81.3452 129.6 81.3598C129.678 81.3696 129.763 81.3891 129.856 81.4184ZM132.942 79.772C132.981 79.6989 133.047 79.6477 133.139 79.6184C133.232 79.5891 133.354 79.5745 133.505 79.5745C133.661 79.5745 133.786 79.5891 133.878 79.6184C133.971 79.6477 134.034 79.6989 134.069 79.772C134.108 79.8452 134.129 79.9111 134.134 79.9696C134.144 80.0233 134.149 80.1062 134.149 80.2184V84.5866C134.149 84.6988 134.144 84.7841 134.134 84.8427C134.129 84.8963 134.108 84.9573 134.069 85.0256C133.995 85.1573 133.788 85.2232 133.447 85.2232C133.11 85.2232 132.922 85.1036 132.883 84.8646C132.678 85.0988 132.393 85.2158 132.027 85.2158C131.588 85.2158 131.188 85.0256 130.827 84.6451C130.466 84.2598 130.286 83.8134 130.286 83.3061C130.286 82.7939 130.466 82.3452 130.827 81.9598C131.193 81.5744 131.593 81.3818 132.027 81.3818C132.388 81.3818 132.669 81.5037 132.869 81.7476V80.2111C132.869 80.0989 132.871 80.0159 132.876 79.9623C132.886 79.9037 132.908 79.8403 132.942 79.772ZM131.756 83.7451C131.883 83.8768 132.037 83.9427 132.217 83.9427C132.398 83.9427 132.547 83.8768 132.664 83.7451C132.786 83.6134 132.847 83.4695 132.847 83.3134C132.847 83.1525 132.788 83.0037 132.671 82.8671C132.559 82.7305 132.405 82.6622 132.21 82.6622C132.015 82.6622 131.859 82.7305 131.742 82.8671C131.625 82.9988 131.566 83.1451 131.566 83.3061C131.566 83.4671 131.63 83.6134 131.756 83.7451Z" fill="white"/>
<path d="M111.325 59.6935H115.213C116.009 59.723 116.495 59.9292 116.672 60.3122C116.819 60.5921 116.893 61.0045 116.893 61.5496V66.4107C116.893 66.8821 116.686 67.3314 116.274 67.7586C115.037 69.0401 113.181 69.6809 110.706 69.6809C108.511 69.6809 106.603 68.856 104.983 67.2062C103.363 65.5416 102.552 63.5382 102.552 61.196C102.552 58.8539 103.377 56.902 105.027 55.3406C106.677 53.7644 108.621 52.9763 110.861 52.9763C112.599 52.9763 114.241 53.5508 115.788 54.6998C116.186 54.9944 116.385 55.3259 116.385 55.6941C116.385 56.0477 116.215 56.4601 115.876 56.9315C115.302 57.7122 114.779 58.1026 114.307 58.1026C114.028 58.1026 113.578 57.9037 112.96 57.506C112.341 57.0935 111.604 56.8873 110.75 56.8873C109.63 56.8873 108.636 57.285 107.767 58.0805C106.898 58.8612 106.463 59.8924 106.463 61.1739C106.463 62.4408 106.905 63.5235 107.789 64.4221C108.673 65.3059 109.675 65.7478 110.794 65.7478C111.604 65.7478 112.334 65.6153 112.982 65.3501V62.9416H111.236C110.779 62.9416 110.455 62.8827 110.264 62.7649C110.072 62.647 109.947 62.4776 109.888 62.2567C109.829 62.021 109.8 61.7116 109.8 61.3286C109.8 60.9309 109.829 60.6142 109.888 60.3785C109.962 60.1428 110.087 59.9808 110.264 59.8924C110.529 59.7598 110.883 59.6935 111.325 59.6935ZM118.657 55.208C118.657 54.8692 118.665 54.6188 118.68 54.4568C118.709 54.28 118.783 54.0811 118.901 53.8602C119.107 53.4624 119.681 53.2636 120.624 53.2636C121.655 53.2636 122.266 53.5361 122.458 54.0811C122.532 54.3315 122.568 54.7145 122.568 55.2301V67.5155C122.568 67.869 122.554 68.1268 122.524 68.2889C122.51 68.4509 122.443 68.6424 122.325 68.8634C122.119 69.2611 121.545 69.46 120.602 69.46C119.571 69.46 118.967 69.1801 118.79 68.6203C118.702 68.3846 118.657 68.009 118.657 67.4934V55.208ZM135.049 53.2636C135.388 53.2636 135.638 53.2783 135.8 53.3078C135.977 53.3225 136.169 53.3888 136.375 53.5066C136.596 53.6245 136.75 53.8233 136.839 54.1032C136.927 54.3831 136.971 54.7587 136.971 55.2301C136.971 55.7015 136.927 56.0771 136.839 56.357C136.75 56.6369 136.596 56.8358 136.375 56.9536C136.154 57.0567 135.955 57.123 135.778 57.1525C135.616 57.1672 135.358 57.1746 135.005 57.1746H128.244V59.4063H132.596C132.95 59.4063 133.208 59.421 133.37 59.4505C133.547 59.4652 133.745 59.5315 133.966 59.6493C134.349 59.8703 134.541 60.4521 134.541 61.3949C134.541 62.4261 134.261 63.0374 133.701 63.2289C133.466 63.3025 133.09 63.3394 132.574 63.3394H128.244V67.5155C128.244 67.869 128.229 68.1268 128.199 68.2889C128.185 68.4509 128.118 68.6424 128 68.8634C127.794 69.2611 127.22 69.46 126.277 69.46C125.246 69.46 124.642 69.1801 124.465 68.6203C124.377 68.3846 124.333 68.009 124.333 67.4934V55.208C124.333 54.4568 124.472 53.9485 124.752 53.6834C125.032 53.4035 125.563 53.2636 126.343 53.2636H135.049ZM139.462 53.2415H151.747C152.219 53.2415 152.565 53.3004 152.786 53.4182C153.007 53.5214 153.154 53.6908 153.228 53.9265C153.302 54.1621 153.338 54.4715 153.338 54.8545C153.338 55.2375 153.302 55.5468 153.228 55.7825C153.154 56.0035 153.029 56.1581 152.852 56.2465C152.587 56.3791 152.212 56.4454 151.725 56.4454H147.505V67.5597C147.505 67.8985 147.49 68.1489 147.461 68.311C147.446 68.473 147.38 68.6645 147.262 68.8855C147.159 69.0917 146.967 69.239 146.687 69.3274C146.408 69.4158 146.039 69.46 145.583 69.46C145.126 69.46 144.758 69.4158 144.478 69.3274C144.213 69.239 144.021 69.0917 143.903 68.8855C143.8 68.6645 143.734 68.473 143.705 68.311C143.69 68.1342 143.682 67.8764 143.682 67.5376V56.4454H139.44C138.969 56.4454 138.622 56.3938 138.401 56.2907C138.181 56.1729 138.033 55.9961 137.96 55.7604C137.886 55.5247 137.849 55.2154 137.849 54.8324C137.849 54.4494 137.886 54.1474 137.96 53.9265C138.033 53.6908 138.158 53.5287 138.335 53.4403C138.6 53.3078 138.976 53.2415 139.462 53.2415Z" fill="#6B4CB1"/>
</g>
<path d="M101.175 74.5998L95.1913 75.3037C94.7704 75.3532 94.4531 75.71 94.4531 76.1339V79.7142C94.4531 80.1155 94.7384 80.4602 95.1326 80.5353L102.704 81.9775C103.025 82.0386 103.351 81.9077 103.541 81.6423L104.979 79.6283C105.184 79.3424 105.187 78.9592 104.988 78.6695L103.282 76.1834C103.248 76.1326 103.207 76.0858 103.162 76.0439L101.841 74.8174C101.662 74.6507 101.418 74.5712 101.175 74.5998Z" fill="#E1976D" stroke="#E1976D" stroke-width="0.835884"/>
<path d="M93.9937 74.8178L67.4301 70.0602C67.0796 69.9974 66.7836 69.7636 66.6413 69.4372L52.7047 37.465C52.6744 37.3953 52.6516 37.3227 52.6367 37.2482L52.4124 36.1269C52.3128 35.629 51.8756 35.2705 51.3677 35.2705H50.3701C50.2258 35.2705 50.083 35.2998 49.9504 35.3566L44.3002 37.7782C43.7783 38.0391 43.4221 38.5446 43.3519 39.1239L41.7926 51.9882L40.1208 58.2573L38.0311 69.1238L35.5234 97.5439V111.336L36.3226 125.721C36.3468 126.157 36.46 126.583 36.6551 126.974L37.4579 128.579C37.756 129.175 38.5218 129.354 39.0534 128.952L54.7961 117.049C55.0324 116.871 55.1837 116.602 55.2135 116.307L58.4187 84.6559C58.4714 84.135 58.8948 83.7297 59.4175 83.6996L93.867 81.7198C94.4307 81.6874 94.8712 81.2208 94.8712 80.6562V75.8665C94.8712 75.3506 94.5015 74.9088 93.9937 74.8178Z" fill="#1E3755" stroke="#1E3755" stroke-width="0.835884"/>
<path d="M103.059 29.0008H101.063L102.507 26.6896C102.584 26.5674 102.717 26.4931 102.862 26.4931H110.355C110.482 26.4931 110.602 26.5509 110.682 26.65L113.128 29.7083C113.295 29.9161 113.227 30.2242 112.989 30.3432L110.085 31.7954C109.974 31.8509 109.844 31.8542 109.73 31.8045L103.562 29.1059L103.394 29.4888L103.562 29.1059C103.403 29.0366 103.232 29.0008 103.059 29.0008Z" fill="#E1976D" stroke="#E1976D" stroke-width="0.835884"/>
<defs>
<radialGradient id="paint0_radial" cx="0" cy="0" r="1" gradientUnits="userSpaceOnUse" gradientTransform="translate(203.12 68) rotate(88.7784) scale(50.6574 116.969)">
<stop offset="0.224696" stop-color="white"/>
<stop offset="0.911523" stop-color="#E5F9FF"/>
</radialGradient>
<clipPath id="clip0">
<rect x="89" y="29" width="180" height="78" fill="white"/>
</clipPath>
</defs>
</svg>
