<svg width="307" height="144" fill="none" xmlns="http://www.w3.org/2000/svg"><path d="M235.439 11.563c-.639.79-1.331 1.632-1.97 2.422.958 4.737 7.828 2.263 8.734 7 .639-.79 1.331-1.631 1.97-2.42-.958-4.738-7.828-2.212-8.734-7.002zM134.57 47.145c.533.895 1.012 1.79 1.545 2.737 4.793.895 5.006-6.316 9.799-5.421-.533-.895-1.012-1.79-1.545-2.737-4.739-.895-4.952 6.316-9.799 5.421zM227.715 105.625c.479.948.905 1.842 1.384 2.79 4.74 1.158 5.326-6.053 10.119-4.895-.479-.948-.905-1.843-1.385-2.79-4.793-1.158-5.378 6.053-10.118 4.895zM295.191 69.306c.426.947.799 1.895 1.225 2.842 4.687 1.421 5.699-5.737 10.385-4.316-.426-.948-.799-1.895-1.225-2.842-4.686-1.422-5.698 5.737-10.385 4.316zM23.002 29.617c-.959.369-1.97.79-2.93 1.158-1.543 4.58 5.7 5.738 4.155 10.317.959-.368 1.97-.79 2.929-1.158 1.491-4.58-5.698-5.737-4.154-10.317zM14 125.89c.213 1 .373 2.053.586 3.053 4.26 2.369 6.816-4.369 11.077-2-.213-1-.373-2.053-.586-3.053-4.26-2.369-6.817 4.421-11.077 2z" fill="#7B44D3"/><path d="M150.835 24.624c-14.841 20.544 14.868 46.816 44.016 50.38l.815-2.648c-11.532-6.11-24.974-14.51-32.56-25.33-3.31-4.735-5.779-10.488-2.419-15.147.153-.178.331-.458.561-.687.992-.917.789-.611 1.094-.84.102-.026.204-.102.306-.128.102-.05.229-.05.356-.102 9.827-.585 28.691 20.366 34.164 42.082l2.724-.179c2.953-29.658-31.109-70.924-49.057-47.401z" fill="#5734AA"/><path d="M229.856 35.036c-3.386 1.655-6.466 3.615-9.343 5.78-11.405 8.68-20.442 21.103-25.177 32.941l2.393 1.426c9.47-11.202 22.301-24.134 36.71-29.887 15.732-6.212 19.551 3.004 19.729 3.742.076.153.076.33.127.484 0 .152.051.33.051.483.026.204 0 .866-.051 1.095-1.324 9.597-29.199 26.45-56.693 26.094l-.459 2.673c6.594 2.164 13.798 2.673 20.748 2.24 27.621-1.884 53.664-19.45 47.962-36.608-3.131-11.074-17.438-19.475-35.997-10.463z" fill="#5734AA"/><path d="M114.053 23.071c.712 10.616 7.382 16.268 7.382 16.268-8.783 2.062-22.224-.713-22.224-.713 7.866 9.877 28.639 17.514 60.181 23.853 31.542 6.34 39.79 11.889 39.79 11.889.56-2.266 1.069-3.615 1.069-3.615-19.576-21.46-69.906-23.014-86.198-47.682z" fill="#5734AA"/><path d="M291.999 98.197c-29.098 5.117-64.84-30.345-93.912-29.81 0 0-.611 1.298-1.884 3.284 0 0 9.674 2.19 35.997 20.722 26.323 18.533 46.129 28.36 58.705 27.29 0 0-11.253-7.866-15.784-15.656-.025.026 8.681.968 16.878-5.83z" fill="#5734AA"/><path d="M120.262 159.269l94.141 31.541 41.979-91.442L141.366 65l-21.104 94.269z" fill="#83C0FC"/><path d="M131.16 75.743l133.982 26.221 2.852-9.597-129.273-41.903-7.561 25.279z" fill="#9FDBFF"/><path d="M155.57 171.106l23.574 7.892 36.251-86.758-38.415-7.536-21.41 86.402z" fill="#5734AA"/><path d="M176.977 84.703l38.415 7.536 6.237-14.918-39.637-12.83-5.015 20.212zM131.898 107.209l105.572 33.349 7.052-15.351-109.39-32.433-3.234 14.435z" fill="#7B44D3"/><path d="M46.003 51.225c-2.571 23.853 34.215 31.516 59.85 20.773l-.56-2.571c-12.347.381-27.341-.204-38.67-5.55-4.939-2.342-9.674-5.906-9.088-11.303.026-.23.05-.535.127-.84.382-1.222.357-.866.51-1.197.076-.076.127-.178.203-.254.051-.077.153-.153.23-.255 7.79-5.091 33.145 3.284 47.834 18.559l2.138-1.426C97.096 41.398 49.694 23.45 46.003 51.225z" fill="#F91944"/><path d="M150.35 14.388c-7.765-7.638-23.472-7.816-34.495 8.299-2.011 2.927-3.615 6.008-4.964 9.139-5.295 12.474-6.899 26.934-5.244 38.899l2.622.05c2.546-13.644 6.975-30.319 16.14-41.8 10.03-12.5 17.489-6.721 17.973-6.16.127.1.203.228.331.33.076.127.203.23.28.382.127.153.407.713.458.916 3.411 8.529-11.583 35.463-34.368 48.064l.866 2.418c6.441-1.323 12.601-4.276 18.126-7.917 21.842-14.51 35.004-41.19 22.275-52.62z" fill="#F91944"/><path d="M15.046 67.237c5.575 8.401 13.696 9.928 13.696 9.928-6.237 5.83-18.61 9.852-18.61 9.852 11.1 4.43 31.746.942 60.691-8.63 28.92-9.572 38.314-8.91 38.314-8.91-.611-2.138-.815-3.487-.815-3.487-26.196-8.478-68.302 13.849-93.276 1.247z" fill="#F91944"/><path d="M196.583 45.445c-21.537 17.871-67.564 5.5-91.188 19.602 0 0 .101 1.35 0 3.59 0 0 8.986-2.75 39.331.127 30.345 2.877 51.246 1.655 61.072-5.142 0 0-12.957-1.171-20.34-5.448 0 0 7.586-3.31 11.125-12.729z" fill="#F91944"/><path d="M57.18 88.876l26.908 87.395 92.207-18.253-8.427-94.905L57.18 88.876z" fill="#F9C023"/><path d="M48.168 78.16l5.677 24.311L176.27 61.154l-2.139-9.24L48.168 78.16z" fill="#FCE34F"/><path d="M95.715 88.342l22.937 81.081 23.115-4.582-10.946-88.337-35.106 11.838z" fill="#F91944"/><path d="M90.348 69.351l5.371 18.991 35.106-11.837-1.884-15.198-38.593 8.044zM65.098 114.641l4.124 13.365 102.44-22.148-1.425-15.936-105.14 24.719z" fill="#FE3466"/><path d="M52.998 122.024l1.629-.076c1.756-13.315 11.507-27.087 17.413-27.418.076.025.152 0 .203.025.077 0 .128.026.204.051.204.102.051-.05.713.408.153.127.28.28.382.382 2.316 2.545 1.247 6.135-.382 9.19-3.768 6.975-11.176 12.907-17.617 17.336l.662 1.528c17.082-4.15 32.942-21.868 22.683-33.044-12.322-12.78-29.709 14.154-25.89 31.618z" fill="#83C0FC"/><path d="M19.115 112.096c.051-.458 1.68-6.212 11.481-3.615 8.987 2.418 17.515 9.241 23.93 15.223l1.324-1.018c-3.64-6.721-9.903-13.467-17.285-17.846-1.859-1.094-3.844-2.062-5.957-2.8-11.66-4.073-19.603 1.909-20.672 8.732-2.19 10.59 14.536 19.246 31.084 18.431 4.175-.229 8.426-1.018 12.194-2.775l-.459-1.553c-16.343 2.139-34.087-5.957-35.564-11.583-.05-.127-.127-.509-.101-.636-.026-.102 0-.204 0-.306 0-.051 0-.152.025-.254z" fill="#83C0FC"/><path d="M97.424 97.102s3.564-3.844 3.258-10.208c-7.993 15.809-37.83 20.238-47.987 34.392 0 0 .408.764.891 2.088 0 0 4.532-3.87 22.861-9.852 18.33-5.983 30.167-11.965 34.164-18.38-.026 0-7.841 2.57-13.187 1.96z" fill="#83C0FC"/><path d="M0 143.994c5.346 3.463 10.463 2.291 10.463 2.291-2.164 4.965-8.3 10.413-8.3 10.413 7.562-.23 18.661-7.459 33.045-20.315 14.383-12.856 19.984-14.842 19.984-14.842-.891-1.095-1.35-1.808-1.35-1.808-17.362 1.681-36.15 25.28-53.842 24.261z" fill="#83C0FC"/><path d="M21.285 142.187l31.338 51.526 53.843-25.33-19.119-54.632-66.062 28.436z" fill="#0491B2"/><path d="M13.875 138.826l2.393 5.524 77.874-24.922-6.237-14.511-74.03 33.909z" fill="#0FAEBA"/><path d="M45.164 135.109l27.621 49.107 13.493-6.339-18.762-49.922-22.352 7.154z" fill="#83C0FC"/><path d="M40.43 126.657l4.735 8.452 22.351-7.154-4.404-11.684-22.682 10.386zM30.14 156.748l5.245 8.656 60.512-27.189-2.928-8.375-62.828 26.908z" fill="#9FDBFF"/></svg>
