<svg width="133" height="111" viewBox="0 0 133 111" fill="none" xmlns="http://www.w3.org/2000/svg">
<path d="M87.1172 2.25305C87.326 2.77526 87.5348 3.32649 87.7138 3.8487C90.2791 4.74808 91.0547 0.831457 93.62 1.73083C93.4112 1.20861 93.2024 0.657386 93.0234 0.13517C90.4581 -0.764201 89.6825 3.15242 87.1172 2.25305Z" fill="#F9C023"/>
<path d="M77.3692 53.4008C76.7726 53.3718 76.2058 53.3718 75.6093 53.3428C73.7897 55.3446 77.2499 57.4915 75.4303 59.4643C76.0269 59.4933 76.5936 59.4933 77.1902 59.5223C78.98 57.5205 75.5198 55.3736 77.3692 53.4008Z" fill="#F9C023"/>
<path d="M132.905 26.5064C132.309 26.4484 131.742 26.4194 131.145 26.3613C129.206 28.2471 132.547 30.5681 130.608 32.4538C131.205 32.5119 131.772 32.5409 132.368 32.5989C134.307 30.7421 130.966 28.4212 132.905 26.5064Z" fill="#F9C023"/>
<path d="M0.824219 75.6512C1.24183 76.0574 1.65945 76.4635 2.04723 76.8697C4.79152 76.6666 3.80714 72.779 6.55143 72.5759C6.13382 72.1698 5.71622 71.7636 5.32844 71.3574C2.58415 71.5605 3.56851 75.4481 0.824219 75.6512Z" fill="#F9C023"/>
<path d="M47.3544 17.8887C46.7578 17.8887 46.1911 17.8887 45.5945 17.8887C43.8346 19.9485 47.3842 21.9504 45.6243 24.0102C46.2209 24.0102 46.7877 24.0102 47.3842 24.0102C49.1442 21.9794 45.6243 19.9485 47.3544 17.8887Z" fill="#F9C023"/>
<path d="M34.7645 106.67C34.6751 107.221 34.5856 107.801 34.4961 108.353C36.2858 110.383 38.9108 107.308 40.7006 109.339C40.7901 108.788 40.8796 108.208 40.969 107.656C39.1793 105.625 36.5543 108.701 34.7645 106.67Z" fill="#F9C023"/>
<path d="M27.5723 28.2832C25.8824 43.9608 50.0597 48.997 66.9085 41.9363L66.5404 40.2464C58.4255 40.4973 48.5706 40.1125 41.125 36.5988C37.879 35.0595 34.7669 32.7171 35.1517 29.17C35.1685 29.0194 35.1852 28.8186 35.2354 28.6178C35.4864 27.8147 35.4696 28.049 35.57 27.8314C35.6202 27.7812 35.6537 27.7143 35.7039 27.6641C35.7374 27.6139 35.8043 27.5637 35.8545 27.4968C40.9744 24.1505 57.6391 29.6552 67.2933 39.6942L68.6988 38.7572C61.1528 21.8248 29.9984 10.0289 27.5723 28.2832Z" fill="#F91944"/>
<path d="M96.1538 4.07214C91.0506 -0.947369 80.7272 -1.06449 73.4824 9.52667C72.1605 11.4508 71.1065 13.4754 70.2197 15.5334C66.7395 23.7319 65.6854 33.2355 66.7729 41.0994L68.4963 41.1329C70.1695 32.1647 73.0808 21.2054 79.1042 13.6594C85.6965 5.44414 90.5989 9.24223 90.9168 9.61033C91.0004 9.67726 91.0506 9.76091 91.1343 9.82784C91.1845 9.9115 91.2681 9.97842 91.3183 10.0788C91.402 10.1792 91.5861 10.5473 91.6195 10.6812C93.8616 16.2863 84.0066 33.9884 69.0317 42.2706L69.6006 43.8601C73.8337 42.9901 77.8828 41.0492 81.5136 38.6566C95.8694 29.1195 104.52 11.5847 96.1538 4.07214Z" fill="#F91944"/>
<path d="M7.22922 38.8071C10.8935 44.3285 16.2309 45.3324 16.2309 45.3324C12.1316 49.164 4 51.8076 4 51.8076C11.295 54.7189 24.8644 52.4267 43.8884 46.1356C62.8956 39.8444 69.0696 40.2795 69.0696 40.2795C68.668 38.874 68.5342 37.9872 68.5342 37.9872C51.3172 32.4156 23.643 47.0893 7.22922 38.8071Z" fill="#F91944"/>
<path d="M126.542 24.4844C112.387 36.23 82.1364 28.0984 66.6094 37.3678C66.6094 37.3678 66.6763 38.2546 66.6094 39.7269C66.6094 39.7269 72.5157 37.9199 92.4598 39.8106C112.404 41.7013 126.141 40.8982 132.599 36.4308C132.599 36.4308 124.083 35.6611 119.231 32.8502C119.231 32.8502 124.217 30.6751 126.542 24.4844Z" fill="#F91944"/>
<path d="M34.9219 53.0292L52.6073 110.469L113.209 98.4725L107.671 36.0967L34.9219 53.0292Z" fill="#F9C023"/>
<path d="M28.9961 45.9848L32.7273 61.9635L113.19 34.808L111.785 28.7344L28.9961 45.9848Z" fill="#FCE34F"/>
<path d="M60.25 52.6777L75.3253 105.968L90.5176 102.956L83.323 44.8975L60.25 52.6777Z" fill="#F91944"/>
<path d="M56.7188 40.1964L60.2491 52.6782L83.3222 44.898L82.084 34.9092L56.7188 40.1964Z" fill="#FE3466"/>
<path d="M40.125 69.9613L42.8355 78.7455L110.164 64.1889L109.227 53.7148L40.125 69.9613Z" fill="#FE3466"/>
</svg>
