<svg width="114" height="81" viewBox="0 0 114 81" fill="none" xmlns="http://www.w3.org/2000/svg">
<path d="M59.4844 2.94068C59.6283 3.30064 59.7722 3.68059 59.8956 4.04054C61.6638 4.66046 62.1984 1.96081 63.9666 2.58073C63.8227 2.22077 63.6788 1.84082 63.5554 1.48087C61.7872 0.860944 61.2526 3.5606 59.4844 2.94068Z" fill="#908F92"/>
<path d="M52.7618 38.1962C52.3506 38.1762 51.96 38.1762 51.5487 38.1562C50.2945 39.5361 52.6796 41.0159 51.4254 42.3757C51.8366 42.3957 52.2273 42.3957 52.6385 42.4157C53.8721 41.0359 51.4871 39.5561 52.7618 38.1962Z" fill="#908F92"/>
<path d="M91.0417 19.6583C90.6304 19.6183 90.2398 19.5983 89.8286 19.5583C88.4921 20.8582 90.7949 22.458 89.4585 23.7578C89.8697 23.7978 90.2604 23.8178 90.6716 23.8578C92.008 22.578 89.7052 20.9782 91.0417 19.6583Z" fill="#908F92"/>
<path d="M0 53.534C0.287851 53.8139 0.575709 54.0939 0.843 54.3739C2.73459 54.2339 2.05608 51.5542 3.94767 51.4142C3.65982 51.1343 3.37198 50.8543 3.10469 50.5743C1.21309 50.7143 1.89159 53.394 0 53.534Z" fill="#908F92"/>
<path d="M32.0726 13.7192C31.6614 13.7192 31.2708 13.7192 30.8596 13.7192C29.6465 15.1391 32.0932 16.5189 30.8801 17.9387C31.2913 17.9387 31.682 17.9387 32.0932 17.9387C33.3063 16.5389 30.8801 15.1391 32.0726 13.7192Z" fill="#908F92"/>
<path d="M23.3999 74.9116C23.3382 75.2916 23.2765 75.6915 23.2148 76.0715C24.4485 77.4713 26.2578 75.3516 27.4915 76.7514C27.5532 76.3714 27.6149 75.9715 27.6765 75.5915C26.4429 74.1917 24.6335 76.3114 23.3999 74.9116Z" fill="#908F92"/>
<g opacity="0.88">
<path d="M92.5577 12.3052C97.1885 21.3712 83.4725 29.6621 71.4806 29.083L71.3267 27.9891C76.3812 26.3746 82.3569 23.9908 86.1306 20.2611C87.7778 18.628 89.1534 16.5386 88.1054 14.4831C88.0555 14.4028 88.0021 14.2809 87.9248 14.1754C87.5848 13.7486 87.6468 13.8822 87.5387 13.7716C87.4993 13.7547 87.4633 13.7179 87.4239 13.701C87.3862 13.6741 87.3348 13.6655 87.2869 13.6368C83.3621 12.7406 74.3712 19.68 70.7309 27.8273L69.644 27.5726C70.4097 15.7378 86.8707 1.86009 92.5577 12.3052Z" fill="#5734AA"/>
<path d="M59.9973 11.0293C61.2538 11.9081 62.3669 12.8861 63.3844 13.9301C67.4117 18.1092 70.2372 23.5957 71.366 28.5607L70.3068 28.9576C67.2261 23.9211 62.9043 17.9775 57.4722 14.7431C51.5364 11.2392 49.3882 14.5953 49.2677 14.8728C49.2268 14.9276 49.215 14.9975 49.1844 15.0539C49.1743 15.1139 49.142 15.1803 49.132 15.2402C49.1083 15.3184 49.0748 15.5798 49.0803 15.6731C48.981 19.5279 59.1125 28.03 70.2254 29.7552L70.2339 30.8348C67.4317 31.2365 64.4923 30.9475 61.7177 30.3063C50.7013 27.6936 41.3561 19.0362 44.7881 12.692C46.7817 8.56027 53.1065 6.23518 59.9973 11.0293Z" fill="#5734AA"/>
<path d="M107.498 14.1924C106.51 18.3085 103.447 20.0731 103.447 20.0731C106.854 21.4778 112.458 21.3011 112.458 21.3011C108.634 24.6423 99.7512 26.2291 86.611 26.5762C73.4708 26.9232 69.7778 28.5408 69.7778 28.5408C69.7014 27.614 69.5851 27.0502 69.5851 27.0502C78.897 19.9594 99.2992 22.7643 107.498 14.1924Z" fill="#6B4CB1"/>
<path d="M30.7656 31.5922C42.1643 35.5734 58.9201 24.0865 70.6109 26.2684C70.6109 26.2684 70.7716 26.8191 71.154 27.6844C71.154 27.6844 67.1078 27.8871 55.268 33.3717C43.4282 38.8564 34.7914 41.3677 29.7896 40.0952C29.7896 40.0952 34.847 37.7726 37.1887 35.0241C37.1973 35.0358 33.6235 34.8147 30.7656 31.5922Z" fill="#6B4CB1"/>
<path d="M95.9993 67.1985L55.9475 73.1859L45.0486 34.4663L93.7066 28.7864L95.9993 67.1985Z" fill="#92C7F9"/>
<path d="M97.1212 33.6938L41.3511 34.8915L40.8343 30.9331L95.7395 23.2642L97.1212 33.6938Z" fill="#9FDBFF"/>
<path d="M80.9792 69.4474L70.9504 70.9441L62.0529 34.4506L78.0443 34.1004L80.9792 69.4474Z" fill="#6B4CB1"/>
<path d="M78.0453 34.1005L62.0538 34.4507L60.5224 28.1755L77.3561 25.8309L78.0453 34.1005Z" fill="#7B44D3"/>
<path d="M94.7469 45.9874L49.9655 51.9085L48.134 45.4082L94.3952 40.1056L94.7469 45.9874Z" fill="#8B5AD5"/>
</g>
</svg>
