<svg width="320" height="135" viewBox="0 0 320 135" fill="none" xmlns="http://www.w3.org/2000/svg">
<path d="M151.985 17.6489C132.823 44.1735 171.18 78.0934 208.814 82.695L209.866 79.2767C194.977 71.3883 177.622 60.5419 167.827 46.5729C163.555 40.4594 160.366 33.0312 164.705 27.0163C164.902 26.7862 165.132 26.4247 165.428 26.1289C166.71 24.9456 166.447 25.34 166.841 25.0442C166.973 25.0114 167.104 24.9128 167.236 24.8799C167.367 24.8142 167.532 24.8141 167.696 24.7484C180.383 23.9924 204.738 51.0429 211.805 79.0795L215.322 78.8494C219.135 40.558 175.157 -12.7213 151.985 17.6489Z" fill="#5734AA"/>
<path d="M239.905 27.1449C235.534 29.2814 231.557 31.8122 227.843 34.606C213.118 45.8141 201.449 61.8537 195.336 77.1374L198.426 78.978C210.653 64.516 227.218 47.819 245.821 40.3908C266.134 32.371 271.064 44.2693 271.294 45.2224C271.393 45.4196 271.393 45.6497 271.459 45.8469C271.459 46.0441 271.524 46.2742 271.524 46.4714C271.557 46.7344 271.524 47.5889 271.459 47.8848C269.75 60.2761 233.759 82.0348 198.261 81.5746L197.67 85.0258C206.182 87.8196 215.484 88.477 224.457 87.9182C260.119 85.4859 293.743 62.8069 286.381 40.6538C282.338 26.3561 263.866 15.5096 239.905 27.1449Z" fill="#5734AA"/>
<path d="M118.373 14.0713C119.293 27.7773 127.905 35.0741 127.905 35.0741C116.565 37.7364 99.2109 34.1538 99.2109 34.1538C109.367 46.9066 136.188 56.767 176.911 64.9512C217.635 73.1354 228.284 80.3007 228.284 80.3007C229.007 77.3754 229.665 75.6334 229.665 75.6334C204.389 47.9255 139.409 45.9205 118.373 14.0713Z" fill="#5734AA"/>
<path d="M319.886 97.8772C282.318 104.484 236.171 58.6984 198.635 59.3886C198.635 59.3886 197.847 61.0649 196.203 63.6286C196.203 63.6286 208.693 66.4552 242.679 90.3833C276.664 114.311 302.236 126.998 318.473 125.618C318.473 125.618 303.945 115.462 298.094 105.404C298.062 105.437 309.303 106.653 319.886 97.8772Z" fill="#5734AA"/>
<path d="M120.262 177.711L241.808 218.434L296.008 100.372L147.509 56L120.262 177.711Z" fill="#83C0FC"/>
<path d="M131.16 66.743L265.142 92.9641L267.994 83.3667L138.721 41.4639L131.16 66.743Z" fill="#9FDBFF"/>
<path d="M155.57 162.106L179.144 169.998L215.395 83.2395L176.98 75.7041L155.57 162.106Z" fill="#5734AA"/>
<path d="M176.977 81.5876L226.575 91.3165L234.627 72.0558L183.452 55.4902L176.977 81.5876Z" fill="#7B44D3"/>
<path d="M131.898 102.411L268.203 145.468L277.307 125.648L136.073 83.7744L131.898 102.411Z" fill="#7B44D3"/>
<path d="M46.0028 42.2246C43.4316 66.0782 80.2175 73.7408 105.853 62.9978L105.293 60.4266C92.9462 60.8085 77.9518 60.2229 66.6233 54.8769C61.6845 52.5348 56.9495 48.9708 57.535 43.5738C57.5605 43.3447 57.5859 43.0392 57.6623 42.7337C58.0442 41.5118 58.0187 41.8682 58.1714 41.5372C58.2478 41.4609 58.2987 41.359 58.3751 41.2827C58.426 41.2063 58.5278 41.1299 58.6042 41.0281C66.3942 35.9366 91.7497 44.3121 106.439 59.5865L108.577 58.1609C97.0958 32.398 49.6941 14.4506 46.0028 42.2246Z" fill="#F91944"/>
<path d="M163.545 6.85007C153.52 -3.01038 133.24 -3.24047 119.008 17.5651C116.412 21.3449 114.341 25.322 112.599 29.3648C105.762 45.4702 103.692 64.1393 105.828 79.5873L109.214 79.6531C112.5 62.0357 118.219 40.5071 130.052 25.6835C143.002 9.54526 152.632 17.0063 153.257 17.7294C153.421 17.8609 153.52 18.0252 153.684 18.1567C153.783 18.3211 153.947 18.4525 154.046 18.6497C154.21 18.8469 154.572 19.5701 154.637 19.833C159.042 30.8438 139.682 65.6184 110.265 81.8881L111.383 85.0106C119.699 83.3014 127.653 79.4887 134.785 74.7886C162.986 56.0537 179.979 21.6079 163.545 6.85007Z" fill="#F91944"/>
<path d="M16.4764 59.1755C23.6745 70.022 34.1594 71.9941 34.1594 71.9941C26.1067 79.5209 10.1328 84.7141 10.1328 84.7141C24.4633 90.4331 51.1194 85.9302 88.4905 73.5718C125.829 61.2133 137.957 62.0679 137.957 62.0679C137.168 59.307 136.905 57.565 136.905 57.565C103.084 46.6199 48.72 75.4452 16.4764 59.1755Z" fill="#F91944"/>
<path d="M196.583 36.4453C175.046 54.3164 129.019 41.9441 105.395 56.0475C105.395 56.0475 105.496 57.3967 105.395 59.637C105.395 59.637 114.381 56.8876 144.726 59.7643C175.071 62.641 195.972 61.419 205.798 54.6219C205.798 54.6219 192.841 53.4508 185.458 49.174C185.458 49.174 193.044 45.8645 196.583 36.4453Z" fill="#F91944"/>
<path d="M57.1797 87.3759L91.9213 200.212L210.97 176.646L200.091 54.1133L57.1797 87.3759Z" fill="#F9C023"/>
<path d="M48.168 69.1597L53.845 93.4714L176.27 52.1541L174.131 42.9131L48.168 69.1597Z" fill="#FCE34F"/>
<path d="M95.7148 82.7876L125.329 187.473L155.173 181.556L141.04 67.5039L95.7148 82.7876Z" fill="#F91944"/>
<path d="M90.3477 62.693L97.2829 87.2126L142.608 71.9289L140.176 52.3066L90.3477 62.693Z" fill="#FE3466"/>
<path d="M65.0977 112.837L70.4223 130.093L202.684 101.497L200.843 80.9219L65.0977 112.837Z" fill="#FE3466"/>
<path d="M52.9976 113.024L54.6269 112.948C56.3835 99.6334 66.1337 85.861 72.0398 85.53C72.1161 85.5555 72.1925 85.53 72.2434 85.5555C72.3198 85.5555 72.3707 85.5809 72.4471 85.6064C72.6507 85.7082 72.498 85.5555 73.1599 86.0137C73.3126 86.141 73.4399 86.2938 73.5417 86.3956C75.8584 88.9413 74.7892 92.5308 73.1599 95.5857C69.3922 102.561 61.9841 108.493 55.5434 112.922L56.2053 114.45C73.2872 110.3 89.1471 92.5817 78.8878 81.4059C66.5664 68.6263 49.179 95.5602 52.9976 113.024Z" fill="#83C0FC"/>
<path d="M19.1151 103.096C19.166 102.638 20.7953 96.8842 30.5964 99.4808C39.5828 101.899 48.111 108.722 54.5263 114.704L55.8501 113.686C52.2097 106.965 45.9472 100.219 38.5645 95.8404C36.7062 94.7457 34.7205 93.7783 32.6075 93.0401C20.948 88.9669 13.0053 94.9494 11.9361 101.772C9.74678 112.362 26.4723 121.018 43.0196 120.203C47.1946 119.974 51.446 119.185 55.2137 117.428L54.7554 115.875C38.4118 118.014 20.668 109.918 19.1915 104.292C19.1406 104.165 19.0642 103.783 19.0897 103.656C19.0642 103.554 19.0897 103.452 19.0897 103.35C19.0897 103.299 19.0896 103.198 19.1151 103.096Z" fill="#83C0FC"/>
<path d="M97.4239 88.102C97.4239 88.102 100.988 84.2579 100.682 77.8936C92.6889 93.7026 62.8528 98.1322 52.6953 112.286C52.6953 112.286 53.1026 113.05 53.5863 114.374C53.5863 114.374 58.1177 110.504 76.447 104.522C94.7764 98.5395 106.614 92.557 110.611 86.1418C110.585 86.1418 102.77 88.7129 97.4239 88.102Z" fill="#83C0FC"/>
<path d="M0 134.994C5.34605 138.457 10.463 137.285 10.463 137.285C8.29911 142.25 2.16388 147.698 2.16388 147.698C9.72472 147.468 20.8241 140.239 35.2076 127.383C49.591 114.527 55.1916 112.541 55.1916 112.541C54.3006 111.446 53.8424 110.733 53.8424 110.733C36.4804 112.414 17.6929 136.013 0 134.994Z" fill="#83C0FC"/>
<path d="M21.2852 141.465L61.7459 207.99L131.262 175.286L106.578 104.751L21.2852 141.465Z" fill="#0491B2"/>
<path d="M13.875 129.826L16.268 135.35L94.1421 110.428L87.9051 95.917L13.875 129.826Z" fill="#0FAEBA"/>
<path d="M45.1641 126.109L72.7853 175.216L86.2777 168.877L67.5156 118.955L45.1641 126.109Z" fill="#83C0FC"/>
<path d="M40.4297 117.657L45.1648 126.109L67.5163 118.955L63.1122 107.271L40.4297 117.657Z" fill="#9FDBFF"/>
<path d="M30.1406 155.582L36.9115 166.757L115.039 131.653L111.259 120.84L30.1406 155.582Z" fill="#9FDBFF"/>
</svg>
