<svg width="133" height="116" viewBox="0 0 133 116" fill="none" xmlns="http://www.w3.org/2000/svg">
<path d="M87.1172 2.25305C87.326 2.77526 87.5348 3.32649 87.7138 3.8487C90.2791 4.74808 91.0547 0.831457 93.62 1.73083C93.4112 1.20861 93.2024 0.657386 93.0234 0.13517C90.4581 -0.764201 89.6825 3.15242 87.1172 2.25305Z" fill="#0491B2"/>
<path d="M77.3692 53.4008C76.7726 53.3718 76.2058 53.3718 75.6093 53.3428C73.7897 55.3446 77.2499 57.4915 75.4303 59.4643C76.0269 59.4933 76.5936 59.4933 77.1902 59.5223C78.98 57.5205 75.5198 55.3736 77.3692 53.4008Z" fill="#0491B2"/>
<path d="M132.905 26.5064C132.309 26.4484 131.742 26.4194 131.145 26.3613C129.206 28.2471 132.547 30.5681 130.608 32.4538C131.205 32.5119 131.772 32.5409 132.368 32.5989C134.307 30.7421 130.966 28.4212 132.905 26.5064Z" fill="#0491B2"/>
<path d="M0.824219 75.6512C1.24183 76.0574 1.65945 76.4635 2.04723 76.8697C4.79152 76.6666 3.80714 72.779 6.55143 72.5759C6.13382 72.1698 5.71622 71.7636 5.32844 71.3574C2.58415 71.5605 3.56851 75.4481 0.824219 75.6512Z" fill="#0491B2"/>
<path d="M47.3544 17.8887C46.7578 17.8887 46.1911 17.8887 45.5945 17.8887C43.8346 19.9485 47.3842 21.9504 45.6243 24.0102C46.2209 24.0102 46.7877 24.0102 47.3842 24.0102C49.1442 21.9794 45.6243 19.9485 47.3544 17.8887Z" fill="#0491B2"/>
<path d="M34.7645 106.67C34.6751 107.221 34.5856 107.801 34.4961 108.353C36.2858 110.383 38.9108 107.308 40.7006 109.339C40.7901 108.788 40.8796 108.208 40.969 107.656C39.1793 105.625 36.5543 108.701 34.7645 106.67Z" fill="#0491B2"/>
<path d="M56.565 39.2638L58.3038 39.1823C60.1784 24.9731 70.5841 10.2748 76.8872 9.92161C76.9687 9.94878 77.0502 9.9216 77.1045 9.94877C77.186 9.94877 77.2404 9.97595 77.3219 10.0031C77.5392 10.1118 77.3762 9.94879 78.0826 10.4378C78.2456 10.5737 78.3815 10.7367 78.4901 10.8454C80.9625 13.5622 79.8214 17.393 78.0826 20.6533C74.0616 28.0975 66.1555 34.4278 59.2818 39.1552L59.9882 40.7853C78.2185 36.3568 95.1446 17.4473 84.1956 5.52027C71.0459 -8.11843 52.4897 20.6261 56.565 39.2638Z" fill="#83C0FC"/>
<path d="M20.4037 28.6686C20.458 28.1795 22.1968 22.0394 32.6568 24.8106C42.2474 27.3916 51.3489 34.6728 58.1954 41.0575L59.6082 39.9707C55.7231 32.7982 49.0396 25.5985 41.1606 20.9255C39.1773 19.7572 37.0581 18.7248 34.8031 17.9369C22.3599 13.5899 13.8832 19.9746 12.7421 27.2558C10.4056 38.558 28.2555 47.7953 45.9152 46.9259C50.3708 46.6814 54.908 45.8392 58.929 43.9646L58.4399 42.3072C40.9976 44.5894 22.061 35.9498 20.4852 29.9455C20.4309 29.8096 20.3494 29.4021 20.3765 29.2663C20.3494 29.1576 20.3765 29.0489 20.3765 28.9402C20.3765 28.8859 20.3765 28.7772 20.4037 28.6686Z" fill="#83C0FC"/>
<path d="M103.974 12.6652C103.974 12.6652 107.777 8.56269 107.451 1.77051C98.9204 18.6423 67.0786 23.3696 56.2383 38.4755C56.2383 38.4755 56.673 39.2905 57.1892 40.7033C57.1892 40.7033 62.0252 36.5736 81.5867 30.189C101.148 23.8043 113.782 17.4197 118.047 10.5732C118.02 10.5732 109.679 13.3172 103.974 12.6652Z" fill="#83C0FC"/>
<path d="M0 62.7102C5.70543 66.4051 11.1664 65.1554 11.1664 65.1554C8.85701 70.4533 2.30934 76.2673 2.30934 76.2673C10.3785 76.0228 22.224 68.3069 37.5744 54.5867C52.9247 40.8665 58.9018 38.7473 58.9018 38.7473C57.9509 37.5791 57.4619 36.8184 57.4619 36.8184C38.9328 38.6115 18.8823 63.7969 0 62.7102Z" fill="#83C0FC"/>
<path d="M22.7148 60.7811L56.1595 115.771L113.621 88.7377L93.2177 30.4336L22.7148 60.7811Z" fill="#0491B2"/>
<path d="M14.8086 57.1946L17.3624 63.0902L100.472 36.492L93.8153 21.0059L14.8086 57.1946Z" fill="#0FAEBA"/>
<path d="M48.1953 53.2282L77.6734 105.637L92.0728 98.8716L72.0495 45.5938L48.1953 53.2282Z" fill="#83C0FC"/>
<path d="M43.1445 44.2079L48.1979 53.2279L72.0521 45.5935L67.3519 33.123L43.1445 44.2079Z" fill="#9FDBFF"/>
<path d="M32.168 76.3219L37.7647 85.5592L102.345 56.543L99.2204 47.6045L32.168 76.3219Z" fill="#9FDBFF"/>
</svg>
