<svg width="24" height="24" viewBox="0 0 24 24" fill="none" xmlns="http://www.w3.org/2000/svg">
<g clip-path="url(#clip0)">
<path d="M24 4.82646C22.4903 4.89604 22.5233 4.89036 22.3526 4.90465L23.2467 2.35124C23.2467 2.35124 20.4558 3.37791 19.7483 3.56157C17.8901 1.89146 15.1282 1.81767 13.1536 3.03129C11.5366 4.02537 10.6686 5.73247 10.9581 7.72777C7.81109 7.29106 5.15954 5.7993 3.0661 3.28453L2.40399 2.4893L1.90924 3.39787C1.28394 4.54594 1.07629 5.85863 1.3244 7.09404C1.42621 7.60087 1.59924 8.08427 1.83893 8.53691L1.27093 8.31682L1.20355 9.26585C1.13525 10.2299 1.45624 11.3553 2.06232 12.2759C2.23297 12.5352 2.4527 12.8199 2.7312 13.1008L2.43768 13.0558L2.79584 14.1432C3.2666 15.572 4.24438 16.6774 5.5133 17.2919C4.24603 17.8297 3.22229 18.1728 1.53955 18.7264L0 19.2325L1.422 20.0099C1.96417 20.3064 3.88 21.2964 5.77295 21.5934C9.98071 22.2533 14.7182 21.7159 17.9075 18.8436C20.5939 16.4242 21.4753 12.9827 21.2922 9.40135C21.2646 8.85918 21.4131 8.34172 21.7104 7.94456C22.3061 7.14934 23.9963 4.83177 24 4.82646ZM20.586 7.10228C20.0922 7.76164 19.8448 8.60374 19.8891 9.47313C20.0738 13.0856 19.0909 15.8871 16.9675 17.7995C14.4869 20.0336 10.4859 20.9104 5.99066 20.2053C5.17657 20.0777 4.3352 19.7919 3.63885 19.5064C5.04968 19.021 6.13916 18.5883 7.89862 17.7555L10.3548 16.593L7.643 16.4194C6.34405 16.3363 5.26245 15.7068 4.59759 14.6847C4.95062 14.6642 5.29101 14.607 5.62994 14.5126L8.21631 13.7922L5.60834 13.1535C4.34106 12.8432 3.61871 12.0849 3.23584 11.5034C2.98444 11.1213 2.82019 10.7298 2.72168 10.3689C2.98315 10.439 3.28802 10.489 3.77966 10.5377L6.19354 10.7765L4.28101 9.28453C2.90295 8.2097 2.35071 6.59489 2.75555 5.04252C7.05633 9.50334 12.106 9.16807 12.6143 9.28599C12.5024 8.19926 12.4995 8.1967 12.4702 8.09325C11.8193 5.79216 13.2458 4.62376 13.8893 4.22825C15.2333 3.40227 17.3666 3.27775 18.8443 4.63859C19.1634 4.93229 19.595 5.04783 19.999 4.94749C20.3615 4.8574 20.6591 4.76201 20.9504 4.65819L20.3439 6.39L21.1181 6.39055C20.972 6.58647 20.7967 6.82103 20.586 7.10228Z" fill="white"/>
</g>
<defs>
<clipPath id="clip0">
<rect width="24" height="24" fill="white"/>
</clipPath>
</defs>
</svg>
