<svg width="407" height="407" viewBox="0 0 407 407" fill="none" xmlns="http://www.w3.org/2000/svg">
<g opacity="0.77">
<circle cx="4.59166" cy="95.7622" r="3.43058" transform="rotate(-16.5214 4.59166 95.7622)" fill="#DCE0E3" fill-opacity="0.77"/>
<circle cx="48.4432" cy="82.7547" r="3.43058" transform="rotate(-16.5214 48.4432 82.7547)" fill="#DCE0E3" fill-opacity="0.77"/>
<circle cx="92.2958" cy="69.7472" r="3.43058" transform="rotate(-16.5214 92.2958 69.7472)" fill="#DCE0E3" fill-opacity="0.77"/>
<circle cx="136.148" cy="56.7398" r="3.43058" transform="rotate(-16.5214 136.148 56.7398)" fill="#DCE0E3" fill-opacity="0.77"/>
<circle cx="180.001" cy="43.7322" r="3.43058" transform="rotate(-16.5214 180.001 43.7322)" fill="#DCE0E3" fill-opacity="0.77"/>
<circle cx="223.853" cy="30.7248" r="3.43058" transform="rotate(-16.5214 223.853 30.7248)" fill="#DCE0E3" fill-opacity="0.77"/>
<circle cx="267.708" cy="17.7163" r="3.43058" transform="rotate(-16.5214 267.708 17.7163)" fill="#DCE0E3" fill-opacity="0.77"/>
<circle cx="311.561" cy="4.70901" r="3.43058" transform="rotate(-16.5214 311.561 4.70901)" fill="#DCE0E3" fill-opacity="0.77"/>
<circle cx="17.599" cy="139.616" r="3.43058" transform="rotate(-16.5214 17.599 139.616)" fill="#DCE0E3" fill-opacity="0.77"/>
<circle cx="61.4505" cy="126.607" r="3.43058" transform="rotate(-16.5214 61.4505 126.607)" fill="#DCE0E3" fill-opacity="0.77"/>
<circle cx="105.304" cy="113.6" r="3.43058" transform="rotate(-16.5214 105.304 113.6)" fill="#DCE0E3" fill-opacity="0.77"/>
<circle cx="149.156" cy="100.592" r="3.43058" transform="rotate(-16.5214 149.156 100.592)" fill="#DCE0E3" fill-opacity="0.77"/>
<circle cx="193.009" cy="87.5846" r="3.43058" transform="rotate(-16.5214 193.009 87.5846)" fill="#DCE0E3" fill-opacity="0.77"/>
<circle cx="236.861" cy="74.5772" r="3.43058" transform="rotate(-16.5214 236.861 74.5772)" fill="#DCE0E3" fill-opacity="0.77"/>
<circle cx="280.713" cy="61.5697" r="3.43058" transform="rotate(-16.5214 280.713 61.5697)" fill="#DCE0E3" fill-opacity="0.77"/>
<circle cx="324.566" cy="48.5622" r="3.43058" transform="rotate(-16.5214 324.566 48.5622)" fill="#DCE0E3" fill-opacity="0.77"/>
<circle cx="30.6063" cy="183.468" r="3.43058" transform="rotate(-16.5214 30.6063 183.468)" fill="#DCE0E3" fill-opacity="0.77"/>
<circle cx="74.4579" cy="170.46" r="3.43058" transform="rotate(-16.5214 74.4579 170.46)" fill="#DCE0E3" fill-opacity="0.77"/>
<circle cx="118.311" cy="157.452" r="3.43058" transform="rotate(-16.5214 118.311 157.452)" fill="#DCE0E3" fill-opacity="0.77"/>
<circle cx="162.163" cy="144.445" r="3.43058" transform="rotate(-16.5214 162.163 144.445)" fill="#DCE0E3" fill-opacity="0.77"/>
<circle cx="206.015" cy="131.437" r="3.43058" transform="rotate(-16.5214 206.015 131.437)" fill="#DCE0E3" fill-opacity="0.77"/>
<circle cx="249.868" cy="118.43" r="3.43058" transform="rotate(-16.5214 249.868 118.43)" fill="#DCE0E3" fill-opacity="0.77"/>
<circle cx="293.72" cy="105.422" r="3.43058" transform="rotate(-16.5214 293.72 105.422)" fill="#DCE0E3" fill-opacity="0.77"/>
<circle cx="337.573" cy="92.4146" r="3.43058" transform="rotate(-16.5214 337.573 92.4146)" fill="#DCE0E3" fill-opacity="0.77"/>
<circle cx="43.6141" cy="227.321" r="3.43058" transform="rotate(-16.5214 43.6141 227.321)" fill="#DCE0E3" fill-opacity="0.77"/>
<circle cx="87.4662" cy="214.312" r="3.43058" transform="rotate(-16.5214 87.4662 214.312)" fill="#DCE0E3" fill-opacity="0.77"/>
<circle cx="131.319" cy="201.305" r="3.43058" transform="rotate(-16.5214 131.319 201.305)" fill="#DCE0E3" fill-opacity="0.77"/>
<circle cx="175.171" cy="188.297" r="3.43058" transform="rotate(-16.5214 175.171 188.297)" fill="#DCE0E3" fill-opacity="0.77"/>
<circle cx="219.024" cy="175.29" r="3.43058" transform="rotate(-16.5214 219.024 175.29)" fill="#DCE0E3" fill-opacity="0.77"/>
<circle cx="262.876" cy="162.282" r="3.43058" transform="rotate(-16.5214 262.876 162.282)" fill="#DCE0E3" fill-opacity="0.77"/>
<circle cx="306.728" cy="149.275" r="3.43058" transform="rotate(-16.5214 306.728 149.275)" fill="#DCE0E3" fill-opacity="0.77"/>
<circle cx="350.581" cy="136.267" r="3.43058" transform="rotate(-16.5214 350.581 136.267)" fill="#DCE0E3" fill-opacity="0.77"/>
<circle cx="56.621" cy="271.173" r="3.43058" transform="rotate(-16.5214 56.621 271.173)" fill="#DCE0E3" fill-opacity="0.77"/>
<circle cx="100.473" cy="258.165" r="3.43058" transform="rotate(-16.5214 100.473 258.165)" fill="#DCE0E3" fill-opacity="0.77"/>
<circle cx="144.326" cy="245.158" r="3.43058" transform="rotate(-16.5214 144.326 245.158)" fill="#DCE0E3" fill-opacity="0.77"/>
<circle cx="188.178" cy="232.15" r="3.43058" transform="rotate(-16.5214 188.178 232.15)" fill="#DCE0E3" fill-opacity="0.77"/>
<circle cx="232.031" cy="219.143" r="3.43058" transform="rotate(-16.5214 232.031 219.143)" fill="#DCE0E3" fill-opacity="0.77"/>
<circle cx="275.883" cy="206.135" r="3.43058" transform="rotate(-16.5214 275.883 206.135)" fill="#DCE0E3" fill-opacity="0.77"/>
<circle cx="319.736" cy="193.128" r="3.43058" transform="rotate(-16.5214 319.736 193.128)" fill="#DCE0E3" fill-opacity="0.77"/>
<circle cx="363.588" cy="180.12" r="3.43058" transform="rotate(-16.5214 363.588 180.12)" fill="#DCE0E3" fill-opacity="0.77"/>
<circle cx="69.6283" cy="315.026" r="3.43058" transform="rotate(-16.5214 69.6283 315.026)" fill="#DCE0E3" fill-opacity="0.77"/>
<circle cx="113.481" cy="302.018" r="3.43058" transform="rotate(-16.5214 113.481 302.018)" fill="#DCE0E3" fill-opacity="0.77"/>
<circle cx="157.333" cy="289.01" r="3.43058" transform="rotate(-16.5214 157.333 289.01)" fill="#DCE0E3" fill-opacity="0.77"/>
<circle cx="201.186" cy="276.003" r="3.43058" transform="rotate(-16.5214 201.186 276.003)" fill="#DCE0E3" fill-opacity="0.77"/>
<circle cx="245.038" cy="262.995" r="3.43058" transform="rotate(-16.5214 245.038 262.995)" fill="#DCE0E3" fill-opacity="0.77"/>
<circle cx="288.89" cy="249.988" r="3.43058" transform="rotate(-16.5214 288.89 249.988)" fill="#DCE0E3" fill-opacity="0.77"/>
<circle cx="332.743" cy="236.98" r="3.43058" transform="rotate(-16.5214 332.743 236.98)" fill="#DCE0E3" fill-opacity="0.77"/>
<circle cx="376.596" cy="223.973" r="3.43058" transform="rotate(-16.5214 376.596 223.973)" fill="#DCE0E3" fill-opacity="0.77"/>
<circle cx="82.6366" cy="358.878" r="3.43058" transform="rotate(-16.5214 82.6366 358.878)" fill="#DCE0E3" fill-opacity="0.77"/>
<circle cx="126.489" cy="345.87" r="3.43058" transform="rotate(-16.5214 126.489 345.87)" fill="#DCE0E3" fill-opacity="0.77"/>
<circle cx="170.342" cy="332.863" r="3.43058" transform="rotate(-16.5214 170.342 332.863)" fill="#DCE0E3" fill-opacity="0.77"/>
<circle cx="214.194" cy="319.855" r="3.43058" transform="rotate(-16.5214 214.194 319.855)" fill="#DCE0E3" fill-opacity="0.77"/>
<circle cx="258.047" cy="306.848" r="3.43058" transform="rotate(-16.5214 258.047 306.848)" fill="#DCE0E3" fill-opacity="0.77"/>
<circle cx="301.899" cy="293.84" r="3.43058" transform="rotate(-16.5214 301.899 293.84)" fill="#DCE0E3" fill-opacity="0.77"/>
<circle cx="345.751" cy="280.833" r="3.43058" transform="rotate(-16.5214 345.751 280.833)" fill="#DCE0E3" fill-opacity="0.77"/>
<circle cx="389.604" cy="267.825" r="3.43058" transform="rotate(-16.5214 389.604 267.825)" fill="#DCE0E3" fill-opacity="0.77"/>
<circle cx="95.6434" cy="402.73" r="3.43058" transform="rotate(-16.5214 95.6434 402.73)" fill="#DCE0E3" fill-opacity="0.77"/>
<circle cx="139.496" cy="389.723" r="3.43058" transform="rotate(-16.5214 139.496 389.723)" fill="#DCE0E3" fill-opacity="0.77"/>
<circle cx="183.348" cy="376.715" r="3.43058" transform="rotate(-16.5214 183.348 376.715)" fill="#DCE0E3" fill-opacity="0.77"/>
<circle cx="227.201" cy="363.708" r="3.43058" transform="rotate(-16.5214 227.201 363.708)" fill="#DCE0E3" fill-opacity="0.77"/>
<circle cx="271.054" cy="350.701" r="3.43058" transform="rotate(-16.5214 271.054 350.701)" fill="#DCE0E3" fill-opacity="0.77"/>
<circle cx="314.906" cy="337.693" r="3.43058" transform="rotate(-16.5214 314.906 337.693)" fill="#DCE0E3" fill-opacity="0.77"/>
<circle cx="358.758" cy="324.686" r="3.43058" transform="rotate(-16.5214 358.758 324.686)" fill="#DCE0E3" fill-opacity="0.77"/>
<circle cx="402.611" cy="311.678" r="3.43058" transform="rotate(-16.5214 402.611 311.678)" fill="#DCE0E3" fill-opacity="0.77"/>
</g>
</svg>
