<svg width="89" height="30" viewBox="0 0 89 30" fill="none" xmlns="http://www.w3.org/2000/svg">
<path d="M4.882 16.161C4.882 17.567 5.05467 18.8497 5.4 20.009C5.74533 21.1437 6.23867 22.118 6.88 22.932C7.546 23.7213 8.34767 24.338 9.285 24.782C10.2223 25.226 11.283 25.448 12.467 25.448C13.6263 25.448 14.6747 25.226 15.612 24.782C16.5493 24.338 17.3387 23.7213 17.98 22.932C18.646 22.118 19.1517 21.1437 19.497 20.009C19.8423 18.8497 20.015 17.567 20.015 16.161C20.015 14.755 19.8423 13.4847 19.497 12.35C19.1517 11.1907 18.646 10.2163 17.98 9.427C17.3387 8.613 16.5493 7.984 15.612 7.54C14.6747 7.096 13.6263 6.874 12.467 6.874C11.283 6.874 10.2223 7.096 9.285 7.54C8.34767 7.984 7.546 8.613 6.88 9.427C6.23867 10.241 5.74533 11.2153 5.4 12.35C5.05467 13.4847 4.882 14.755 4.882 16.161ZM24.899 16.161C24.899 18.3563 24.566 20.2927 23.9 21.97C23.2587 23.6473 22.3707 25.0533 21.236 26.188C20.126 27.298 18.8187 28.1367 17.314 28.704C15.8093 29.2713 14.206 29.555 12.504 29.555C10.802 29.555 9.18633 29.2713 7.657 28.704C6.15233 28.1367 4.83267 27.298 3.698 26.188C2.588 25.0533 1.7 23.6473 1.034 21.97C0.368 20.2927 0.0350001 18.3563 0.0350001 16.161C0.0350001 13.9657 0.368 12.0417 1.034 10.389C1.7 8.71167 2.60033 7.30567 3.735 6.171C4.89433 5.03633 6.22633 4.18533 7.731 3.618C9.23567 3.05066 10.8267 2.767 12.504 2.767C14.1813 2.767 15.7723 3.05066 17.277 3.618C18.7817 4.18533 20.089 5.03633 21.199 6.171C22.3337 7.30567 23.234 8.71167 23.9 10.389C24.566 12.0417 24.899 13.9657 24.899 16.161ZM34.2684 17.197C34.8357 16.605 35.44 15.976 36.0814 15.31C36.7227 14.6193 37.3517 13.941 37.9684 13.275C38.585 12.5843 39.1647 11.9307 39.7074 11.314C40.2747 10.6727 40.7557 10.1177 41.1504 9.649H46.4414C45.2081 11.0303 43.9007 12.461 42.5194 13.941C41.1627 15.421 39.7937 16.864 38.4124 18.27C39.1524 18.8867 39.9294 19.639 40.7434 20.527C41.5574 21.3903 42.3467 22.3153 43.1114 23.302C43.8761 24.2887 44.5914 25.2753 45.2574 26.262C45.9234 27.2487 46.4784 28.1613 46.9224 29H41.7424C41.2984 28.2353 40.7804 27.4337 40.1884 26.595C39.621 25.7563 39.0044 24.9423 38.3384 24.153C37.6724 23.3637 36.9941 22.6237 36.3034 21.933C35.6127 21.2177 34.9344 20.6133 34.2684 20.12V29H29.7914V1.028L34.2684 0.287999V17.197ZM66.0433 28.408C65.18 28.63 64.0576 28.852 62.6763 29.074C61.295 29.3207 59.778 29.444 58.1253 29.444C56.5713 29.444 55.264 29.222 54.2033 28.778C53.1673 28.334 52.3286 27.7173 51.6873 26.928C51.0706 26.1387 50.6266 25.2013 50.3553 24.116C50.084 23.006 49.9483 21.7973 49.9483 20.49V9.649H54.4253V19.787C54.4253 21.859 54.7213 23.339 55.3133 24.227C55.93 25.115 56.9906 25.559 58.4953 25.559C59.038 25.559 59.6053 25.5343 60.1973 25.485C60.814 25.4357 61.2703 25.374 61.5663 25.3V9.649H66.0433V28.408ZM76.2186 17.197C76.7859 16.605 77.3902 15.976 78.0316 15.31C78.6729 14.6193 79.3019 13.941 79.9186 13.275C80.5352 12.5843 81.1149 11.9307 81.6576 11.314C82.2249 10.6727 82.7059 10.1177 83.1006 9.649H88.3916C87.1582 11.0303 85.8509 12.461 84.4696 13.941C83.1129 15.421 81.7439 16.864 80.3626 18.27C81.1026 18.8867 81.8796 19.639 82.6936 20.527C83.5076 21.3903 84.2969 22.3153 85.0616 23.302C85.8262 24.2887 86.5416 25.2753 87.2076 26.262C87.8736 27.2487 88.4286 28.1613 88.8726 29H83.6926C83.2486 28.2353 82.7306 27.4337 82.1386 26.595C81.5712 25.7563 80.9546 24.9423 80.2886 24.153C79.6226 23.3637 78.9442 22.6237 78.2536 21.933C77.5629 21.2177 76.8846 20.6133 76.2186 20.12V29H71.7416V1.028L76.2186 0.287999V17.197Z" fill="#DE4A09"/>
</svg>
