<svg width="221" height="220" viewBox="0 0 221 220" fill="none" xmlns="http://www.w3.org/2000/svg">
<g id="Group 1527">
<g id="Group 1519">
<circle id="Ellipse 10" cx="2.58057" cy="2.36036" r="2.30714" fill="#DCE0E3"/>
<circle id="Ellipse 11" cx="33.343" cy="2.36036" r="2.30714" fill="#DCE0E3"/>
<circle id="Ellipse 12" cx="64.1045" cy="2.36036" r="2.30714" fill="#DCE0E3"/>
<circle id="Ellipse 13" cx="94.8665" cy="2.36036" r="2.30714" fill="#DCE0E3"/>
<circle id="Ellipse 14" cx="125.628" cy="2.36036" r="2.30714" fill="#DCE0E3"/>
<circle id="Ellipse 15" cx="156.39" cy="2.36036" r="2.30714" fill="#DCE0E3"/>
<circle id="Ellipse 16" cx="187.152" cy="2.36036" r="2.30714" fill="#DCE0E3"/>
<circle id="Ellipse 17" cx="217.914" cy="2.36036" r="2.30714" fill="#DCE0E3"/>
</g>
<g id="Group 1520">
<circle id="Ellipse 10_2" cx="2.58106" cy="33.1221" r="2.30714" fill="#DCE0E3"/>
<circle id="Ellipse 11_2" cx="33.343" cy="33.1221" r="2.30714" fill="#DCE0E3"/>
<circle id="Ellipse 12_2" cx="64.1045" cy="33.1221" r="2.30714" fill="#DCE0E3"/>
<circle id="Ellipse 13_2" cx="94.8665" cy="33.1221" r="2.30714" fill="#DCE0E3"/>
<circle id="Ellipse 14_2" cx="125.628" cy="33.1221" r="2.30714" fill="#DCE0E3"/>
<circle id="Ellipse 15_2" cx="156.39" cy="33.1221" r="2.30714" fill="#DCE0E3"/>
<circle id="Ellipse 16_2" cx="187.152" cy="33.1221" r="2.30714" fill="#DCE0E3"/>
<circle id="Ellipse 17_2" cx="217.914" cy="33.1221" r="2.30714" fill="#DCE0E3"/>
</g>
<g id="Group 1521">
<circle id="Ellipse 10_3" cx="2.58106" cy="63.8839" r="2.30714" fill="#DCE0E3"/>
<circle id="Ellipse 11_3" cx="33.343" cy="63.8839" r="2.30714" fill="#DCE0E3"/>
<circle id="Ellipse 12_3" cx="64.1045" cy="63.8839" r="2.30714" fill="#DCE0E3"/>
<circle id="Ellipse 13_3" cx="94.8665" cy="63.8839" r="2.30714" fill="#DCE0E3"/>
<circle id="Ellipse 14_3" cx="125.628" cy="63.8839" r="2.30714" fill="#DCE0E3"/>
<circle id="Ellipse 15_3" cx="156.39" cy="63.8839" r="2.30714" fill="#DCE0E3"/>
<circle id="Ellipse 16_3" cx="187.152" cy="63.8839" r="2.30714" fill="#DCE0E3"/>
<circle id="Ellipse 17_3" cx="217.914" cy="63.8839" r="2.30714" fill="#DCE0E3"/>
</g>
<g id="Group 1522">
<circle id="Ellipse 10_4" cx="2.58106" cy="94.6458" r="2.30714" fill="#DCE0E3"/>
<circle id="Ellipse 11_4" cx="33.343" cy="94.6458" r="2.30714" fill="#DCE0E3"/>
<circle id="Ellipse 12_4" cx="64.1045" cy="94.6458" r="2.30714" fill="#DCE0E3"/>
<circle id="Ellipse 13_4" cx="94.8665" cy="94.6458" r="2.30714" fill="#DCE0E3"/>
<circle id="Ellipse 14_4" cx="125.628" cy="94.6458" r="2.30714" fill="#DCE0E3"/>
<circle id="Ellipse 15_4" cx="156.39" cy="94.6458" r="2.30714" fill="#DCE0E3"/>
<circle id="Ellipse 16_4" cx="187.152" cy="94.6458" r="2.30714" fill="#DCE0E3"/>
<circle id="Ellipse 17_4" cx="217.914" cy="94.6458" r="2.30714" fill="#DCE0E3"/>
</g>
<g id="Group 1523">
<circle id="Ellipse 10_5" cx="2.58106" cy="125.408" r="2.30714" fill="#DCE0E3"/>
<circle id="Ellipse 11_5" cx="33.343" cy="125.408" r="2.30714" fill="#DCE0E3"/>
<circle id="Ellipse 12_5" cx="64.1045" cy="125.408" r="2.30714" fill="#DCE0E3"/>
<circle id="Ellipse 13_5" cx="94.8665" cy="125.408" r="2.30714" fill="#DCE0E3"/>
<circle id="Ellipse 14_5" cx="125.628" cy="125.408" r="2.30714" fill="#DCE0E3"/>
<circle id="Ellipse 15_5" cx="156.39" cy="125.408" r="2.30714" fill="#DCE0E3"/>
<circle id="Ellipse 16_5" cx="187.152" cy="125.408" r="2.30714" fill="#DCE0E3"/>
<circle id="Ellipse 17_5" cx="217.914" cy="125.408" r="2.30714" fill="#DCE0E3"/>
</g>
<g id="Group 1524">
<circle id="Ellipse 10_6" cx="2.58106" cy="156.169" r="2.30714" fill="#DCE0E3"/>
<circle id="Ellipse 11_6" cx="33.343" cy="156.169" r="2.30714" fill="#DCE0E3"/>
<circle id="Ellipse 12_6" cx="64.1045" cy="156.169" r="2.30714" fill="#DCE0E3"/>
<circle id="Ellipse 13_6" cx="94.8665" cy="156.169" r="2.30714" fill="#DCE0E3"/>
<circle id="Ellipse 14_6" cx="125.628" cy="156.169" r="2.30714" fill="#DCE0E3"/>
<circle id="Ellipse 15_6" cx="156.39" cy="156.169" r="2.30714" fill="#DCE0E3"/>
<circle id="Ellipse 16_6" cx="187.152" cy="156.169" r="2.30714" fill="#DCE0E3"/>
<circle id="Ellipse 17_6" cx="217.914" cy="156.169" r="2.30714" fill="#DCE0E3"/>
</g>
<g id="Group 1525">
<circle id="Ellipse 10_7" cx="2.58106" cy="186.931" r="2.30714" fill="#DCE0E3"/>
<circle id="Ellipse 11_7" cx="33.343" cy="186.931" r="2.30714" fill="#DCE0E3"/>
<circle id="Ellipse 12_7" cx="64.1045" cy="186.931" r="2.30714" fill="#DCE0E3"/>
<circle id="Ellipse 13_7" cx="94.8665" cy="186.931" r="2.30714" fill="#DCE0E3"/>
<circle id="Ellipse 14_7" cx="125.628" cy="186.931" r="2.30714" fill="#DCE0E3"/>
<circle id="Ellipse 15_7" cx="156.39" cy="186.931" r="2.30714" fill="#DCE0E3"/>
<circle id="Ellipse 16_7" cx="187.152" cy="186.931" r="2.30714" fill="#DCE0E3"/>
<circle id="Ellipse 17_7" cx="217.914" cy="186.931" r="2.30714" fill="#DCE0E3"/>
</g>
<g id="Group 1526">
<circle id="Ellipse 10_8" cx="2.58106" cy="217.693" r="2.30714" fill="#DCE0E3"/>
<circle id="Ellipse 11_8" cx="33.343" cy="217.693" r="2.30714" fill="#DCE0E3"/>
<circle id="Ellipse 12_8" cx="64.1045" cy="217.693" r="2.30714" fill="#DCE0E3"/>
<circle id="Ellipse 13_8" cx="94.8665" cy="217.693" r="2.30714" fill="#DCE0E3"/>
<circle id="Ellipse 14_8" cx="125.628" cy="217.693" r="2.30714" fill="#DCE0E3"/>
<circle id="Ellipse 15_8" cx="156.39" cy="217.693" r="2.30714" fill="#DCE0E3"/>
<circle id="Ellipse 16_8" cx="187.152" cy="217.693" r="2.30714" fill="#DCE0E3"/>
<circle id="Ellipse 17_8" cx="217.914" cy="217.693" r="2.30714" fill="#DCE0E3"/>
</g>
</g>
</svg>
