<svg width="24" height="24" viewBox="0 0 24 24" fill="none" xmlns="http://www.w3.org/2000/svg">
<g clip-path="url(#clip0)">
<path d="M18.5898 24.0001C18.6928 24.0001 23.3518 23.9991 23.2498 23.9991C23.6638 23.9991 23.9998 23.6631 23.9998 23.2491C23.6498 15.3921 25.8418 7.10107 17.6618 7.10107C16.0888 7.10107 14.8358 7.63807 13.9328 8.34807C13.9328 6.88707 12.3538 7.69507 8.70882 7.47807C8.29482 7.47807 7.95882 7.81407 7.95882 8.22807C8.26082 22.3941 7.28482 23.9991 8.70882 23.9991H13.3688C14.7218 23.9991 13.8608 22.0911 14.1188 15.8111C14.1188 13.2171 14.8688 12.7091 16.1648 12.7091C17.5988 12.7091 17.8398 13.7051 17.8398 15.9371C18.0968 22.1041 17.2418 24.0001 18.5898 24.0001ZM16.1648 11.2091C11.6738 11.2091 12.6188 16.1471 12.6188 22.4991H9.45882V8.97807H12.4328V10.2761C12.4328 10.9961 13.5298 11.3501 13.9118 10.6261C14.4038 9.69208 15.6818 8.60107 17.6618 8.60107C21.1888 8.60107 22.4998 10.3341 22.4998 14.9971V22.5001H19.3398C19.3398 15.3561 20.0958 11.2091 16.1648 11.2091Z" fill="white"/>
<path d="M1.12199 7.47896C-0.298008 7.47896 0.673992 9.06396 0.371992 23.25C0.371992 23.664 0.707992 24 1.12199 24H5.78699C7.20699 24 6.23499 22.415 6.53699 8.22896C6.53699 6.93396 4.65599 7.69796 1.12199 7.47896ZM5.03699 22.5H1.87199V8.97896H5.03699V22.5Z" fill="white"/>
<path d="M3.45203 0C-1.12397 0 -1.09597 6.929 3.45203 6.929C7.99703 6.929 8.03303 0 3.45203 0ZM3.45203 5.429C0.884026 5.429 0.860026 1.5 3.45203 1.5C6.04903 1.5 6.01603 5.429 3.45203 5.429Z" fill="white"/>
</g>
<defs>
<clipPath id="clip0">
<rect width="24" height="24" fill="white"/>
</clipPath>
</defs>
</svg>
