<svg width="56" height="56" viewBox="0 0 56 56" fill="none" xmlns="http://www.w3.org/2000/svg">
<rect width="56" height="56" rx="4" fill="#4AB4EF"/>
<path opacity="0.1" d="M47.6537 27.8937C47.6537 27.0644 47.5996 26.2481 47.505 25.4441L38.5064 16.4455C38.4761 16.4109 38.4415 16.3763 38.4069 16.346C38.182 16.1298 37.8836 16 37.5506 16H19.4029C18.8536 16 18.3951 16.3589 18.2308 16.852L16.6825 16H15V38.3602L25.2205 48.5808C25.773 48.6249 26.3299 48.6537 26.8937 48.6537C38.3592 48.6537 47.6537 39.3592 47.6537 27.8937Z" fill="black"/>
<path d="M25.5945 37.7883H20.75V39.7874H25.5945V37.7883Z" fill="#3A556A"/>
<path d="M36.2019 37.7881H31.3574V39.7871H36.2019V37.7881Z" fill="#3A556A"/>
<path d="M37.5521 16H19.4018C18.7194 16 18.166 16.5512 18.166 17.2311V37.1287C18.166 37.8086 18.7194 38.3599 19.4018 38.3599H37.5521C38.2347 38.3599 38.788 37.8087 38.788 37.1287V17.2311C38.788 16.5512 38.2347 16 37.5521 16Z" fill="#64798A"/>
<path d="M36.962 17.8162H19.9863V36.5437H36.962V17.8162Z" fill="#3A556A"/>
<path d="M16.6832 16H15V38.3598H16.6832L19.9884 36.5435V17.8162L16.6832 16Z" fill="#2F4859"/>
<path d="M16.6833 16H15V38.3599H16.6833V16Z" fill="#64798A"/>
<path d="M15.841 19.2661C16.1475 19.2661 16.3959 19.0186 16.3959 18.7133C16.3959 18.4081 16.1475 18.1606 15.841 18.1606C15.5346 18.1606 15.2861 18.4081 15.2861 18.7133C15.2861 19.0186 15.5346 19.2661 15.841 19.2661Z" fill="#2F4859"/>
<path d="M15.841 24.9106C16.1475 24.9106 16.3959 24.6631 16.3959 24.3579C16.3959 24.0526 16.1475 23.8052 15.841 23.8052C15.5346 23.8052 15.2861 24.0526 15.2861 24.3579C15.2861 24.6631 15.5346 24.9106 15.841 24.9106Z" fill="#2F4859"/>
<path d="M15.841 30.5549C16.1475 30.5549 16.3959 30.3074 16.3959 30.0022C16.3959 29.6969 16.1475 29.4495 15.841 29.4495C15.5346 29.4495 15.2861 29.6969 15.2861 30.0022C15.2861 30.3074 15.5346 30.5549 15.841 30.5549Z" fill="#2F4859"/>
<path d="M15.841 36.1994C16.1475 36.1994 16.3959 35.9519 16.3959 35.6467C16.3959 35.3414 16.1475 35.094 15.841 35.094C15.5346 35.094 15.2861 35.3414 15.2861 35.6467C15.2861 35.9519 15.5346 36.1994 15.841 36.1994Z" fill="#2F4859"/>
<path d="M27.5369 35.4016H20.415V36.4915H27.5369V35.4016Z" fill="#3EA69B"/>
<path d="M27.5369 36.3926H20.415V36.4925H27.5369V36.3926Z" fill="#44C4A1"/>
<path d="M27.5369 36.1763H20.415V36.2762H27.5369V36.1763Z" fill="#44C4A1"/>
<path d="M27.5369 35.9558H20.415V36.0557H27.5369V35.9558Z" fill="#44C4A1"/>
<path d="M27.5369 35.7395H20.415V35.8394H27.5369V35.7395Z" fill="#44C4A1"/>
<path d="M27.5369 35.5234H20.415V35.6234H27.5369V35.5234Z" fill="#44C4A1"/>
<path d="M24.7019 35.4016H23.25V36.4915H24.7019V35.4016Z" fill="white"/>
<path d="M23.4348 35.4016H23.3457V36.4915H23.4348V35.4016Z" fill="#FCD462"/>
<path d="M24.6067 35.4016H24.5176V36.4915H24.6067V35.4016Z" fill="#FCD462"/>
<path d="M27.9041 34.312H20.7822V35.4019H27.9041V34.312Z" fill="#3EA69B"/>
<path d="M27.9041 35.303H20.7822V35.4029H27.9041V35.303Z" fill="#44C4A1"/>
<path d="M27.9041 35.0867H20.7822V35.1866H27.9041V35.0867Z" fill="#44C4A1"/>
<path d="M27.9041 34.8652H20.7822V34.9652H27.9041V34.8652Z" fill="#44C4A1"/>
<path d="M27.9041 34.6492H20.7822V34.7491H27.9041V34.6492Z" fill="#44C4A1"/>
<path d="M27.9041 34.4329H20.7822V34.5328H27.9041V34.4329Z" fill="#44C4A1"/>
<path d="M25.0672 34.312H23.6152V35.4019H25.0672V34.312Z" fill="white"/>
<path d="M23.802 34.312H23.7129V35.4019H23.802V34.312Z" fill="#FCD462"/>
<path d="M24.971 34.312H24.8818V35.4019H24.971V34.312Z" fill="#FCD462"/>
<path d="M27.2742 33.2224H20.1523V34.3123H27.2742V33.2224Z" fill="#3EA69B"/>
<path d="M27.2742 34.2124H20.1523V34.3123H27.2742V34.2124Z" fill="#44C4A1"/>
<path d="M27.2742 33.9961H20.1523V34.096H27.2742V33.9961Z" fill="#44C4A1"/>
<path d="M27.2742 33.7756H20.1523V33.8756H27.2742V33.7756Z" fill="#44C4A1"/>
<path d="M27.2742 33.5593H20.1523V33.6593H27.2742V33.5593Z" fill="#44C4A1"/>
<path d="M27.2742 33.343H20.1523V33.4429H27.2742V33.343Z" fill="#44C4A1"/>
<path d="M24.4392 33.2224H22.9873V34.3123H24.4392V33.2224Z" fill="white"/>
<path d="M23.1721 33.2224H23.083V34.3123H23.1721V33.2224Z" fill="#FCD462"/>
<path d="M24.343 33.2224H24.2539V34.3123H24.343V33.2224Z" fill="#FCD462"/>
<path d="M27.9041 32.1326H20.7822V33.2224H27.9041V32.1326Z" fill="#3EA69B"/>
<path d="M27.9041 33.1226H20.7822V33.2225H27.9041V33.1226Z" fill="#44C4A1"/>
<path d="M27.9041 32.9065H20.7822V33.0064H27.9041V32.9065Z" fill="#44C4A1"/>
<path d="M27.9041 32.686H20.7822V32.786H27.9041V32.686Z" fill="#44C4A1"/>
<path d="M27.9041 32.4697H20.7822V32.5697H27.9041V32.4697Z" fill="#44C4A1"/>
<path d="M27.9041 32.2534H20.7822V32.3534H27.9041V32.2534Z" fill="#44C4A1"/>
<path d="M25.0672 32.1326H23.6152V33.2224H25.0672V32.1326Z" fill="white"/>
<path d="M23.802 32.1326H23.7129V33.2224H23.802V32.1326Z" fill="#FCD462"/>
<path d="M24.971 32.1326H24.8818V33.2224H24.971V32.1326Z" fill="#FCD462"/>
<path d="M27.4344 31.042H20.3125V32.1319H27.4344V31.042Z" fill="#3EA69B"/>
<path d="M27.4344 32.033H20.3125V32.1329H27.4344V32.033Z" fill="#44C4A1"/>
<path d="M27.4344 31.8167H20.3125V31.9166H27.4344V31.8167Z" fill="#44C4A1"/>
<path d="M27.4344 31.6003H20.3125V31.7003H27.4344V31.6003Z" fill="#44C4A1"/>
<path d="M27.4344 31.3799H20.3125V31.4798H27.4344V31.3799Z" fill="#44C4A1"/>
<path d="M27.4344 31.1638H20.3125V31.2638H27.4344V31.1638Z" fill="#44C4A1"/>
<path d="M24.6004 31.042H23.1484V32.1319H24.6004V31.042Z" fill="white"/>
<path d="M23.3323 31.042H23.2432V32.1319H23.3323V31.042Z" fill="#FCD462"/>
<path d="M24.5051 31.042H24.416V32.1319H24.5051V31.042Z" fill="#FCD462"/>
<path d="M28.4442 29.9531H21.3223V31.043H28.4442V29.9531Z" fill="#3EA69B"/>
<path d="M28.4442 30.9434H21.3223V31.0433H28.4442V30.9434Z" fill="#44C4A1"/>
<path d="M28.4442 30.7271H21.3223V30.827H28.4442V30.7271Z" fill="#44C4A1"/>
<path d="M28.4442 30.5107H21.3223V30.6107H28.4442V30.5107Z" fill="#44C4A1"/>
<path d="M28.4442 30.2896H21.3223V30.3895H28.4442V30.2896Z" fill="#44C4A1"/>
<path d="M28.4442 30.0732H21.3223V30.1732H28.4442V30.0732Z" fill="#44C4A1"/>
<path d="M25.6101 29.9531H24.1582V31.043H25.6101V29.9531Z" fill="white"/>
<path d="M24.343 29.9536H24.2539V31.0435H24.343V29.9536Z" fill="#FCD462"/>
<path d="M25.5149 29.9534H25.4258V31.0432H25.5149V29.9534Z" fill="#FCD462"/>
<path d="M35.8758 35.4016H28.7539V36.4915H35.8758V35.4016Z" fill="#3EA69B"/>
<path d="M35.8758 36.3926H28.7539V36.4925H35.8758V36.3926Z" fill="#44C4A1"/>
<path d="M35.8758 36.1763H28.7539V36.2762H35.8758V36.1763Z" fill="#44C4A1"/>
<path d="M35.8758 35.9558H28.7539V36.0557H35.8758V35.9558Z" fill="#44C4A1"/>
<path d="M35.8758 35.7395H28.7539V35.8394H35.8758V35.7395Z" fill="#44C4A1"/>
<path d="M35.8758 35.5234H28.7539V35.6234H35.8758V35.5234Z" fill="#44C4A1"/>
<path d="M33.0388 35.4016H31.5869V36.4915H33.0388V35.4016Z" fill="white"/>
<path d="M31.7708 35.4016H31.6816V36.4915H31.7708V35.4016Z" fill="#FCD462"/>
<path d="M32.9436 35.4016H32.8545V36.4915H32.9436V35.4016Z" fill="#FCD462"/>
<path d="M36.243 34.312H29.1211V35.4019H36.243V34.312Z" fill="#3EA69B"/>
<path d="M36.243 35.303H29.1211V35.4029H36.243V35.303Z" fill="#44C4A1"/>
<path d="M36.243 35.0867H29.1211V35.1866H36.243V35.0867Z" fill="#44C4A1"/>
<path d="M36.243 34.8652H29.1211V34.9652H36.243V34.8652Z" fill="#44C4A1"/>
<path d="M36.243 34.6492H29.1211V34.7491H36.243V34.6492Z" fill="#44C4A1"/>
<path d="M36.243 34.4329H29.1211V34.5328H36.243V34.4329Z" fill="#44C4A1"/>
<path d="M33.405 34.312H31.9531V35.4019H33.405V34.312Z" fill="white"/>
<path d="M32.1389 34.312H32.0498V35.4019H32.1389V34.312Z" fill="#FCD462"/>
<path d="M33.3108 34.312H33.2217V35.4019H33.3108V34.312Z" fill="#FCD462"/>
<path d="M35.6102 33.2224H28.4883V34.3123H35.6102V33.2224Z" fill="#3EA69B"/>
<path d="M35.6102 34.2124H28.4883V34.3123H35.6102V34.2124Z" fill="#44C4A1"/>
<path d="M35.6102 33.9961H28.4883V34.096H35.6102V33.9961Z" fill="#44C4A1"/>
<path d="M35.6102 33.7756H28.4883V33.8756H35.6102V33.7756Z" fill="#44C4A1"/>
<path d="M35.6102 33.5593H28.4883V33.6593H35.6102V33.5593Z" fill="#44C4A1"/>
<path d="M35.6102 33.343H28.4883V33.4429H35.6102V33.343Z" fill="#44C4A1"/>
<path d="M32.7742 33.2224H31.3223V34.3123H32.7742V33.2224Z" fill="white"/>
<path d="M31.5061 33.2224H31.417V34.3123H31.5061V33.2224Z" fill="#FCD462"/>
<path d="M32.679 33.2224H32.5898V34.3123H32.679V33.2224Z" fill="#FCD462"/>
<path d="M36.243 32.1326H29.1211V33.2224H36.243V32.1326Z" fill="#3EA69B"/>
<path d="M36.243 33.1226H29.1211V33.2225H36.243V33.1226Z" fill="#44C4A1"/>
<path d="M36.243 32.9065H29.1211V33.0064H36.243V32.9065Z" fill="#44C4A1"/>
<path d="M36.243 32.686H29.1211V32.786H36.243V32.686Z" fill="#44C4A1"/>
<path d="M36.243 32.4697H29.1211V32.5697H36.243V32.4697Z" fill="#44C4A1"/>
<path d="M36.243 32.2534H29.1211V32.3534H36.243V32.2534Z" fill="#44C4A1"/>
<path d="M33.405 32.1326H31.9531V33.2224H33.405V32.1326Z" fill="white"/>
<path d="M32.1389 32.1326H32.0498V33.2224H32.1389V32.1326Z" fill="#FCD462"/>
<path d="M33.3108 32.1326H33.2217V33.2224H33.3108V32.1326Z" fill="#FCD462"/>
<path d="M35.7723 31.042H28.6504V32.1319H35.7723V31.042Z" fill="#3EA69B"/>
<path d="M35.7723 32.033H28.6504V32.1329H35.7723V32.033Z" fill="#44C4A1"/>
<path d="M35.7723 31.8167H28.6504V31.9166H35.7723V31.8167Z" fill="#44C4A1"/>
<path d="M35.7723 31.6003H28.6504V31.7003H35.7723V31.6003Z" fill="#44C4A1"/>
<path d="M35.7723 31.3799H28.6504V31.4798H35.7723V31.3799Z" fill="#44C4A1"/>
<path d="M35.7723 31.1638H28.6504V31.2638H35.7723V31.1638Z" fill="#44C4A1"/>
<path d="M32.9343 31.042H31.4824V32.1319H32.9343V31.042Z" fill="white"/>
<path d="M31.6682 31.042H31.5791V32.1319H31.6682V31.042Z" fill="#FCD462"/>
<path d="M32.8381 31.042H32.749V32.1319H32.8381V31.042Z" fill="#FCD462"/>
<path d="M36.784 29.9531H29.6621V31.043H36.784V29.9531Z" fill="#3EA69B"/>
<path d="M36.784 30.9434H29.6621V31.0433H36.784V30.9434Z" fill="#44C4A1"/>
<path d="M36.784 30.7271H29.6621V30.827H36.784V30.7271Z" fill="#44C4A1"/>
<path d="M36.784 30.5107H29.6621V30.6107H36.784V30.5107Z" fill="#44C4A1"/>
<path d="M36.784 30.2896H29.6621V30.3895H36.784V30.2896Z" fill="#44C4A1"/>
<path d="M36.784 30.0732H29.6621V30.1732H36.784V30.0732Z" fill="#44C4A1"/>
<path d="M33.947 29.9531H32.4951V31.043H33.947V29.9531Z" fill="white"/>
<path d="M32.679 29.9536H32.5898V31.0435H32.679V29.9536Z" fill="#FCD462"/>
<path d="M33.8518 29.9534H33.7627V31.0432H33.8518V29.9534Z" fill="#FCD462"/>
<path d="M35.0233 28.8628H27.9014V29.9527H35.0233V28.8628Z" fill="#3EA69B"/>
<path d="M35.0233 29.8528H27.9014V29.9527H35.0233V29.8528Z" fill="#44C4A1"/>
<path d="M35.0233 29.6365H27.9014V29.7364H35.0233V29.6365Z" fill="#44C4A1"/>
<path d="M35.0233 29.4202H27.9014V29.5201H35.0233V29.4202Z" fill="#44C4A1"/>
<path d="M35.0233 29.1997H27.9014V29.2996H35.0233V29.1997Z" fill="#44C4A1"/>
<path d="M35.0233 28.9834H27.9014V29.0833H35.0233V28.9834Z" fill="#44C4A1"/>
<path d="M32.1892 28.8628H30.7373V29.9527H32.1892V28.8628Z" fill="white"/>
<path d="M30.9231 28.8625H30.834V29.9524H30.9231V28.8625Z" fill="#FCD462"/>
<path d="M32.093 28.8625H32.0039V29.9524H32.093V28.8625Z" fill="#FCD462"/>
<path d="M35.8758 27.7739H28.7539V28.8638H35.8758V27.7739Z" fill="#3EA69B"/>
<path d="M35.8758 28.7629H28.7539V28.8629H35.8758V28.7629Z" fill="#44C4A1"/>
<path d="M35.8758 28.5469H28.7539V28.6468H35.8758V28.5469Z" fill="#44C4A1"/>
<path d="M35.8758 28.3306H28.7539V28.4305H35.8758V28.3306Z" fill="#44C4A1"/>
<path d="M35.8758 28.1101H28.7539V28.21H35.8758V28.1101Z" fill="#44C4A1"/>
<path d="M35.8758 27.8938H28.7539V27.9937H35.8758V27.8938Z" fill="#44C4A1"/>
<path d="M33.0388 27.7739H31.5869V28.8638H33.0388V27.7739Z" fill="white"/>
<path d="M31.7708 27.7739H31.6816V28.8638H31.7708V27.7739Z" fill="#FCD462"/>
<path d="M32.9426 27.7739H32.8535V28.8638H32.9426V27.7739Z" fill="#FCD462"/>
<path d="M36.784 26.6824H29.6621V27.7722H36.784V26.6824Z" fill="#3EA69B"/>
<path d="M36.784 27.6733H29.6621V27.7733H36.784V27.6733Z" fill="#44C4A1"/>
<path d="M36.784 27.457H29.6621V27.557H36.784V27.457Z" fill="#44C4A1"/>
<path d="M36.784 27.2407H29.6621V27.3407H36.784V27.2407Z" fill="#44C4A1"/>
<path d="M36.784 27.022H29.6621V27.1219H36.784V27.022Z" fill="#44C4A1"/>
<path d="M36.784 26.8042H29.6621V26.9041H36.784V26.8042Z" fill="#44C4A1"/>
<path d="M33.947 26.6824H32.4951V27.7722H33.947V26.6824Z" fill="white"/>
<path d="M32.679 26.6824H32.5898V27.7722H32.679V26.6824Z" fill="#FCD462"/>
<path d="M33.8518 26.6824H33.7627V27.7722H33.8518V26.6824Z" fill="#FCD462"/>
<path d="M35.3348 25.5945H28.2129V26.6843H35.3348V25.5945Z" fill="#3EA69B"/>
<path d="M35.3348 26.5845H28.2129V26.6844H35.3348V26.5845Z" fill="#44C4A1"/>
<path d="M35.3348 26.3674H28.2129V26.4674H35.3348V26.3674Z" fill="#44C4A1"/>
<path d="M35.3348 26.1494H28.2129V26.2493H35.3348V26.1494Z" fill="#44C4A1"/>
<path d="M35.3348 25.9297H28.2129V26.0296H35.3348V25.9297Z" fill="#44C4A1"/>
<path d="M35.3348 25.7153H28.2129V25.8153H35.3348V25.7153Z" fill="#44C4A1"/>
<path d="M32.4978 25.5945H31.0459V26.6843H32.4978V25.5945Z" fill="white"/>
<path d="M31.2297 25.5947H31.1406V26.6846H31.2297V25.5947Z" fill="#FCD462"/>
<path d="M32.4016 25.5945H32.3125V26.6843H32.4016V25.5945Z" fill="#FCD462"/>
</svg>
