<svg width="56" height="56" viewBox="0 0 56 56" fill="none" xmlns="http://www.w3.org/2000/svg">
<rect width="56" height="56" rx="4" fill="#4AB4EF"/>
<path opacity="0.1" d="M47.6537 27.8937C47.6537 27.0644 47.5996 26.2481 47.505 25.4441L38.5064 16.4455C38.4761 16.4109 38.4415 16.3763 38.4069 16.346C38.182 16.1298 37.8836 16 37.5506 16H19.4029C18.8536 16 18.3951 16.3589 18.2308 16.852L16.6825 16H15V38.3602L25.2205 48.5808C25.773 48.6249 26.3299 48.6537 26.8937 48.6537C38.3592 48.6537 47.6537 39.3592 47.6537 27.8937Z" fill="black"/>
<path d="M25.5945 37.7883H20.75V39.7874H25.5945V37.7883Z" fill="#3A556A"/>
<path d="M36.2019 37.7881H31.3574V39.7871H36.2019V37.7881Z" fill="#3A556A"/>
<path d="M37.5521 16H19.4018C18.7194 16 18.166 16.5512 18.166 17.2311V37.1287C18.166 37.8086 18.7194 38.3599 19.4018 38.3599H37.5521C38.2347 38.3599 38.788 37.8087 38.788 37.1287V17.2311C38.788 16.5512 38.2347 16 37.5521 16Z" fill="#64798A"/>
<path d="M36.962 17.8162H19.9863V36.5437H36.962V17.8162Z" fill="#3A556A"/>
<path d="M16.6832 16H15V38.3598H16.6832L19.9884 36.5435V17.8162L16.6832 16Z" fill="#2F4859"/>
<path d="M16.6833 16H15V38.3599H16.6833V16Z" fill="#64798A"/>
<path d="M15.841 19.2661C16.1475 19.2661 16.3959 19.0186 16.3959 18.7133C16.3959 18.4081 16.1475 18.1606 15.841 18.1606C15.5346 18.1606 15.2861 18.4081 15.2861 18.7133C15.2861 19.0186 15.5346 19.2661 15.841 19.2661Z" fill="#2F4859"/>
<path d="M15.841 24.9106C16.1475 24.9106 16.3959 24.6631 16.3959 24.3579C16.3959 24.0526 16.1475 23.8052 15.841 23.8052C15.5346 23.8052 15.2861 24.0526 15.2861 24.3579C15.2861 24.6631 15.5346 24.9106 15.841 24.9106Z" fill="#2F4859"/>
<path d="M15.841 30.5549C16.1475 30.5549 16.3959 30.3074 16.3959 30.0022C16.3959 29.6969 16.1475 29.4495 15.841 29.4495C15.5346 29.4495 15.2861 29.6969 15.2861 30.0022C15.2861 30.3074 15.5346 30.5549 15.841 30.5549Z" fill="#2F4859"/>
<path d="M15.841 36.1994C16.1475 36.1994 16.3959 35.9519 16.3959 35.6467C16.3959 35.3414 16.1475 35.094 15.841 35.094C15.5346 35.094 15.2861 35.3414 15.2861 35.6467C15.2861 35.9519 15.5346 36.1994 15.841 36.1994Z" fill="#2F4859"/>
<path d="M27.5106 29.7581H20.3887V30.8479H27.5106V29.7581Z" fill="#3EA69B"/>
<path d="M27.5106 30.748H20.3887V30.848H27.5106V30.748Z" fill="#44C4A1"/>
<path d="M27.5106 30.532H20.3887V30.6319H27.5106V30.532Z" fill="#44C4A1"/>
<path d="M27.5106 30.3157H20.3887V30.4156H27.5106V30.3157Z" fill="#44C4A1"/>
<path d="M27.5106 30.0952H20.3887V30.1951H27.5106V30.0952Z" fill="#44C4A1"/>
<path d="M27.5106 29.8789H20.3887V29.9788H27.5106V29.8789Z" fill="#44C4A1"/>
<path d="M24.6746 29.7581H23.2227V30.8479H24.6746V29.7581Z" fill="white"/>
<path d="M23.4075 29.7583H23.3184V30.8482H23.4075V29.7583Z" fill="#FCD462"/>
<path d="M24.5774 29.7581H24.4883V30.8479H24.5774V29.7581Z" fill="#FCD462"/>
<path d="M27.8768 28.6692H20.7549V29.7591H27.8768V28.6692Z" fill="#3EA69B"/>
<path d="M27.8768 29.6584H20.7549V29.7584H27.8768V29.6584Z" fill="#44C4A1"/>
<path d="M27.8768 29.4421H20.7549V29.5421H27.8768V29.4421Z" fill="#44C4A1"/>
<path d="M27.8768 29.2258H20.7549V29.3258H27.8768V29.2258Z" fill="#44C4A1"/>
<path d="M27.8768 29.0071H20.7549V29.107H27.8768V29.0071Z" fill="#44C4A1"/>
<path d="M27.8768 28.7891H20.7549V28.889H27.8768V28.7891Z" fill="#44C4A1"/>
<path d="M25.0408 28.6692H23.5889V29.7591H25.0408V28.6692Z" fill="white"/>
<path d="M23.7747 28.6694H23.6855V29.7593H23.7747V28.6694Z" fill="#FCD462"/>
<path d="M24.9465 28.6692H24.8574V29.7591H24.9465V28.6692Z" fill="#FCD462"/>
<path d="M27.2469 27.5779H20.125V28.6677H27.2469V27.5779Z" fill="#3EA69B"/>
<path d="M27.2469 28.5696H20.125V28.6695H27.2469V28.5696Z" fill="#44C4A1"/>
<path d="M27.2469 28.3525H20.125V28.4525H27.2469V28.3525Z" fill="#44C4A1"/>
<path d="M27.2469 28.1345H20.125V28.2345H27.2469V28.1345Z" fill="#44C4A1"/>
<path d="M27.2469 27.9158H20.125V28.0157H27.2469V27.9158Z" fill="#44C4A1"/>
<path d="M27.2469 27.6995H20.125V27.7994H27.2469V27.6995Z" fill="#44C4A1"/>
<path d="M24.4119 27.5779H22.96V28.6677H24.4119V27.5779Z" fill="white"/>
<path d="M23.1467 27.5779H23.0576V28.6677H23.1467V27.5779Z" fill="#FCD462"/>
<path d="M24.3157 27.5779H24.2266V28.6677H24.3157V27.5779Z" fill="#FCD462"/>
<path d="M27.8768 26.4897H20.7549V27.5796H27.8768V26.4897Z" fill="#3EA69B"/>
<path d="M27.8768 27.4783H20.7549V27.5782H27.8768V27.4783Z" fill="#44C4A1"/>
<path d="M27.8768 27.262H20.7549V27.3619H27.8768V27.262Z" fill="#44C4A1"/>
<path d="M27.8768 27.0457H20.7549V27.1456H27.8768V27.0457Z" fill="#44C4A1"/>
<path d="M27.8768 26.8269H20.7549V26.9268H27.8768V26.8269Z" fill="#44C4A1"/>
<path d="M27.8768 26.6089H20.7549V26.7088H27.8768V26.6089Z" fill="#44C4A1"/>
<path d="M25.0408 26.4897H23.5889V27.5796H25.0408V26.4897Z" fill="white"/>
<path d="M23.7747 26.4897H23.6855V27.5796H23.7747V26.4897Z" fill="#FCD462"/>
<path d="M24.9465 26.4897H24.8574V27.5796H24.9465V26.4897Z" fill="#FCD462"/>
<path d="M27.407 25.3984H20.2852V26.4883H27.407V25.3984Z" fill="#3EA69B"/>
<path d="M27.407 26.3901H20.2852V26.4901H27.407V26.3901Z" fill="#44C4A1"/>
<path d="M27.407 26.1721H20.2852V26.2721H27.407V26.1721Z" fill="#44C4A1"/>
<path d="M27.407 25.9551H20.2852V26.055H27.407V25.9551Z" fill="#44C4A1"/>
<path d="M27.407 25.7356H20.2852V25.8355H27.407V25.7356Z" fill="#44C4A1"/>
<path d="M27.407 25.52H20.2852V25.62H27.407V25.52Z" fill="#44C4A1"/>
<path d="M24.5701 25.3984H23.1182V26.4883H24.5701V25.3984Z" fill="white"/>
<path d="M23.304 25.3987H23.2148V26.4885H23.304V25.3987Z" fill="#FCD462"/>
<path d="M24.4739 25.3984H24.3848V26.4883H24.4739V25.3984Z" fill="#FCD462"/>
<path d="M28.4197 24.3105H21.2979V25.4004H28.4197V24.3105Z" fill="#3EA69B"/>
<path d="M28.4197 25.2988H21.2979V25.3988H28.4197V25.2988Z" fill="#44C4A1"/>
<path d="M28.4197 25.0835H21.2979V25.1834H28.4197V25.0835Z" fill="#44C4A1"/>
<path d="M28.4197 24.8655H21.2979V24.9654H28.4197V24.8655Z" fill="#44C4A1"/>
<path d="M28.4197 24.6475H21.2979V24.7474H28.4197V24.6475Z" fill="#44C4A1"/>
<path d="M28.4197 24.4304H21.2979V24.5304H28.4197V24.4304Z" fill="#44C4A1"/>
<path d="M25.5828 24.3105H24.1309V25.4004H25.5828V24.3105Z" fill="white"/>
<path d="M24.3157 24.3108H24.2266V25.4007H24.3157V24.3108Z" fill="#FCD462"/>
<path d="M25.4866 24.3105H25.3975V25.4004H25.4866V24.3105Z" fill="#FCD462"/>
<path d="M35.6502 29.6584H28.5283V30.7483H35.6502V29.6584Z" fill="#3EA69B"/>
<path d="M35.6502 30.6484H28.5283V30.7484H35.6502V30.6484Z" fill="#44C4A1"/>
<path d="M35.6502 30.4314H28.5283V30.5313H35.6502V30.4314Z" fill="#44C4A1"/>
<path d="M35.6502 30.2158H28.5283V30.3158H35.6502V30.2158Z" fill="#44C4A1"/>
<path d="M35.6502 29.9971H28.5283V30.097H35.6502V29.9971Z" fill="#44C4A1"/>
<path d="M35.6502 29.7793H28.5283V29.8792H35.6502V29.7793Z" fill="#44C4A1"/>
<path d="M32.8132 29.6584H31.3613V30.7483H32.8132V29.6584Z" fill="white"/>
<path d="M31.5501 29.6584H31.4609V30.7483H31.5501V29.6584Z" fill="#FCD462"/>
<path d="M32.717 29.6584H32.6279V30.7483H32.717V29.6584Z" fill="#FCD462"/>
<path d="M36.0164 28.5696H28.8945V29.6594H36.0164V28.5696Z" fill="#3EA69B"/>
<path d="M36.0164 29.5596H28.8945V29.6595H36.0164V29.5596Z" fill="#44C4A1"/>
<path d="M36.0164 29.3425H28.8945V29.4425H36.0164V29.3425Z" fill="#44C4A1"/>
<path d="M36.0164 29.1245H28.8945V29.2244H36.0164V29.1245Z" fill="#44C4A1"/>
<path d="M36.0164 28.9058H28.8945V29.0057H36.0164V28.9058Z" fill="#44C4A1"/>
<path d="M36.0164 28.6895H28.8945V28.7894H36.0164V28.6895Z" fill="#44C4A1"/>
<path d="M33.1804 28.5696H31.7285V29.6594H33.1804V28.5696Z" fill="white"/>
<path d="M31.9133 28.5696H31.8242V29.6594H31.9133V28.5696Z" fill="#FCD462"/>
<path d="M33.0852 28.5696H32.9961V29.6594H33.0852V28.5696Z" fill="#FCD462"/>
<path d="M35.3865 27.4783H28.2646V28.5681H35.3865V27.4783Z" fill="#3EA69B"/>
<path d="M35.3865 28.469H28.2646V28.5689H35.3865V28.469Z" fill="#44C4A1"/>
<path d="M35.3865 28.252H28.2646V28.3519H35.3865V28.252Z" fill="#44C4A1"/>
<path d="M35.3865 28.0366H28.2646V28.1366H35.3865V28.0366Z" fill="#44C4A1"/>
<path d="M35.3865 27.8169H28.2646V27.9168H35.3865V27.8169Z" fill="#44C4A1"/>
<path d="M35.3865 27.5999H28.2646V27.6998H35.3865V27.5999Z" fill="#44C4A1"/>
<path d="M32.5515 27.4783H31.0996V28.5681H32.5515V27.4783Z" fill="white"/>
<path d="M31.2854 27.4783H31.1963V28.5681H31.2854V27.4783Z" fill="#FCD462"/>
<path d="M32.4544 27.4783H32.3652V28.5681H32.4544V27.4783Z" fill="#FCD462"/>
<path d="M36.0164 26.3901H28.8945V27.48H36.0164V26.3901Z" fill="#3EA69B"/>
<path d="M36.0164 27.3801H28.8945V27.4801H36.0164V27.3801Z" fill="#44C4A1"/>
<path d="M36.0164 27.1631H28.8945V27.263H36.0164V27.1631Z" fill="#44C4A1"/>
<path d="M36.0164 26.9451H28.8945V27.045H36.0164V26.9451Z" fill="#44C4A1"/>
<path d="M36.0164 26.7263H28.8945V26.8262H36.0164V26.7263Z" fill="#44C4A1"/>
<path d="M36.0164 26.51H28.8945V26.6099H36.0164V26.51Z" fill="#44C4A1"/>
<path d="M33.1804 26.3901H31.7285V27.48H33.1804V26.3901Z" fill="white"/>
<path d="M31.9133 26.3901H31.8242V27.48H31.9133V26.3901Z" fill="#FCD462"/>
<path d="M33.0852 26.3901H32.9961V27.48H33.0852V26.3901Z" fill="#FCD462"/>
<path d="M35.5467 25.2988H28.4248V26.3887H35.5467V25.2988Z" fill="#3EA69B"/>
<path d="M35.5467 26.2888H28.4248V26.3887H35.5467V26.2888Z" fill="#44C4A1"/>
<path d="M35.5467 26.0735H28.4248V26.1734H35.5467V26.0735Z" fill="#44C4A1"/>
<path d="M35.5467 25.8572H28.4248V25.9571H35.5467V25.8572Z" fill="#44C4A1"/>
<path d="M35.5467 25.6375H28.4248V25.7374H35.5467V25.6375Z" fill="#44C4A1"/>
<path d="M35.5467 25.4197H28.4248V25.5196H35.5467V25.4197Z" fill="#44C4A1"/>
<path d="M32.7136 25.2988H31.2617V26.3887H32.7136V25.2988Z" fill="white"/>
<path d="M31.4465 25.2988H31.3574V26.3887H31.4465V25.2988Z" fill="#FCD462"/>
<path d="M32.6135 25.2988H32.5244V26.3887H32.6135V25.2988Z" fill="#FCD462"/>
<path d="M36.5584 24.2107H29.4365V25.3006H36.5584V24.2107Z" fill="#3EA69B"/>
<path d="M36.5584 25.2009H29.4365V25.3009H36.5584V25.2009Z" fill="#44C4A1"/>
<path d="M36.5584 24.9829H29.4365V25.0828H36.5584V24.9829Z" fill="#44C4A1"/>
<path d="M36.5584 24.7659H29.4365V24.8658H36.5584V24.7659Z" fill="#44C4A1"/>
<path d="M36.5584 24.5461H29.4365V24.6461H36.5584V24.5461Z" fill="#44C4A1"/>
<path d="M36.5584 24.3308H29.4365V24.4307H36.5584V24.3308Z" fill="#44C4A1"/>
<path d="M33.7214 24.2107H32.2695V25.3006H33.7214V24.2107Z" fill="white"/>
<path d="M32.4544 24.2112H32.3652V25.301H32.4544V24.2112Z" fill="#FCD462"/>
<path d="M33.6262 24.2107H33.5371V25.3006H33.6262V24.2107Z" fill="#FCD462"/>
<path d="M34.8006 23.1211H27.6787V24.211H34.8006V23.1211Z" fill="#3EA69B"/>
<path d="M34.8006 24.1094H27.6787V24.2093H34.8006V24.1094Z" fill="#44C4A1"/>
<path d="M34.8006 23.894H27.6787V23.994H34.8006V23.894Z" fill="#44C4A1"/>
<path d="M34.8006 23.677H27.6787V23.7769H34.8006V23.677Z" fill="#44C4A1"/>
<path d="M34.8006 23.458H27.6787V23.5579H34.8006V23.458Z" fill="#44C4A1"/>
<path d="M34.8006 23.2402H27.6787V23.3402H34.8006V23.2402Z" fill="#44C4A1"/>
<path d="M31.9656 23.1211H30.5137V24.211H31.9656V23.1211Z" fill="white"/>
<path d="M30.6985 23.1211H30.6094V24.211H30.6985V23.1211Z" fill="#FCD462"/>
<path d="M31.8713 23.1211H31.7822V24.211H31.8713V23.1211Z" fill="#FCD462"/>
<path d="M35.6502 22.0315H28.5283V23.1214H35.6502V22.0315Z" fill="#3EA69B"/>
<path d="M35.6502 23.0215H28.5283V23.1214H35.6502V23.0215Z" fill="#44C4A1"/>
<path d="M35.6502 22.8035H28.5283V22.9034H35.6502V22.8035Z" fill="#44C4A1"/>
<path d="M35.6502 22.5864H28.5283V22.6864H35.6502V22.5864Z" fill="#44C4A1"/>
<path d="M35.6502 22.3711H28.5283V22.471H35.6502V22.3711Z" fill="#44C4A1"/>
<path d="M35.6502 22.1514H28.5283V22.2513H35.6502V22.1514Z" fill="#44C4A1"/>
<path d="M32.8132 22.0315H31.3613V23.1214H32.8132V22.0315Z" fill="white"/>
<path d="M31.5501 22.0315H31.4609V23.1214H31.5501V22.0315Z" fill="#FCD462"/>
<path d="M32.717 22.0312H32.6279V23.1211H32.717V22.0312Z" fill="#FCD462"/>
<path d="M29.9645 20.0013L23.665 23.3245L24.1736 24.2884L30.473 20.9653L29.9645 20.0013Z" fill="#3EA69B"/>
<path d="M30.4274 20.8775L24.1279 24.2007L24.1746 24.2891L30.474 20.9659L30.4274 20.8775Z" fill="#44C4A1"/>
<path d="M30.3249 20.6837L24.0254 24.0068L24.072 24.0952L30.3715 20.7721L30.3249 20.6837Z" fill="#44C4A1"/>
<path d="M30.2252 20.492L23.9258 23.8152L23.9724 23.9036L30.2719 20.5804L30.2252 20.492Z" fill="#44C4A1"/>
<path d="M30.1207 20.3006L23.8213 23.6238L23.8679 23.7122L30.1674 20.389L30.1207 20.3006Z" fill="#44C4A1"/>
<path d="M30.0211 20.1073L23.7217 23.4304L23.7683 23.5188L30.0678 20.1957L30.0211 20.1073Z" fill="#44C4A1"/>
<path d="M27.4571 21.3242L26.1729 22.0017L26.6814 22.9657L27.9656 22.2882L27.4571 21.3242Z" fill="white"/>
<path d="M26.3386 21.9154L26.2598 21.957L26.7683 22.921L26.8471 22.8794L26.3386 21.9154Z" fill="#FCD462"/>
<path d="M27.3728 21.3693L27.2939 21.4109L27.8025 22.3749L27.8813 22.3333L27.3728 21.3693Z" fill="#FCD462"/>
<path d="M26.8726 20.4248L20.125 22.7053L20.474 23.7379L27.2216 21.4574L26.8726 20.4248Z" fill="#3EA69B"/>
<path d="M27.188 21.3628L20.4404 23.6433L20.4724 23.738L27.22 21.4574L27.188 21.3628Z" fill="#44C4A1"/>
<path d="M27.1177 21.1555L20.3701 23.436L20.4021 23.5307L27.1497 21.2502L27.1177 21.1555Z" fill="#44C4A1"/>
<path d="M27.0474 20.9509L20.2998 23.2314L20.3318 23.3261L27.0794 21.0456L27.0474 20.9509Z" fill="#44C4A1"/>
<path d="M26.9781 20.7446L20.2305 23.0251L20.2625 23.1198L27.0101 20.8393L26.9781 20.7446Z" fill="#44C4A1"/>
<path d="M26.9087 20.5386L20.1611 22.8191L20.1931 22.9138L26.9407 20.6332L26.9087 20.5386Z" fill="#44C4A1"/>
<path d="M24.1852 21.3324L22.8096 21.7974L23.1586 22.83L24.5342 22.3651L24.1852 21.3324Z" fill="white"/>
<path d="M22.9829 21.7388L22.8984 21.7673L23.2474 22.8L23.3319 22.7714L22.9829 21.7388Z" fill="#FCD462"/>
<path d="M24.0942 21.3638L24.0098 21.3923L24.3588 22.425L24.4432 22.3964L24.0942 21.3638Z" fill="#FCD462"/>
<path d="M32.4216 36.0203L31.9195 33.8768C31.8974 33.7824 31.8131 33.7156 31.7161 33.7156H29.1212C29.0242 33.7156 28.9399 33.7824 28.9178 33.8768L28.4158 36.0203C28.385 36.1514 28.4845 36.2769 28.6192 36.2769H32.2182C32.3529 36.2769 32.4523 36.1514 32.4216 36.0203Z" fill="#F6C358"/>
<path d="M31.7161 33.7156H29.1212C29.0242 33.7156 28.9399 33.7824 28.9178 33.8768L28.4158 36.0203C28.385 36.1514 28.4845 36.2769 28.6192 36.2769C30.4856 36.1817 31.7399 35.5235 31.9196 33.8768C31.8974 33.7824 31.8131 33.7156 31.7161 33.7156Z" fill="#FCD462"/>
<path d="M36.7039 36.0203L36.2017 33.8768C36.1796 33.7824 36.0953 33.7156 35.9983 33.7156H33.4034C33.3065 33.7156 33.2221 33.7824 33.2 33.8768L32.698 36.0203C32.6672 36.1514 32.7668 36.2769 32.9014 36.2769H36.5004C36.6351 36.2769 36.7345 36.1514 36.7039 36.0203Z" fill="#F6C358"/>
<path d="M35.9983 33.7156H33.4034C33.3065 33.7156 33.2221 33.7824 33.2 33.8768L32.698 36.0203C32.6672 36.1514 32.7668 36.2769 32.9014 36.2769C34.7678 36.1817 36.0221 35.5235 36.2018 33.8768C36.1796 33.7824 36.0954 33.7156 35.9983 33.7156Z" fill="#FCD462"/>
<path d="M34.5623 33.459L34.0601 31.3156C34.038 31.2211 33.9537 31.1543 33.8567 31.1543H31.2618C31.1648 31.1543 31.0805 31.2211 31.0584 31.3156L30.5564 33.459C30.5256 33.5901 30.6252 33.7156 30.7598 33.7156H34.3588C34.4935 33.7156 34.5929 33.5901 34.5623 33.459Z" fill="#F6C358"/>
<path d="M33.8567 31.1543H31.2618C31.1648 31.1543 31.0805 31.2211 31.0584 31.3156L30.5564 33.459C30.5256 33.5901 30.6252 33.7156 30.7598 33.7156C32.6262 33.6204 33.8805 32.9622 34.0602 31.3156C34.038 31.2211 33.9538 31.1543 33.8567 31.1543Z" fill="#FCD462"/>
<path d="M30.3484 33.459L29.8463 31.3156C29.8241 31.2211 29.7398 31.1543 29.6429 31.1543H27.048C26.951 31.1543 26.8667 31.2211 26.8445 31.3156L26.3425 33.459C26.3118 33.5901 26.4113 33.7156 26.5459 33.7156H30.145C30.2796 33.7156 30.379 33.5901 30.3484 33.459Z" fill="#F6C358"/>
<path d="M29.6429 31.1543H27.048C26.951 31.1543 26.8667 31.2211 26.8445 31.3156L26.3425 33.459C26.3118 33.5901 26.4113 33.7156 26.5459 33.7156C28.4124 33.6204 29.6666 32.9622 29.8464 31.3156C29.8241 31.2211 29.7399 31.1543 29.6429 31.1543Z" fill="#FCD462"/>
<path d="M23.9998 36.0203L23.4976 33.8768C23.4755 33.7824 23.3912 33.7156 23.2942 33.7156H20.6993C20.6023 33.7156 20.518 33.7824 20.4959 33.8768L19.9939 36.0203C19.9631 36.1514 20.0627 36.2769 20.1973 36.2769H23.7963C23.931 36.2769 24.0305 36.1514 23.9998 36.0203Z" fill="#F6C358"/>
<path d="M23.2942 33.7156H20.6993C20.6023 33.7156 20.518 33.7824 20.4959 33.8768L19.9939 36.0203C19.9631 36.1514 20.0627 36.2769 20.1973 36.2769C22.0637 36.1817 23.318 35.5235 23.4977 33.8768C23.4755 33.7824 23.3912 33.7156 23.2942 33.7156Z" fill="#FCD462"/>
<path d="M28.283 36.0203L27.7809 33.8768C27.7587 33.7824 27.6744 33.7156 27.5774 33.7156H24.9825C24.8856 33.7156 24.8012 33.7824 24.7791 33.8768L24.2771 36.0203C24.2463 36.1514 24.3459 36.2769 24.4805 36.2769H28.0795C28.2142 36.2769 28.3137 36.1514 28.283 36.0203Z" fill="#F6C358"/>
<path d="M27.5774 33.7156H24.9825C24.8856 33.7156 24.8012 33.7824 24.7791 33.8768L24.2771 36.0203C24.2463 36.1514 24.3459 36.2769 24.4805 36.2769C26.3469 36.1817 27.6012 35.5235 27.7809 33.8768C27.7587 33.7824 27.6744 33.7156 27.5774 33.7156Z" fill="#FCD462"/>
<path d="M26.1414 33.459L25.6393 31.3156C25.6171 31.2211 25.5328 31.1543 25.4358 31.1543H22.8409C22.744 31.1543 22.6596 31.2211 22.6375 31.3156L22.1355 33.459C22.1047 33.5901 22.2043 33.7156 22.3389 33.7156H25.9379C26.0726 33.7156 26.1721 33.5901 26.1414 33.459Z" fill="#F6C358"/>
<path d="M25.4358 31.1543H22.8409C22.744 31.1543 22.6596 31.2211 22.6375 31.3156L22.1355 33.459C22.1047 33.5901 22.2043 33.7156 22.3389 33.7156C24.2053 33.6204 25.4596 32.9622 25.6393 31.3156C25.6171 31.2211 25.5328 31.1543 25.4358 31.1543Z" fill="#FCD462"/>
</svg>
