<svg width="56" height="56" viewBox="0 0 56 56" fill="none" xmlns="http://www.w3.org/2000/svg">
<rect width="56" height="56" rx="4" fill="#4AB4EF"/>
<path opacity="0.1" d="M43.7901 27.3914L30.4016 14.0029H12V24.6876L15.563 28.2506L15.4828 28.2759V29.745L15.6727 29.935L15.4828 29.9983V31.4673L15.6727 31.6573L15.4828 31.7206V33.1898L15.6727 33.3797L15.4828 33.4431V34.9122L26.267 45.6964C35.6219 44.4699 42.9651 36.8669 43.7901 27.3914Z" fill="black"/>
<path d="M30.4032 14.0029H12V24.6854H30.4032V14.0029Z" fill="#EBF0F3"/>
<path d="M30.4032 17.1345H12V23.1774H30.4032V17.1345Z" fill="#44C4A1"/>
<path d="M25.3575 23.7083H17.0439V24.043H25.3575V23.7083Z" fill="#64798A"/>
<path d="M21.876 15.9487H15.4844V16.2835H21.876V15.9487Z" fill="#64798A"/>
<path d="M19.9813 14.946H15.4844V15.2808H19.9813V14.946Z" fill="#64798A"/>
<path d="M14.8435 14.9411C14.6477 14.6018 14.2857 14.3928 13.894 14.3928C13.5023 14.3928 13.1403 14.6018 12.9445 14.941C12.7486 15.2803 12.7486 15.6983 12.9445 16.0375C13.1403 16.3767 13.5023 16.5857 13.894 16.5857C14.2857 16.5857 14.6477 16.3767 14.8435 16.0375C15.0394 15.6982 15.0394 15.2803 14.8435 14.9411Z" fill="#E56353"/>
<path d="M24.8491 15.1045H24.082V16.2853H24.8491V15.1045Z" fill="#D5D6DB"/>
<path d="M25.7192 15.1045H24.9521V16.2853H25.7192V15.1045Z" fill="#D5D6DB"/>
<path d="M26.5893 15.1045H25.8223V16.2853H26.5893V15.1045Z" fill="#D5D6DB"/>
<path d="M27.4536 15.1045H26.6865V16.2853H27.4536V15.1045Z" fill="#D5D6DB"/>
<path d="M28.3237 15.1045H27.5566V16.2853H28.3237V15.1045Z" fill="#D5D6DB"/>
<path d="M29.1889 15.1045H28.4219V16.2853H29.1889V15.1045Z" fill="#D5D6DB"/>
<path d="M23.2668 18.4573H12.9199V18.792H23.2668V18.4573Z" fill="#EBF0F3"/>
<path d="M23.2668 19.9973H12.9199V20.3321H23.2668V19.9973Z" fill="#EBF0F3"/>
<path d="M29.4824 21.5217H24.6523V21.8565H29.4824V21.5217Z" fill="#EBF0F3"/>
<path d="M29.4824 18.457H24.6523V20.0319H29.4824V18.457Z" fill="#EBF0F3"/>
<path d="M32.0309 31.535L28.5145 30.3235L21.6803 32.7298L15.4844 33.4449V34.9113L22.1886 37.2213L35.2188 32.6335V31.167L32.0309 31.535Z" fill="#31978C"/>
<path d="M28.5145 28.8569L15.4844 33.4448L22.1886 35.7548L35.2188 31.1669L28.5145 28.8569Z" fill="#3EA69B"/>
<path d="M21.3032 35.1201L17.3161 33.7464C17.7967 33.5772 17.7924 33.3043 17.3066 33.1369L27.6488 29.4955C28.1346 29.6629 28.9181 29.6614 29.3986 29.4922L33.3856 30.8659C32.905 31.0351 32.9093 31.308 33.3951 31.4754L23.0529 35.1168C22.5671 34.9494 21.7837 34.9509 21.3032 35.1201Z" fill="#44C4A1"/>
<path d="M27.138 31.6768C28.401 32.112 28.6247 32.7464 27.6377 33.094C26.6507 33.4415 24.8266 33.3704 23.5636 32.9352C22.3006 32.5001 22.0768 31.8656 23.0639 31.5181C24.0509 31.1705 25.875 31.2416 27.138 31.6768Z" fill="#3EA69B"/>
<path d="M30.8173 30.3814C31.043 30.4591 31.045 30.5859 30.8216 30.6646C30.5983 30.7432 30.2343 30.7439 30.0085 30.6661C29.7827 30.5884 29.7808 30.4616 30.0041 30.3829C30.2274 30.3043 30.5914 30.3036 30.8173 30.3814Z" fill="#3EA69B"/>
<path d="M20.6932 33.9458C20.919 34.0236 20.921 34.1504 20.6976 34.229C20.4743 34.3077 20.1102 34.3084 19.8845 34.2306C19.6587 34.1528 19.6567 34.026 19.8801 33.9474C20.1034 33.8687 20.4675 33.8681 20.6932 33.9458Z" fill="#3EA69B"/>
<path d="M27.0964 32.9745L26.772 32.8627C26.329 32.9899 25.8069 33.0613 25.2065 33.0766L25.1408 32.8304C25.6031 32.8183 25.9851 32.7734 26.2879 32.6958L25.4259 32.3989C25.0147 32.488 24.667 32.5371 24.3828 32.5464C24.0986 32.5556 23.8284 32.5161 23.5722 32.4278C23.316 32.3395 23.1948 32.2362 23.2091 32.1175C23.2237 31.999 23.3656 31.8871 23.6352 31.7819L23.413 31.7053L23.6941 31.6062L23.9207 31.6843C24.2668 31.579 24.6826 31.51 25.1684 31.4773L25.2915 31.7188C24.9587 31.739 24.6636 31.783 24.4051 31.8512L25.2404 32.1391L25.2537 32.1344C25.6707 32.0433 26.0264 31.9934 26.3207 31.9846C26.6155 31.9758 26.8923 32.0161 27.1514 32.1054C27.4107 32.1947 27.531 32.2995 27.512 32.4196C27.4933 32.5397 27.3421 32.6548 27.0579 32.7652L27.3777 32.8754L27.0964 32.9745ZM23.9181 32.0955C23.9099 32.1447 23.9557 32.1865 24.0549 32.2207C24.1542 32.2549 24.262 32.2716 24.3783 32.2708C24.4945 32.2702 24.6616 32.25 24.8791 32.2106L24.1103 31.9457C23.9904 31.9962 23.9262 32.0462 23.9181 32.0955ZM26.7919 32.441C26.8059 32.3887 26.7611 32.3447 26.6574 32.3089C26.5538 32.2732 26.4393 32.2562 26.3142 32.2579C26.1887 32.2598 26.0115 32.2825 25.7825 32.326L26.5822 32.6015C26.7081 32.5469 26.7778 32.4934 26.7919 32.441Z" fill="#44C4A1"/>
<path d="M32.0309 29.8126L28.5145 28.6011L21.6803 31.0074L15.4844 31.7225V33.1889L22.1886 35.4989L35.2188 30.911V29.4446L32.0309 29.8126Z" fill="#31978C"/>
<path d="M28.5145 27.1348L15.4844 31.7226L22.1886 34.0326L35.2188 29.4447L28.5145 27.1348Z" fill="#3EA69B"/>
<path d="M21.3032 33.3977L17.3161 32.024C17.7967 31.8548 17.7924 31.5818 17.3066 31.4145L27.6488 27.7731C28.1346 27.9405 28.9181 27.939 29.3986 27.7698L33.3856 29.1435C32.905 29.3127 32.9093 29.5856 33.3951 29.753L23.0529 33.3944C22.5671 33.227 21.7837 33.2285 21.3032 33.3977Z" fill="#44C4A1"/>
<path d="M27.138 29.9544C28.401 30.3896 28.6247 31.024 27.6377 31.3716C26.6507 31.7191 24.8266 31.648 23.5636 31.2128C22.3006 30.7777 22.0768 30.1432 23.0639 29.7957C24.051 29.4481 25.875 29.5192 27.138 29.9544Z" fill="#3EA69B"/>
<path d="M30.8173 28.6589C31.043 28.7367 31.045 28.8635 30.8216 28.9422C30.5983 29.0208 30.2343 29.0215 30.0085 28.9437C29.7827 28.866 29.7808 28.7392 30.0041 28.6605C30.2274 28.5819 30.5914 28.5812 30.8173 28.6589Z" fill="#3EA69B"/>
<path d="M20.6932 32.2234C20.919 32.3012 20.921 32.428 20.6976 32.5067C20.4743 32.5853 20.1102 32.586 19.8845 32.5082C19.6587 32.4305 19.6567 32.3037 19.8801 32.225C20.1034 32.1463 20.4675 32.1456 20.6932 32.2234Z" fill="#3EA69B"/>
<path d="M27.0964 31.2525L26.772 31.1408C26.329 31.2679 25.8069 31.3393 25.2065 31.3547L25.1408 31.1085C25.6031 31.0964 25.9851 31.0515 26.2879 30.9739L25.4259 30.6769C25.0147 30.7661 24.667 30.8151 24.3828 30.8244C24.0986 30.8337 23.8284 30.7942 23.5722 30.7059C23.316 30.6176 23.1948 30.5143 23.2091 30.3956C23.2237 30.277 23.3656 30.1652 23.6352 30.0599L23.413 29.9834L23.6941 29.8843L23.9207 29.9624C24.2668 29.8571 24.6826 29.7881 25.1684 29.7554L25.2915 29.9969C24.9587 30.0171 24.6636 30.0611 24.4051 30.1293L25.2404 30.4171L25.2537 30.4124C25.6707 30.3214 26.0264 30.2715 26.3207 30.2627C26.6155 30.2539 26.8923 30.2942 27.1514 30.3835C27.4107 30.4728 27.531 30.5776 27.512 30.6976C27.4933 30.8178 27.3421 30.9329 27.0579 31.0433L27.3777 31.1535L27.0964 31.2525ZM23.9181 30.3735C23.9099 30.4227 23.9557 30.4645 24.0549 30.4987C24.1542 30.5329 24.262 30.5495 24.3783 30.5488C24.4945 30.5482 24.6616 30.528 24.8791 30.4886L24.1103 30.2237C23.9904 30.2742 23.9262 30.3242 23.9181 30.3735ZM26.7919 30.719C26.8059 30.6667 26.7611 30.6227 26.6574 30.5869C26.5538 30.5512 26.4393 30.5342 26.3142 30.5359C26.1887 30.5378 26.0115 30.5605 25.7825 30.604L26.5822 30.8795C26.7081 30.8249 26.7778 30.7714 26.7919 30.719Z" fill="#44C4A1"/>
<path d="M32.0309 28.09L28.5145 26.8784L21.6803 29.2848L15.4844 30V31.4663L22.1886 33.7762L35.2188 29.1884V27.722L32.0309 28.09Z" fill="#31978C"/>
<path d="M28.5145 25.4126L15.4844 30.0005L22.1886 32.3103L35.2188 27.7225L28.5145 25.4126Z" fill="#3EA69B"/>
<path d="M21.3032 31.6753L17.3161 30.3016C17.7967 30.1324 17.7924 29.8595 17.3066 29.6921L27.6488 26.0507C28.1346 26.218 28.9181 26.2166 29.3986 26.0474L33.3856 27.4211C32.905 27.5903 32.9093 27.8632 33.3951 28.0306L23.0529 31.672C22.5671 31.5046 21.7837 31.5061 21.3032 31.6753Z" fill="#44C4A1"/>
<path d="M27.138 28.232C28.401 28.6671 28.6247 29.3016 27.6377 29.6491C26.6507 29.9967 24.8266 29.9256 23.5636 29.4904C22.3006 29.0552 22.0768 28.4208 23.0639 28.0732C24.0509 27.7257 25.875 27.7968 27.138 28.232Z" fill="#3EA69B"/>
<path d="M30.8173 26.9366C31.043 27.0143 31.045 27.1411 30.8216 27.2198C30.5983 27.2984 30.2343 27.2991 30.0085 27.2214C29.7827 27.1436 29.7808 27.0168 30.0041 26.9381C30.2274 26.8595 30.5914 26.8587 30.8173 26.9366Z" fill="#3EA69B"/>
<path d="M20.6932 30.501C20.919 30.5788 20.921 30.7056 20.6976 30.7842C20.4743 30.8629 20.1102 30.8636 19.8845 30.7858C19.6587 30.7081 19.6567 30.5812 19.8801 30.5026C20.1034 30.4239 20.4675 30.4232 20.6932 30.501Z" fill="#3EA69B"/>
<path d="M27.0964 29.5299L26.772 29.4182C26.329 29.5453 25.8069 29.6166 25.2065 29.632L25.1408 29.3858C25.6031 29.3737 25.9851 29.3289 26.2879 29.2513L25.4259 28.9543C25.0147 29.0434 24.667 29.0925 24.3828 29.1018C24.0986 29.111 23.8284 29.0715 23.5722 28.9832C23.316 28.8949 23.1948 28.7916 23.2091 28.673C23.2237 28.5544 23.3656 28.4425 23.6352 28.3373L23.413 28.2607L23.6941 28.1617L23.9207 28.2397C24.2668 28.1345 24.6826 28.0654 25.1684 28.0327L25.2915 28.2742C24.9587 28.2944 24.6636 28.3384 24.4051 28.4066L25.2404 28.6945L25.2537 28.6898C25.6707 28.5987 26.0264 28.5489 26.3207 28.54C26.6155 28.5312 26.8923 28.5715 27.1514 28.6608C27.4107 28.7501 27.531 28.8549 27.512 28.975C27.4933 29.0951 27.3421 29.2102 27.0579 29.3206L27.3777 29.4308L27.0964 29.5299ZM23.9181 28.6509C23.9099 28.7001 23.9557 28.7418 24.0549 28.776C24.1542 28.8102 24.262 28.8269 24.3783 28.8261C24.4945 28.8256 24.6616 28.8054 24.8791 28.766L24.1103 28.501C23.9904 28.5517 23.9262 28.6015 23.9181 28.6509ZM26.7919 28.9963C26.8059 28.9441 26.7611 28.9 26.6574 28.8642C26.5538 28.8285 26.4393 28.8116 26.3142 28.8133C26.1887 28.8152 26.0115 28.8379 25.7825 28.8813L26.5822 29.1569C26.7081 29.1023 26.7778 29.0488 26.7919 28.9963Z" fill="#44C4A1"/>
<path d="M32.0309 26.3681L28.5145 25.1565L21.6803 27.5628L15.4844 28.278V29.7444L22.1886 32.0543L35.2188 27.4665V26.0001L32.0309 26.3681Z" fill="#31978C"/>
<path d="M28.5145 23.6902L15.4844 28.278L22.1886 30.588L35.2188 26.0002L28.5145 23.6902Z" fill="#3EA69B"/>
<path d="M21.3032 29.9529L17.3161 28.5791C17.7967 28.4099 17.7924 28.137 17.3066 27.9696L27.6488 24.3282C28.1346 24.4956 28.9181 24.4941 29.3986 24.325L33.3856 25.6987C32.905 25.8679 32.9093 26.1408 33.3951 26.3082L23.0529 29.9496C22.5671 29.7822 21.7837 29.7837 21.3032 29.9529Z" fill="#44C4A1"/>
<path d="M27.138 26.5095C28.401 26.9447 28.6247 27.5792 27.6377 27.9267C26.6507 28.2742 24.8266 28.2032 23.5636 27.768C22.3006 27.3328 22.0768 26.6983 23.0639 26.3508C24.051 26.0033 25.875 26.0743 27.138 26.5095Z" fill="#3EA69B"/>
<path d="M30.8173 25.2142C31.043 25.2919 31.045 25.4187 30.8216 25.4974C30.5983 25.576 30.2343 25.5767 30.0085 25.4989C29.7827 25.4212 29.7808 25.2944 30.0041 25.2157C30.2274 25.1371 30.5914 25.1363 30.8173 25.2142Z" fill="#3EA69B"/>
<path d="M20.6932 28.7789C20.919 28.8566 20.921 28.9834 20.6976 29.0621C20.4743 29.1407 20.1102 29.1414 19.8845 29.0636C19.6587 28.9859 19.6567 28.8591 19.8801 28.7804C20.1034 28.7018 20.4675 28.701 20.6932 28.7789Z" fill="#3EA69B"/>
<path d="M27.0964 27.8075L26.772 27.6957C26.329 27.8229 25.8069 27.8943 25.2065 27.9096L25.1408 27.6634C25.6031 27.6513 25.9851 27.6064 26.2879 27.5289L25.4259 27.2319C25.0147 27.321 24.667 27.3701 24.3828 27.3794C24.0986 27.3886 23.8284 27.3491 23.5722 27.2608C23.316 27.1725 23.1948 27.0692 23.2091 26.9505C23.2237 26.832 23.3656 26.7201 23.6352 26.6149L23.413 26.5383L23.6941 26.4393L23.9207 26.5173C24.2668 26.412 24.6826 26.343 25.1684 26.3103L25.2915 26.5518C24.9587 26.572 24.6636 26.616 24.4051 26.6842L25.2404 26.9721L25.2537 26.9674C25.6707 26.8763 26.0264 26.8265 26.3207 26.8176C26.6155 26.8088 26.8923 26.8491 27.1514 26.9384C27.4107 27.0277 27.531 27.1325 27.512 27.2526C27.4933 27.3727 27.3421 27.4878 27.0579 27.5982L27.3777 27.7084L27.0964 27.8075ZM23.9181 26.9284C23.9099 26.9777 23.9557 27.0194 24.0549 27.0536C24.1542 27.0878 24.262 27.1045 24.3783 27.1037C24.4945 27.1032 24.6616 27.083 24.8791 27.0435L24.1103 26.7786C23.9904 26.8293 23.9262 26.8791 23.9181 26.9284ZM26.7919 27.2739C26.8059 27.2216 26.7611 27.1776 26.6574 27.1418C26.5538 27.1061 26.4393 27.0891 26.3142 27.0909C26.1887 27.0928 26.0115 27.1154 25.7825 27.1589L26.5822 27.4344C26.7081 27.3799 26.7778 27.3264 26.7919 27.2739Z" fill="#44C4A1"/>
<path d="M32.0309 24.6456L28.5145 23.4341L21.6803 25.8404L15.4844 26.5555V28.0219L22.1886 30.3319L35.2188 25.744V24.2776L32.0309 24.6456Z" fill="#31978C"/>
<path d="M28.5145 21.9675L15.4844 26.5554L22.1886 28.8654L35.2188 24.2775L28.5145 21.9675Z" fill="#3EA69B"/>
<path d="M21.3032 28.2302L17.3161 26.8565C17.7967 26.6873 17.7924 26.4144 17.3066 26.247L27.6488 22.6056C28.1346 22.773 28.9181 22.7715 29.3986 22.6023L33.3856 23.976C32.905 24.1452 32.9093 24.4181 33.3951 24.5855L23.0529 28.227C22.5671 28.0595 21.7837 28.061 21.3032 28.2302Z" fill="#44C4A1"/>
<path d="M27.138 24.7871C28.401 25.2223 28.6247 25.8567 27.6377 26.2043C26.6507 26.5518 24.8266 26.4807 23.5636 26.0455C22.3006 25.6104 22.0768 24.9759 23.0639 24.6284C24.051 24.2809 25.875 24.352 27.138 24.7871Z" fill="#3EA69B"/>
<path d="M30.8173 23.492C31.043 23.5697 31.045 23.6965 30.8216 23.7752C30.5983 23.8538 30.2343 23.8545 30.0085 23.7767C29.7827 23.699 29.7808 23.5722 30.0041 23.4935C30.2274 23.4149 30.5914 23.4142 30.8173 23.492Z" fill="#3EA69B"/>
<path d="M20.6932 27.0564C20.919 27.1342 20.921 27.261 20.6976 27.3396C20.4743 27.4183 20.1102 27.4189 19.8845 27.3412C19.6587 27.2634 19.6567 27.1366 19.8801 27.058C20.1034 26.9793 20.4675 26.9787 20.6932 27.0564Z" fill="#3EA69B"/>
<path d="M27.1738 27.1099V35.4681L30.1714 34.4127V26.0544L27.1738 27.1099Z" fill="white"/>
<path d="M27.5312 26.9842V35.3424L27.8406 35.2335V26.8752L27.5312 26.9842Z" fill="#FCD462"/>
<path d="M29.5039 26.2895V34.6478L29.8133 34.5389V26.1807L29.5039 26.2895Z" fill="#FCD462"/>
</svg>
