<svg width="18" height="17" viewBox="0 0 18 17" fill="none" xmlns="http://www.w3.org/2000/svg">
<path d="M15.668 4.00008H13.168V2.33341C13.168 1.40841 12.4263 0.666748 11.5013 0.666748H6.5013C5.5763 0.666748 4.83464 1.40841 4.83464 2.33341V4.00008H2.33464C1.40964 4.00008 0.667969 4.74175 0.667969 5.66675V14.8334C0.667969 15.7584 1.40964 16.5001 2.33464 16.5001H15.668C16.593 16.5001 17.3346 15.7584 17.3346 14.8334V5.66675C17.3346 4.74175 16.593 4.00008 15.668 4.00008ZM6.5013 2.33341H11.5013V4.00008H6.5013V2.33341ZM15.668 14.8334H2.33464V13.1667H15.668V14.8334ZM15.668 10.6667H2.33464V5.66675H4.83464V7.33341H6.5013V5.66675H11.5013V7.33341H13.168V5.66675H15.668V10.6667Z" fill="#77869E"/>
</svg>
