<svg width="18" height="17" viewBox="0 0 18 17" fill="none" xmlns="http://www.w3.org/2000/svg">
<path d="M15.668 3.99996H13.8513C13.943 3.74163 14.0013 3.45829 14.0013 3.16663C14.0013 1.78329 12.8846 0.666626 11.5013 0.666626C10.6263 0.666626 9.86797 1.11663 9.41797 1.79163L9.0013 2.34996L8.58464 1.78329C8.13464 1.11663 7.3763 0.666626 6.5013 0.666626C5.11797 0.666626 4.0013 1.78329 4.0013 3.16663C4.0013 3.45829 4.05964 3.74163 4.1513 3.99996H2.33464C1.40964 3.99996 0.676302 4.74163 0.676302 5.66663L0.667969 14.8333C0.667969 15.7583 1.40964 16.5 2.33464 16.5H15.668C16.593 16.5 17.3346 15.7583 17.3346 14.8333V5.66663C17.3346 4.74163 16.593 3.99996 15.668 3.99996ZM11.5013 2.33329C11.9596 2.33329 12.3346 2.70829 12.3346 3.16663C12.3346 3.62496 11.9596 3.99996 11.5013 3.99996C11.043 3.99996 10.668 3.62496 10.668 3.16663C10.668 2.70829 11.043 2.33329 11.5013 2.33329ZM6.5013 2.33329C6.95964 2.33329 7.33464 2.70829 7.33464 3.16663C7.33464 3.62496 6.95964 3.99996 6.5013 3.99996C6.04297 3.99996 5.66797 3.62496 5.66797 3.16663C5.66797 2.70829 6.04297 2.33329 6.5013 2.33329ZM15.668 14.8333H2.33464V13.1666H15.668V14.8333ZM15.668 10.6666H2.33464V5.66663H6.56797L4.83464 8.02496L6.18464 8.99996L8.16797 6.29996L9.0013 5.16663L9.83464 6.29996L11.818 8.99996L13.168 8.02496L11.4346 5.66663H15.668V10.6666Z" fill="#77869E"/>
</svg>
