<svg width="18" height="20" viewBox="0 0 18 20" fill="none" xmlns="http://www.w3.org/2000/svg">
<path d="M12.9377 6.13997C12.6457 6.13355 12.3619 6.05562 12.1199 5.91507C11.9997 5.84517 11.8631 5.79832 11.7199 5.7776M12.9377 6.13997L11.7199 5.7776M12.9377 6.13997C13.0299 6.13968 13.1218 6.13238 13.2125 6.11837C13.5944 6.06233 13.935 5.87815 14.1588 5.60641C14.2787 5.44397 14.4727 5.33247 14.6929 5.29905C14.9134 5.26578 15.1399 5.3135 15.3171 5.43098C15.6082 5.6041 15.9613 5.67999 16.3108 5.6464L16.3124 5.65399L16.4103 5.63384L16.3949 5.53505C16.3933 5.53529 16.3917 5.53553 16.3902 5.53578L16.2892 5.04511C16.069 5.07853 15.8424 5.03066 15.6653 4.91333C15.0008 4.52264 14.0949 4.65997 13.626 5.22229C13.5062 5.38466 13.3123 5.49614 13.0919 5.5296C13.2036 5.48173 13.3084 5.42161 13.4036 5.35029L12.9377 6.13997ZM11.7199 5.7776L11.7056 5.87656C11.7303 5.88014 11.7548 5.88456 11.7789 5.8898C11.7914 5.8652 11.8027 5.8401 11.8129 5.81456L11.7199 5.7776ZM5.22571 1.73938L5.14451 1.68102C5.22899 1.56347 5.3732 1.49767 5.52174 1.49767H5.52257C5.74538 1.49953 5.95692 1.4229 6.10854 1.28952L6.11249 1.28604L6.11258 1.28615C6.76357 0.771576 7.76021 0.771576 8.4112 1.28615L8.41472 1.28893L8.41465 1.28901C8.56762 1.42149 8.77856 1.49796 9.00153 1.49796C9.22433 1.49796 9.43545 1.42148 9.5884 1.28901L9.59174 1.28612L9.5918 1.2862C10.2421 0.771263 11.2387 0.771273 11.8892 1.28619L11.8934 1.28951L11.8933 1.28962C12.0442 1.42279 12.255 1.49939 12.4775 1.49767L12.4778 1.49767C12.6267 1.49695 12.7714 1.56259 12.8565 1.67998L12.8565 1.68005C12.9431 1.79983 12.9519 1.95278 12.8777 2.08048L12.8777 2.08058L11.375 4.66002C11.494 4.72987 11.5977 4.81908 11.6796 4.92349C11.876 4.87147 12.082 4.85187 12.2869 4.8655L12.2916 4.86582L12.2916 4.86593C12.4899 4.88866 12.6885 4.83813 12.8385 4.73009C12.9879 4.62225 13.0729 4.46926 13.0805 4.31107L13.0808 4.30442L13.081 4.30445C13.1675 3.55043 13.931 3.01687 14.7734 3.07216L14.7767 3.07238L14.7767 3.07243C14.9759 3.09212 15.1742 3.04191 15.327 2.93584L15.3963 2.88766L15.4554 2.94801L15.9036 3.40568L15.9839 3.48759L15.8918 3.55594C15.5776 3.78928 15.1689 3.90139 14.7597 3.86942L14.7555 3.86909L14.7555 3.86901C14.5573 3.84514 14.3585 3.89566 14.2095 4.00468L14.2089 4.00518C14.0591 4.11286 13.9739 4.26582 13.9662 4.42431L13.9659 4.43022L13.9658 4.4302C13.947 4.60334 13.8906 4.76908 13.8021 4.91978C14.3325 4.52551 15.1175 4.4752 15.7159 4.82713L15.7206 4.82984L15.7205 4.82996C15.8759 4.93289 16.0772 4.97614 16.2742 4.94624L16.3681 4.93201L16.3872 5.02497L16.5083 5.6137L16.5294 5.71642L16.4258 5.73264C16.0225 5.79577 15.6056 5.71893 15.266 5.51693L15.2617 5.51442L15.2618 5.51432C15.1065 5.4113 14.9052 5.36815 14.7079 5.39793C14.5108 5.42785 14.3417 5.52703 14.2393 5.6658L14.2361 5.67008L14.236 5.66999C13.9949 5.96271 13.6311 6.15792 13.2274 6.21726L11.2866 4.61309L12.7913 2.03024C12.8453 1.93728 12.8393 1.82694 12.7755 1.73865C12.7116 1.6505 12.599 1.59709 12.4783 1.59767C12.2332 1.59957 11.998 1.51536 11.8271 1.3646C11.213 0.878467 10.2678 0.878467 9.65387 1.3646C9.48132 1.51404 9.24643 1.59796 9.00153 1.59796C8.75645 1.59796 8.52174 1.51404 8.34918 1.3646C7.73454 0.878759 6.78923 0.878759 6.17459 1.3646C6.00306 1.5155 5.76715 1.59971 5.52174 1.59767C5.40115 1.59767 5.28906 1.65123 5.22571 1.73938ZM5.22571 1.73938C5.16219 1.82738 5.15642 1.93757 5.21043 2.03024M5.22571 1.73938L5.14463 1.68085C5.05832 1.80043 5.04982 1.95326 5.12403 2.08059M5.21043 2.03024L5.124 2.08053L5.12403 2.08059M5.21043 2.03024L6.71325 4.61301L6.24641 5.94046C6.12188 5.733 6.0844 5.49072 6.14714 5.25707C6.21405 5.00786 6.38752 4.79593 6.62447 4.65927L5.12403 2.08059M5.21043 2.03024L5.12403 2.08059M14.7668 3.17195C14.9883 3.19384 15.2106 3.13838 15.384 3.01798L15.7615 3.40348C15.7652 3.4008 15.7689 3.39809 15.7726 3.39536L15.8322 3.47565L15.7608 3.54562L15.7486 3.53319C15.4675 3.71215 15.1185 3.79714 14.7675 3.76972C14.5457 3.74302 14.3212 3.79906 14.1505 3.92399C13.9788 4.04745 13.8757 4.22725 13.8663 4.41946C13.8305 4.75104 13.6428 5.05693 13.3446 5.26957M14.7668 3.17195L13.3803 5.3171L13.3446 5.26957M14.7668 3.17195C13.9642 3.11926 13.2593 3.62729 13.1804 4.31584C13.1712 4.50775 13.0683 4.68755 12.8971 4.81117C12.7257 4.93463 12.5019 4.99068 12.2802 4.96528C12.0632 4.95083 11.8449 4.97579 11.6399 5.03884C11.5615 4.92196 11.4536 4.82212 11.3246 4.74643L14.7668 3.17195ZM13.3446 5.26957C13.2588 5.33395 13.1643 5.38875 13.0635 5.43294C13.0672 5.43236 13.071 5.43175 13.0747 5.4311L13.0767 5.43075L13.0767 5.43077C13.189 5.41375 13.2921 5.3743 13.379 5.31789L13.3446 5.26957ZM11.7515 5.93999C11.7176 5.93154 11.6836 5.92329 11.6495 5.91523C11.6303 5.94551 11.6091 5.97484 11.5859 6.00308C11.6217 6.01134 11.6574 6.01982 11.6929 6.02851C11.7142 5.99994 11.7337 5.97039 11.7515 5.93999ZM12.6106 6.20434C12.4673 6.15145 12.3214 6.10226 12.1732 6.05691C12.3105 6.12435 12.4579 6.17386 12.6106 6.20434ZM6.66938 1.91091L6.66951 1.91109L6.67447 1.9068C6.82763 1.77428 7.03878 1.69767 7.26189 1.69767C7.48484 1.69767 7.69615 1.77428 7.84931 1.9068L7.84925 1.90687L7.85272 1.90962C8.50338 2.42406 9.49985 2.42405 10.1507 1.90963L10.1507 1.90971L10.1542 1.90674C10.307 1.77425 10.5178 1.69767 10.7405 1.69767C10.9631 1.69767 11.174 1.77426 11.3268 1.90674L11.3267 1.9069L11.3319 1.91086C11.4757 2.01988 11.6369 2.10974 11.8101 2.17779L10.4666 4.48656H7.53323L6.19024 2.17807C6.36363 2.10994 6.52515 2.02007 6.66938 1.91091ZM7.26087 5.68212C7.10911 5.68212 7.01304 5.5794 7.01304 5.48323C7.01304 5.38706 7.10911 5.28434 7.26087 5.28434H10.7391C10.8908 5.28434 10.987 5.38709 10.987 5.48323C10.987 5.57937 10.8908 5.68212 10.7391 5.68212H7.26087ZM16.2043 17.4388C16.2043 17.8651 15.7967 18.2355 15.2609 18.2355H2.73913C2.20318 18.2355 1.79565 17.8651 1.79565 17.4388V12.0588C1.79953 8.99268 4.69663 6.48336 8.30444 6.4799H9.69556C13.3032 6.48336 16.2004 8.99273 16.2043 12.0589V17.4388Z" fill="#77869E" stroke="#77869E" stroke-width="0.2"/>
<path d="M6.6028 14.1627L6.51453 14.2385L6.6028 14.3144L7.09481 14.7372L7.15999 14.7932L7.22516 14.7372L11.3991 11.1503L11.4873 11.0745L11.3991 10.9987L10.9072 10.576L10.8421 10.52L10.7769 10.576L6.6028 14.1627Z" fill="#77869E" stroke="#77869E" stroke-width="0.2"/>
<path d="M10.3911 12.8556C9.77423 12.8556 9.24766 13.2881 9.24766 13.8522C9.24766 14.4163 9.77423 14.8489 10.3911 14.8489C11.0079 14.8489 11.5346 14.4163 11.5346 13.8522C11.5346 13.2881 11.0079 12.8556 10.3911 12.8556ZM10.3911 14.0511C10.2394 14.0511 10.1433 13.9484 10.1433 13.8522C10.1433 13.7561 10.2394 13.6533 10.3911 13.6533C10.5428 13.6533 10.639 13.7561 10.639 13.8522C10.639 13.9484 10.5428 14.0511 10.3911 14.0511Z" fill="#77869E" stroke="#77869E" stroke-width="0.2"/>
<path d="M7.60989 12.4578C8.22661 12.4578 8.75336 12.0252 8.75336 11.4611C8.75336 10.897 8.22661 10.4645 7.60989 10.4645C6.99298 10.4645 6.46641 10.897 6.46641 11.4611C6.46641 12.0252 6.99298 12.4578 7.60989 12.4578ZM7.60989 11.2622C7.76151 11.2622 7.85771 11.365 7.85771 11.4611C7.85771 11.5573 7.76151 11.66 7.60989 11.66C7.45813 11.66 7.36206 11.5573 7.36206 11.4611C7.36206 11.365 7.45813 11.2622 7.60989 11.2622Z" fill="#77869E" stroke="#77869E" stroke-width="0.2"/>
<path d="M8.99856 8.37217H8.99847C6.26847 8.37217 4.02891 10.2767 4.02891 12.6566C4.02891 15.0365 6.26847 16.9411 8.99847 16.9411C11.7283 16.9411 13.968 15.0365 13.968 12.6566V12.6565C13.9651 10.2777 11.7272 8.37469 8.99856 8.37217ZM8.99837 16.1433C6.73369 16.1432 4.92456 14.5685 4.92456 12.6566C4.92456 10.7447 6.73374 9.16995 8.99847 9.16995C11.263 9.16995 13.0723 10.7446 13.0724 12.6565C13.0699 14.5677 11.262 16.1411 8.99837 16.1433Z" fill="#77869E" stroke="#77869E" stroke-width="0.2"/>
</svg>
