<svg width="18" height="18" viewBox="0 0 18 18" fill="none" xmlns="http://www.w3.org/2000/svg">
<path d="M9.0013 8.08341C8.49297 8.08341 8.08464 8.49175 8.08464 9.00008C8.08464 9.50842 8.49297 9.91675 9.0013 9.91675C9.50964 9.91675 9.91797 9.50842 9.91797 9.00008C9.91797 8.49175 9.50964 8.08341 9.0013 8.08341ZM9.0013 0.666748C4.4013 0.666748 0.667969 4.40008 0.667969 9.00008C0.667969 13.6001 4.4013 17.3334 9.0013 17.3334C13.6013 17.3334 17.3346 13.6001 17.3346 9.00008C17.3346 4.40008 13.6013 0.666748 9.0013 0.666748ZM10.8263 10.8251L4.0013 14.0001L7.1763 7.17508L14.0013 4.00008L10.8263 10.8251Z" fill="#77869E"/>
</svg>
