<svg width="18" height="18" viewBox="0 0 18 18" fill="none" xmlns="http://www.w3.org/2000/svg">
<path d="M9.0013 0.666016C4.4013 0.666016 0.667969 4.39935 0.667969 8.99935C0.667969 13.5993 4.4013 17.3327 9.0013 17.3327C13.6013 17.3327 17.3346 13.5993 17.3346 8.99935C17.3346 4.39935 13.6013 0.666016 9.0013 0.666016ZM9.0013 3.16602C10.3846 3.16602 11.5013 4.28268 11.5013 5.66602C11.5013 7.04935 10.3846 8.16602 9.0013 8.16602C7.61797 8.16602 6.5013 7.04935 6.5013 5.66602C6.5013 4.28268 7.61797 3.16602 9.0013 3.16602ZM9.0013 14.9994C6.91797 14.9994 5.0763 13.9327 4.0013 12.316C4.0263 10.6577 7.33464 9.74935 9.0013 9.74935C10.6596 9.74935 13.9763 10.6577 14.0013 12.316C12.9263 13.9327 11.0846 14.9994 9.0013 14.9994Z" fill="#DE4A09"/>
</svg>
