<svg width="18" height="17" viewBox="0 0 18 17" fill="none" xmlns="http://www.w3.org/2000/svg">
<path d="M15.668 4.00033H13.8513C13.943 3.74199 14.0013 3.45866 14.0013 3.16699C14.0013 1.78366 12.8846 0.666992 11.5013 0.666992C10.6263 0.666992 9.86797 1.11699 9.41797 1.79199L9.0013 2.35033L8.58464 1.78366C8.13464 1.11699 7.3763 0.666992 6.5013 0.666992C5.11797 0.666992 4.0013 1.78366 4.0013 3.16699C4.0013 3.45866 4.05964 3.74199 4.1513 4.00033H2.33464C1.40964 4.00033 0.676302 4.74199 0.676302 5.66699L0.667969 14.8337C0.667969 15.7587 1.40964 16.5003 2.33464 16.5003H15.668C16.593 16.5003 17.3346 15.7587 17.3346 14.8337V5.66699C17.3346 4.74199 16.593 4.00033 15.668 4.00033ZM11.5013 2.33366C11.9596 2.33366 12.3346 2.70866 12.3346 3.16699C12.3346 3.62533 11.9596 4.00033 11.5013 4.00033C11.043 4.00033 10.668 3.62533 10.668 3.16699C10.668 2.70866 11.043 2.33366 11.5013 2.33366ZM6.5013 2.33366C6.95964 2.33366 7.33464 2.70866 7.33464 3.16699C7.33464 3.62533 6.95964 4.00033 6.5013 4.00033C6.04297 4.00033 5.66797 3.62533 5.66797 3.16699C5.66797 2.70866 6.04297 2.33366 6.5013 2.33366ZM15.668 14.8337H2.33464V13.167H15.668V14.8337ZM15.668 10.667H2.33464V5.66699H6.56797L4.83464 8.02533L6.18464 9.00033L8.16797 6.30033L9.0013 5.16699L9.83464 6.30033L11.818 9.00033L13.168 8.02533L11.4346 5.66699H15.668V10.667Z" fill="#DE4A09"/>
</svg>
