<svg width="18" height="16" viewBox="0 0 18 16" fill="none" xmlns="http://www.w3.org/2000/svg">
<path d="M12.7513 0.5C11.3013 0.5 9.90964 1.175 9.0013 2.24167C8.09297 1.175 6.7013 0.5 5.2513 0.5C2.68464 0.5 0.667969 2.51667 0.667969 5.08333C0.667969 8.23333 3.5013 10.8 7.79297 14.7L9.0013 15.7917L10.2096 14.6917C14.5013 10.8 17.3346 8.23333 17.3346 5.08333C17.3346 2.51667 15.318 0.5 12.7513 0.5ZM9.08464 13.4583L9.0013 13.5417L8.91797 13.4583C4.9513 9.86667 2.33464 7.49167 2.33464 5.08333C2.33464 3.41667 3.58464 2.16667 5.2513 2.16667C6.53464 2.16667 7.78464 2.99167 8.2263 4.13333H9.78464C10.218 2.99167 11.468 2.16667 12.7513 2.16667C14.418 2.16667 15.668 3.41667 15.668 5.08333C15.668 7.49167 13.0513 9.86667 9.08464 13.4583Z" fill="#DE4A09"/>
</svg>
