<svg width="18" height="18" viewBox="0 0 18 18" fill="none" xmlns="http://www.w3.org/2000/svg">
<path d="M9.0013 0.666992C4.4013 0.666992 0.667969 4.40033 0.667969 9.00033C0.667969 13.6003 4.4013 17.3337 9.0013 17.3337C13.6013 17.3337 17.3346 13.6003 17.3346 9.00033C17.3346 4.40033 13.6013 0.666992 9.0013 0.666992ZM9.0013 3.16699C10.3846 3.16699 11.5013 4.28366 11.5013 5.66699C11.5013 7.05033 10.3846 8.16699 9.0013 8.16699C7.61797 8.16699 6.5013 7.05033 6.5013 5.66699C6.5013 4.28366 7.61797 3.16699 9.0013 3.16699ZM9.0013 15.0003C6.91797 15.0003 5.0763 13.9337 4.0013 12.317C4.0263 10.6587 7.33464 9.75033 9.0013 9.75033C10.6596 9.75033 13.9763 10.6587 14.0013 12.317C12.9263 13.9337 11.0846 15.0003 9.0013 15.0003Z" fill="#77869E"/>
</svg>
