<svg width="18" height="18" viewBox="0 0 18 18" fill="none" xmlns="http://www.w3.org/2000/svg">
<path d="M9.0013 0.666626C4.4013 0.666626 0.667969 4.39996 0.667969 8.99996C0.667969 13.6 4.4013 17.3333 9.0013 17.3333C13.6013 17.3333 17.3346 13.6 17.3346 8.99996C17.3346 4.39996 13.6013 0.666626 9.0013 0.666626ZM9.0013 3.16663C10.3846 3.16663 11.5013 4.28329 11.5013 5.66663C11.5013 7.04996 10.3846 8.16663 9.0013 8.16663C7.61797 8.16663 6.5013 7.04996 6.5013 5.66663C6.5013 4.28329 7.61797 3.16663 9.0013 3.16663ZM9.0013 15C6.91797 15 5.0763 13.9333 4.0013 12.3166C4.0263 10.6583 7.33464 9.74996 9.0013 9.74996C10.6596 9.74996 13.9763 10.6583 14.0013 12.3166C12.9263 13.9333 11.0846 15 9.0013 15Z" fill="#77869E"/>
</svg>
